<?xml version="1.0" encoding="UTF-8" standalone="no"?>
<svg
   viewBox="0 0 32 40"
   x="0px"
   y="0px"
   version="1.1"
   id="svg4"
   sodipodi:docname="noun-24-hour-6180213.svg"
   inkscape:version="1.3 (0e150ed6c4, 2023-07-21)"
   xmlns:inkscape="http://www.inkscape.org/namespaces/inkscape"
   xmlns:sodipodi="http://sodipodi.sourceforge.net/DTD/sodipodi-0.dtd"
   xmlns="http://www.w3.org/2000/svg"
   xmlns:svg="http://www.w3.org/2000/svg">
  <defs
     id="defs4" />
  <sodipodi:namedview
     id="namedview4"
     pagecolor="#ffffff"
     bordercolor="#999999"
     borderopacity="1"
     inkscape:showpageshadow="0"
     inkscape:pageopacity="0"
     inkscape:pagecheckerboard="0"
     inkscape:deskcolor="#d1d1d1"
     inkscape:zoom="12.525"
     inkscape:cx="16.007984"
     inkscape:cy="19.92016"
     inkscape:window-width="1366"
     inkscape:window-height="697"
     inkscape:window-x="-8"
     inkscape:window-y="-8"
     inkscape:window-maximized="1"
     inkscape:current-layer="svg4" />
  <g
     data-name="Layer 2"
     id="g3">
    <path
       d="M28,15.94h0a1,1,0,0,0-1,1A11,11,0,0,1,11.47,27,11,11,0,0,1,20.11,6.81L17.91,7A1,1,0,0,0,18,9h.09l5.65-.5a1,1,0,0,0,.84-.6,1,1,0,0,0-.14-1L20.91,2.43a1,1,0,1,0-1.56,1.25l.79,1A13,13,0,0,0,3.84,21.59a13,13,0,0,0,16.75,7.57A13,13,0,0,0,29,16.94,1,1,0,0,0,28,15.94ZM21.72,6.67Z"
       id="path1" />
    <path
       d="M16,15.19A3.19,3.19,0,0,0,12.81,12H12a3,3,0,0,0-3,3,1,1,0,0,0,2,0,1,1,0,0,1,1-1h.81A1.19,1.19,0,0,1,14,15.19a.67.67,0,0,1-.26.54l-.09.08L9.28,20.3A1,1,0,0,0,10,22h5a1,1,0,0,0,0-2H12.37L15,17.24A2.66,2.66,0,0,0,16,15.19Z"
       id="path2" />
    <path
       d="M22,22a1,1,0,0,0,1-1V13a1,1,0,0,0-2,0v4H18.48l1.45-3.63a1,1,0,0,0-1.86-.74l-2,5a1,1,0,0,0,.1.93A1,1,0,0,0,17,19h4v2A1,1,0,0,0,22,22Z"
       id="path3" />
  </g>
  <path
     style="fill:#2c9448;fill-rule:evenodd;stroke:#000000;stroke-width:0;stroke-opacity:0.988166;paint-order:fill markers stroke;fill-opacity:1"
     d="M 9.7271788,21.908399 C 9.3346301,21.794751 9.0618762,21.415813 9.0618762,20.984093 c 0,-0.409655 -0.1432022,-0.24579 3.2515748,-3.720731 1.64881,-1.687744 1.698525,-1.74815 1.698525,-2.063782 0,-0.443852 -0.200859,-0.831325 -0.539408,-1.04056 -0.357207,-0.220765 -1.340176,-0.293413 -1.812963,-0.133988 -0.367287,0.12385 -0.681561,0.530068 -0.681561,0.880959 0,0.538504 -0.462041,1.022153 -0.976486,1.022153 -0.6453291,0 -0.991069,-0.476277 -0.9194104,-1.266541 0.078517,-0.865902 0.7462024,-1.863561 1.5069224,-2.251651 0.726413,-0.370589 1.88491,-0.496965 2.800214,-0.305465 0.963255,0.201533 1.866275,0.916941 2.284963,1.810238 0.185022,0.394756 0.213977,0.559168 0.213977,1.215016 0,1.051434 -0.123266,1.274617 -1.475105,2.670814 -0.597282,0.61688 -1.314822,1.364116 -1.594534,1.660523 L 12.310019,20 l 1.27014,0.0019 c 0.698577,0.001 1.413853,0.03507 1.589502,0.0756 0.981992,0.226608 1.021971,1.567241 0.05475,1.83588 -0.366617,0.101824 -5.143264,0.09749 -5.4972302,-0.005 z"
     id="path4" />
  <path
     style="fill:#2c9448;fill-opacity:1;fill-rule:evenodd;stroke:#000000;stroke-width:0;stroke-opacity:0.988166;paint-order:fill markers stroke"
     d="m 21.41969,21.73613 c -0.324258,-0.267795 -0.381766,-0.524087 -0.381766,-1.701407 v -1.072647 l -2.135728,-2.99e-4 c -1.973927,-2.75e-4 -2.155001,-0.01205 -2.390114,-0.155408 -0.316173,-0.192784 -0.447396,-0.429885 -0.44138,-0.797511 0.0058,-0.355493 2.020424,-5.386414 2.258401,-5.639728 0.414134,-0.440826 0.989579,-0.417004 1.388843,0.05749 0.323323,0.384247 0.271945,0.647498 -0.516842,2.648232 -0.394938,1.00175 -0.71807,1.855044 -0.71807,1.896208 0,0.04345 0.5359,0.07484 1.277445,0.07484 h 1.277445 v -2.143881 c 0,-2.099896 0.0037,-2.149448 0.182244,-2.41517 0.259432,-0.386192 0.711433,-0.534759 1.113413,-0.365964 0.1673,0.07025 0.368218,0.240727 0.458783,0.389273 0.156232,0.25625 0.16114,0.392448 0.161429,4.479827 3.22e-4,4.539823 0.0031,4.507877 -0.416212,4.801568 -0.270488,0.189457 -0.856557,0.160397 -1.117891,-0.05543 z"
     id="path5" />
</svg>
