<?xml version="1.0" encoding="UTF-8" standalone="no"?>
<svg
   version="1.1"
   x="0px"
   y="0px"
   viewBox="0 0 512 640"
   style="enable-background:new 0 0 512 512;"
   xml:space="preserve"
   id="svg6"
   sodipodi:docname="noun-credit-card-2313332.svg"
   inkscape:version="1.3 (0e150ed6c4, 2023-07-21)"
   xmlns:inkscape="http://www.inkscape.org/namespaces/inkscape"
   xmlns:sodipodi="http://sodipodi.sourceforge.net/DTD/sodipodi-0.dtd"
   xmlns="http://www.w3.org/2000/svg"
   xmlns:svg="http://www.w3.org/2000/svg"><defs
     id="defs6" /><sodipodi:namedview
     id="namedview6"
     pagecolor="#ffffff"
     bordercolor="#999999"
     borderopacity="1"
     inkscape:showpageshadow="0"
     inkscape:pageopacity="0"
     inkscape:pagecheckerboard="0"
     inkscape:deskcolor="#d1d1d1"
     inkscape:zoom="0.7828125"
     inkscape:cx="256.12774"
     inkscape:cy="318.72255"
     inkscape:window-width="1366"
     inkscape:window-height="697"
     inkscape:window-x="-8"
     inkscape:window-y="-8"
     inkscape:window-maximized="1"
     inkscape:current-layer="svg6" /><g
     id="g5"><g
       id="g4"><path
         d="M20.939,392.811c0,10.89,8.83,19.749,19.682,19.749h431.693c10.854,0,19.685-8.859,19.685-19.749V260.48H20.939V392.811z     M248.835,362.954H133.788c-2.209,0-4-1.791-4-4s1.791-4,4-4h115.047c2.209,0,4,1.791,4,4S251.044,362.954,248.835,362.954z     M345.368,300.706c0.773,0,1.547,0.028,2.318,0.077c0.254,0.016,0.506,0.046,0.759,0.066c0.52,0.044,1.038,0.09,1.556,0.154    c0.299,0.038,0.596,0.087,0.894,0.132c0.471,0.07,0.941,0.145,1.41,0.233c0.312,0.059,0.621,0.125,0.932,0.191    c0.454,0.098,0.907,0.202,1.358,0.316c0.311,0.079,0.62,0.161,0.93,0.248c0.452,0.126,0.901,0.263,1.349,0.406    c0.299,0.096,0.597,0.19,0.894,0.293c0.465,0.161,0.925,0.336,1.384,0.516c0.271,0.105,0.545,0.206,0.814,0.318    c0.514,0.214,1.021,0.446,1.528,0.683c0.206,0.097,0.416,0.185,0.621,0.284c0.044,0.022,0.09,0.041,0.135,0.063    c0.042-0.021,0.087-0.039,0.129-0.06c0.152-0.075,0.31-0.141,0.463-0.214c0.558-0.266,1.118-0.522,1.688-0.76    c0.232-0.097,0.468-0.184,0.702-0.276c0.495-0.195,0.992-0.386,1.494-0.56c0.271-0.094,0.542-0.181,0.814-0.268    c0.473-0.152,0.947-0.298,1.425-0.432c0.292-0.081,0.584-0.158,0.877-0.233c0.468-0.118,0.938-0.228,1.41-0.328    c0.3-0.064,0.599-0.128,0.9-0.186c0.479-0.09,0.96-0.166,1.442-0.238c0.293-0.044,0.586-0.092,0.88-0.129    c0.523-0.065,1.048-0.111,1.574-0.155c0.253-0.021,0.505-0.051,0.759-0.066c0.778-0.049,1.559-0.077,2.34-0.077    c20.833,0,37.781,16.983,37.781,37.858c0,20.909-16.948,37.92-37.781,37.92c-0.786,0-1.57-0.028-2.353-0.077    c-0.258-0.016-0.513-0.046-0.77-0.067c-0.524-0.043-1.049-0.089-1.57-0.154c-0.302-0.037-0.601-0.086-0.901-0.131    c-0.474-0.071-0.946-0.146-1.417-0.233c-0.314-0.06-0.628-0.126-0.94-0.193c-0.454-0.097-0.905-0.201-1.354-0.315    c-0.314-0.079-0.627-0.162-0.938-0.249c-0.447-0.126-0.892-0.262-1.334-0.403c-0.303-0.098-0.605-0.193-0.905-0.298    c-0.457-0.159-0.908-0.333-1.358-0.51c-0.275-0.108-0.553-0.211-0.825-0.325c-0.511-0.215-1.015-0.448-1.516-0.687    c-0.202-0.096-0.408-0.183-0.609-0.281c-0.031-0.017-0.064-0.029-0.096-0.045c-0.033,0.017-0.067,0.03-0.101,0.047    c-0.193,0.096-0.393,0.18-0.588,0.271c-0.509,0.241-1.02,0.478-1.538,0.695c-0.269,0.113-0.542,0.214-0.813,0.321    c-0.454,0.178-0.909,0.354-1.37,0.514c-0.299,0.104-0.599,0.199-0.899,0.296c-0.444,0.143-0.891,0.279-1.34,0.405    c-0.311,0.087-0.622,0.169-0.935,0.248c-0.451,0.114-0.904,0.219-1.359,0.316c-0.312,0.066-0.623,0.133-0.937,0.191    c-0.472,0.089-0.945,0.164-1.42,0.234c-0.3,0.045-0.599,0.094-0.899,0.131c-0.522,0.065-1.047,0.111-1.571,0.155    c-0.257,0.021-0.512,0.051-0.769,0.066c-0.782,0.049-1.566,0.077-2.353,0.077c-20.866,0-37.843-17.011-37.843-37.92    C307.525,317.689,324.502,300.706,345.368,300.706z M206.519,299.021h42.316c2.209,0,4,1.791,4,4s-1.791,4-4,4h-42.316    c-2.209,0-4-1.791-4-4S204.31,299.021,206.519,299.021z M84.681,299.021h89.921c2.209,0,4,1.791,4,4s-1.791,4-4,4H84.681    c-2.209,0-4-1.791-4-4S82.472,299.021,84.681,299.021z M84.681,354.954h22c2.209,0,4,1.791,4,4s-1.791,4-4,4h-22    c-2.209,0-4-1.791-4-4S82.472,354.954,84.681,354.954z"
         id="path1" /><rect
         x="20.939"
         y="183.922"
         width="471.06"
         height="68.559"
         id="rect1" /><path
         d="M345.368,368.484c0.71,0,1.418-0.03,2.124-0.08c0.229-0.017,0.457-0.046,0.687-0.067c0.476-0.045,0.951-0.095,1.424-0.162    c0.267-0.038,0.531-0.086,0.797-0.131c0.434-0.074,0.865-0.154,1.294-0.247c0.273-0.059,0.545-0.123,0.815-0.189    c0.424-0.104,0.844-0.218,1.263-0.34c0.154-0.046,0.309-0.093,0.463-0.141c-0.033-0.027-0.071-0.063-0.105-0.093    c-0.088-0.075-0.171-0.144-0.263-0.224c-0.1-0.088-0.203-0.187-0.306-0.28c-0.09-0.081-0.175-0.158-0.267-0.245    c-0.051-0.048-0.099-0.09-0.15-0.14c-0.184-0.178-0.368-0.37-0.553-0.564c-0.027-0.029-0.055-0.054-0.082-0.083l-0.172-0.169    c-0.235-0.235-0.461-0.467-0.678-0.695c-0.163-0.171-0.313-0.336-0.465-0.502c-0.061-0.066-0.126-0.135-0.185-0.2    c-0.125-0.14-0.24-0.275-0.357-0.412c-0.071-0.083-0.147-0.168-0.217-0.25c-0.123-0.147-0.236-0.291-0.351-0.436    c-0.037-0.046-0.077-0.094-0.112-0.14c-0.011-0.013-0.022-0.026-0.033-0.04c-0.014-0.017-0.025-0.033-0.039-0.051    c-0.003-0.003-0.006-0.006-0.008-0.009c0,0,0-0.001-0.001-0.001c-0.387-0.474-0.761-0.949-1.118-1.426    c-1.115-1.49-2.078-2.991-2.874-4.479c-0.231-0.402-0.454-0.828-0.665-1.272c-0.038-0.079-0.07-0.165-0.107-0.245    c-0.163-0.354-0.324-0.71-0.474-1.085c-0.117-0.235-0.239-0.484-0.359-0.746c-0.03-0.065-0.058-0.138-0.087-0.205    c-0.086-0.191-0.172-0.383-0.251-0.588c-0.123-0.276-0.221-0.552-0.325-0.828c-0.057-0.151-0.125-0.304-0.178-0.453    c-0.135-0.385-0.251-0.753-0.36-1.105l-0.016-0.047c-0.001-0.003-0.002-0.005-0.002-0.008c-0.009-0.025-0.019-0.055-0.026-0.08    c-0.391-1.234-0.729-2.514-0.995-3.775c-0.013-0.06-0.024-0.119-0.034-0.179c-0.01-0.062-0.02-0.128-0.029-0.189l-0.044-0.276    c-0.004-0.022-0.007-0.046-0.011-0.068c-0.075-0.468-0.147-0.938-0.217-1.427c-0.046-0.314-0.083-0.645-0.124-0.97    c-0.026-0.22-0.06-0.435-0.083-0.655c0-0.004-0.001-0.009-0.001-0.013c-0.137-1.296-0.203-2.574-0.203-3.909    c0-0.636,0.018-1.277,0.051-1.92c0.024-0.479,0.067-0.936,0.109-1.393c0.017-0.179,0.023-0.356,0.042-0.534    c0.031-0.298,0.066-0.595,0.104-0.889c0.002-0.015,0.004-0.029,0.006-0.044c0.009-0.067,0.018-0.132,0.026-0.198    c0.033-0.245,0.065-0.488,0.101-0.728c0.008-0.051,0.015-0.1,0.022-0.15c0.037-0.253,0.075-0.501,0.113-0.743    c0.006-0.036,0.012-0.07,0.018-0.107c0.028-0.177,0.057-0.355,0.084-0.524c0.016-0.163,0.041-0.326,0.077-0.489    c0.125-0.565,0.264-1.104,0.406-1.626c0.064-0.239,0.132-0.467,0.198-0.699c0.064-0.226,0.128-0.457,0.192-0.679    c0.034-0.219,0.087-0.436,0.157-0.646c0.004-0.01,0.007-0.02,0.01-0.029c0.136-0.406,0.283-0.839,0.443-1.285    c0.015-0.039,0.027-0.075,0.041-0.114c0.16-0.439,0.343-0.894,0.546-1.356c0.019-0.042,0.03-0.08,0.05-0.122l0.007-0.022    l0.111-0.333c0.008-0.022,0.019-0.043,0.026-0.065c0.029-0.084,0.061-0.167,0.096-0.249c0.009-0.021,0.02-0.041,0.028-0.062    c0.004-0.008,0.006-0.017,0.01-0.024l0.177-0.384c0.015-0.032,0.033-0.068,0.048-0.101c0.063-0.136,0.123-0.275,0.188-0.41    c0.061-0.131,0.138-0.281,0.203-0.42c0.063-0.131,0.117-0.251,0.184-0.385c0.017-0.035,0.038-0.071,0.056-0.106    c0.173-0.344,0.365-0.696,0.572-1.056c0.003-0.006,0.006-0.012,0.01-0.019c0.014-0.024,0.026-0.052,0.04-0.076    c0.004-0.007,0.009-0.014,0.012-0.021c0.021-0.035,0.036-0.07,0.058-0.105c0.011-0.019,0.022-0.036,0.033-0.055    c0.003-0.004,0.004-0.009,0.007-0.013c0.001-0.002,0.002-0.003,0.003-0.005c0.396-0.708,0.826-1.406,1.268-2.099    c0.076-0.12,0.143-0.247,0.22-0.365c0.416-0.638,0.866-1.257,1.316-1.875c0.151-0.206,0.287-0.424,0.441-0.628    c0.133-0.188,0.267-0.352,0.396-0.497c0.018-0.021,0.029-0.031,0.047-0.051c0.101-0.112,0.201-0.22,0.286-0.307    c0.605-0.756,1.249-1.481,1.918-2.188c0.062-0.065,0.121-0.134,0.185-0.199c0.643-0.668,1.317-1.309,2.016-1.93    c0.056-0.05,0.105-0.105,0.161-0.155c-0.153-0.048-0.308-0.094-0.462-0.14c-0.433-0.128-0.866-0.247-1.303-0.354    c-0.266-0.065-0.532-0.129-0.8-0.187c-0.435-0.095-0.87-0.178-1.307-0.253c-0.264-0.045-0.526-0.093-0.79-0.131    c-0.472-0.068-0.944-0.119-1.417-0.164c-0.228-0.022-0.453-0.052-0.681-0.068c-0.699-0.051-1.399-0.081-2.1-0.081    c-16.455,0-29.843,13.395-29.843,29.858C315.525,355.063,328.913,368.484,345.368,368.484z"
         id="path2" /><path
         d="M352.157,325.813c-0.107,0.214-0.212,0.428-0.312,0.643c-0.004,0.01-0.009,0.02-0.014,0.029l-0.002,0.006l-0.21,0.549    c-0.023,0.067-0.048,0.135-0.074,0.201c-0.147,0.369-0.297,0.744-0.441,1.118c-0.049,0.127-0.094,0.252-0.142,0.379    c-0.084,0.225-0.164,0.447-0.242,0.669c-0.021,0.1-0.043,0.198-0.071,0.296l-0.048,0.162c-0.02,0.065-0.036,0.128-0.056,0.192    c-0.104,0.356-0.205,0.707-0.302,1.054c-0.036,0.13-0.067,0.26-0.102,0.39c-0.074,0.276-0.144,0.554-0.209,0.831    c-0.015,0.095-0.03,0.189-0.052,0.282c-0.01,0.062-0.02,0.125-0.03,0.188c-0.063,0.392-0.128,0.8-0.189,1.222    c-0.006,0.044-0.012,0.089-0.019,0.133c-0.065,0.462-0.127,0.932-0.177,1.394c0,0.001,0,0.001,0,0.001    c-0.023,0.229-0.035,0.456-0.054,0.684c-0.022,0.274-0.051,0.548-0.065,0.822c-0.007,0.134-0.006,0.266-0.011,0.399    c-0.015,0.37-0.029,0.741-0.029,1.108c0,0.48,0.015,0.97,0.038,1.454c0.008,0.171,0.023,0.338,0.034,0.507    c0.023,0.361,0.047,0.724,0.083,1.071c0.002,0.019,0.004,0.037,0.006,0.055c0.095,0.89,0.233,1.774,0.381,2.711l0.001,0.01    l0.008,0.046c0.042,0.16,0.074,0.324,0.095,0.492c0.042,0.187,0.09,0.374,0.135,0.562c0.175,0.718,0.367,1.438,0.593,2.155    l0.039,0.117c0.142,0.425,0.28,0.822,0.425,1.208c0.036,0.099,0.073,0.198,0.112,0.294c0.084,0.171,0.153,0.35,0.214,0.533    c0.109,0.263,0.262,0.575,0.42,0.892c0.056,0.113,0.107,0.229,0.152,0.347c0.249,0.644,0.521,1.22,0.809,1.712    c0.026,0.045,0.052,0.091,0.076,0.138c0.823,1.549,1.908,3.146,3.223,4.745c0.021,0.025,0.043,0.052,0.063,0.079    c0.229,0.293,0.483,0.594,0.762,0.905c0.093,0.104,0.202,0.216,0.302,0.322c0.228,0.246,0.454,0.491,0.717,0.754l0.193,0.19    c0.061,0.061,0.131,0.12,0.193,0.181c0.24,0.233,0.491,0.468,0.756,0.702c0.162,0.143,0.322,0.279,0.484,0.418    c0.138,0.117,0.274,0.236,0.408,0.35c0.123,0.091,0.24,0.188,0.352,0.293c0.278,0.231,0.555,0.457,0.825,0.667    c0.093,0.071,0.182,0.134,0.272,0.203c0.235,0.178,0.47,0.352,0.695,0.511c0.026,0.017,0.053,0.035,0.078,0.053    c0.677,0.445,1.361,0.87,2.048,1.292c0.331,0.19,0.671,0.362,1.009,0.54c0.229,0.12,0.454,0.251,0.687,0.365    c0.343,0.168,0.694,0.316,1.043,0.472c0.242,0.107,0.48,0.226,0.725,0.326c0.354,0.146,0.714,0.271,1.072,0.401    c0.248,0.092,0.492,0.193,0.743,0.278c0.363,0.123,0.733,0.225,1.102,0.333c0.252,0.074,0.501,0.159,0.756,0.228    c0.373,0.099,0.751,0.177,1.128,0.262c0.255,0.058,0.507,0.126,0.764,0.177c0.405,0.08,0.814,0.138,1.224,0.201    c0.232,0.036,0.463,0.084,0.696,0.114c0.429,0.057,0.86,0.09,1.292,0.127c0.217,0.02,0.433,0.05,0.65,0.063    c0.65,0.043,1.303,0.064,1.957,0.064c16.422,0,29.781-13.422,29.781-29.92c0-16.464-13.359-29.858-29.781-29.858    c-5.195,0-10.338,1.373-14.875,3.968c-3.247,1.894-6.003,4.257-8.192,7.024c-0.092,0.116-0.19,0.227-0.294,0.332l-0.125,0.127    c-0.006,0.007-0.011,0.014-0.016,0.021c-1.021,1.342-1.94,2.752-2.738,4.19C352.648,324.85,352.399,325.327,352.157,325.813z"
         id="path3" /><path
         d="M472.314,100.395H40.621c-10.853,0-19.682,8.859-19.682,19.749v55.778h471.06v-55.778    C491.999,109.254,483.169,100.395,472.314,100.395z"
         id="path4" /></g></g><path
     style="fill:#2c9448;fill-rule:evenodd;stroke:#000000;stroke-width:0;paint-order:fill markers stroke"
     d="m 21.084968,147.86427 c 0.0039,-15.28144 0.590162,-29.88352 1.302763,-32.44908 0.756513,-2.72365 3.412852,-6.57742 6.383781,-9.26147 l 5.088144,-4.59683 221.952404,0.005 c 219.22021,0.005 222.00366,0.036 226.11578,2.54322 2.28986,1.39614 5.30567,4.41195 6.70181,6.70181 2.34443,3.84517 2.53881,6.48214 2.54322,34.50269 l 0.005,30.33932 H 256.12774 21.077844 Z"
     id="path6" /><path
     style="fill:#2c9448;fill-rule:evenodd;stroke:#000000;stroke-width:0;paint-order:fill markers stroke"
     d="m 21.077844,218.44311 v -33.85229 h 235.049896 235.0499 v 33.85229 33.8523 H 256.12774 21.077844 Z"
     id="path7" /><path
     style="fill:#2c9448;fill-rule:evenodd;stroke:#000000;stroke-width:0;paint-order:fill markers stroke"
     d="m 33.213573,410.18442 c -4.802739,-2.11999 -7.658487,-5.295 -10.170842,-11.30791 -1.682791,-4.02749 -1.964887,-14.24537 -1.964887,-71.17081 v -66.46818 h 235.049896 235.0499 v 67.85003 c 0,66.742 -0.0442,67.92863 -2.70548,72.66378 -1.48801,2.64757 -4.87167,6.03122 -7.51924,7.51923 l -4.81376,2.70549 -219.54662,-0.05 C 77.256185,411.88521 36.344011,411.56622 33.213573,410.18442 Z M 358.65862,374.75071 c 1.67163,-0.89463 4.87946,-0.64419 10.81464,0.84429 10.10494,2.53423 17.38137,1.79467 26.80866,-2.72475 18.47621,-8.85746 26.21879,-31.83927 17.17036,-50.9657 -3.60522,-7.62063 -9.77222,-14.23552 -16.52922,-17.72971 -6.34928,-3.28334 -17.55072,-4.68007 -24.89469,-3.10417 -8.36547,1.7951 -11.3828,1.79431 -19.77288,-0.005 -21.92976,-4.70354 -43.11345,11.46769 -44.71777,34.13669 -0.73133,10.33366 1.00634,17.1626 6.41178,25.19793 7.86535,11.69207 20.55152,17.65811 34.73045,16.333 4.18115,-0.39075 8.67155,-1.28281 9.97867,-1.98236 z m -248.25406,-13.696 c 0.88826,-1.65972 0.7999,-3.02528 -0.29239,-4.51907 -2.27007,-3.10451 -27.403659,-2.4873 -29.423236,0.72255 -0.970313,1.54218 -0.876672,2.68574 0.339962,4.1517 1.334004,1.60737 4.39478,2.02324 14.890958,2.02324 11.577656,0 13.369256,-0.29418 14.484706,-2.37842 z m 141.97972,0.35518 c 1.21853,-1.46824 1.31085,-2.60711 0.33654,-4.1517 -1.22212,-1.93746 -6.7733,-2.12845 -61.8645,-2.12845 -57.36902,0 -60.54511,0.12035 -60.96682,2.31015 -1.18935,6.17579 -3.04409,5.99324 60.89203,5.99324 53.11652,0 60.11435,-0.22983 61.60275,-2.02324 z m -73.52251,-56.80053 c 1.97224,-6.21395 1.10134,-6.32593 -49.20109,-6.32593 -50.302429,0 -51.173326,0.11198 -49.201095,6.32593 0.817574,2.57594 1.574472,2.61619 49.201095,2.61619 47.62661,0 48.38351,-0.0403 49.20109,-2.61619 z m 74.31575,0.52639 c 0.44107,-1.14939 0.21666,-3.01766 -0.49867,-4.1517 -1.12205,-1.77881 -4.61136,-2.06189 -25.41535,-2.06189 -22.24751,0 -24.14919,0.17887 -24.55963,2.31014 -1.12201,5.82611 -0.41588,5.99325 25.32008,5.99325 21.36672,0 24.44994,-0.25616 25.15357,-2.0898 z"
     id="path8" /><path
     style="fill:#000000;fill-rule:evenodd;stroke:#000000;stroke-width:0;paint-order:fill markers stroke;stroke-opacity:0.98816568"
     d="m 365.86958,364.29391 c -20.78571,-10.97073 -20.69563,-40.77257 0.15519,-51.33848 28.01598,-14.19677 55.72719,21.08268 34.77576,44.2734 -6.47956,7.17211 -12.69752,10.03664 -21.78624,10.03664 -5.4007,0 -9.09844,-0.83593 -13.14471,-2.97156 z"
     id="path9" /><path
     style="fill:#000000;fill-rule:evenodd;stroke:#000000;stroke-width:0;paint-order:fill markers stroke"
     d="m 333.34188,364.85605 c -9.42178,-4.27951 -17.17422,-16.16625 -17.17422,-26.3331 0,-10.16684 7.75244,-22.05358 17.17422,-26.33309 3.13285,-1.42298 8.17937,-2.3644 12.76538,-2.38137 l 7.58431,-0.0281 -3.29207,3.51297 c -6.3931,6.82209 -9.16434,14.19235 -9.24621,24.59082 -0.0788,10.00122 1.54376,15.77048 6.2871,22.35529 5.14123,7.13719 5.17451,7.02813 -2.13546,6.99789 -3.80389,-0.0157 -9.05708,-1.06143 -11.96305,-2.38136 z"
     id="path10" /></svg>
