<?xml version="1.0" encoding="UTF-8" standalone="no"?>
<svg
   version="1.1"
   x="0px"
   y="0px"
   viewBox="0 0 4096 6400"
   enable-background="new 0 0 64 64"
   xml:space="preserve"
   id="svg12"
   sodipodi:docname="noun-pocket-money-5338132.svg"
   width="30000"
   height="40000"
   xmlns:inkscape="http://www.inkscape.org/namespaces/inkscape"
   xmlns:sodipodi="http://sodipodi.sourceforge.net/DTD/sodipodi-0.dtd"
   xmlns="http://www.w3.org/2000/svg"
   xmlns:svg="http://www.w3.org/2000/svg"><defs
     id="defs12" /><sodipodi:namedview
     id="namedview12"
     pagecolor="#ffffff"
     bordercolor="#999999"
     borderopacity="1"
     inkscape:showpageshadow="0"
     inkscape:pageopacity="0"
     inkscape:pagecheckerboard="0"
     inkscape:deskcolor="#d1d1d1" /><g
     id="g11"
     transform="matrix(0.6578272,0,0,0.59049643,10.584545,16.058206)"><g
       id="g10"><path
         d="M 15.1,33 H 13 c -0.5,0 -1,0.2 -1.4,0.6 C 11.2,34 11,34.5 11,35 c 0,0.6 0.2,1.1 0.6,1.5 z"
         id="path1" /><path
         d="M 17.5,30.6 24.1,24 c -0.3,0 -0.6,0.1 -0.9,0.1 -0.9,0 -1.7,-0.2 -2.5,-0.6 z"
         id="path2" /><path
         d="M 26.7,19.7 23.2,18 21.5,21.7 c 2,0.9 4.3,0.1 5.2,-2 z"
         id="path3" /><path
         d="m 20.2,37 13,-13 c -0.1,0 -0.2,0 -0.3,0 -1.6,0 -3.1,-0.6 -4.2,-1.8 L 13.9,37 Z"
         id="path4" /><path
         d="M 35.7,20.8 32.9,18 30.1,20.8 c 1.6,1.6 4.1,1.6 5.6,0 z"
         id="path5" /><path
         d="M 37.4,22.6 23,37 h 5.8 v 0 c -0.4,-0.4 -0.4,-1 0,-1.4 l 1.4,-1.4 c 0.4,-0.4 1,-0.4 1.4,0 0.4,0.4 0.4,1 0,1.4 L 30.2,37 h 11.5 c -0.8,-0.8 -0.8,-2.1 0,-2.9 l 1.4,-1.4 c 0.8,-0.8 2.1,-0.8 2.9,0 0.8,0.8 0.8,2.1 0,2.9 L 44.6,37 c -0.1,0.1 -0.1,0.1 -0.2,0.2 1.1,0.2 2,0.8 2.8,1.6 l 3.2,-3.2 c 0.8,-0.8 0.8,-2.1 0,-2.9 L 40.3,22.6 c -0.8,-0.8 -2.1,-0.8 -2.9,0 z m -1.4,8.6 -1.4,1.4 c -0.2,0.2 -0.5,0.3 -0.7,0.3 -0.3,0 -0.5,-0.1 -0.7,-0.3 -0.4,-0.4 -0.4,-1 0,-1.4 l 1.4,-1.4 c 0.4,-0.4 1,-0.4 1.4,0 0.4,0.4 0.4,1 0,1.4 z m 4.3,-4.3 -1.4,1.4 c -0.2,0.2 -0.5,0.3 -0.7,0.3 -0.3,0 -0.5,-0.1 -0.7,-0.3 -0.4,-0.4 -0.4,-1 0,-1.4 l 1.4,-1.4 c 0.4,-0.4 1,-0.4 1.4,0 0.4,0.4 0.4,1 0,1.4 z"
         id="path6" /><path
         d="m 42,19 c 3.9,0 7,-3.1 7,-7 0,-3.9 -3.1,-7 -7,-7 -3.9,0 -7,3.1 -7,7 0,3.9 3.1,7 7,7 z m 0.5,-6 h -1 C 40.1,13 39,11.9 39,10.5 39,9.3 39.9,8.3 41,8.1 V 8 c 0,-0.6 0.4,-1 1,-1 0.6,0 1,0.4 1,1 h 1 c 0.6,0 1,0.4 1,1 0,0.6 -0.4,1 -1,1 h -2.5 c -0.3,0 -0.5,0.2 -0.5,0.5 0,0.3 0.2,0.5 0.5,0.5 h 1 c 1.4,0 2.5,1.1 2.5,2.5 0,1.2 -0.9,2.2 -2,2.4 V 16 c 0,0.6 -0.4,1 -1,1 -0.6,0 -1,-0.4 -1,-1 h -1 c -0.6,0 -1,-0.4 -1,-1 0,-0.6 0.4,-1 1,-1 h 2.5 C 42.8,14 43,13.8 43,13.5 43,13.2 42.8,13 42.5,13 Z"
         id="path7" /><path
         d="m 22,15 c 3.9,0 7,-3.1 7,-7 0,-3.9 -3.1,-7 -7,-7 -3.9,0 -7,3.1 -7,7 0,3.9 3.1,7 7,7 z m 0.5,-6 h -1 C 20.1,9 19,7.9 19,6.5 19,5.3 19.9,4.3 21,4.1 V 4 c 0,-0.6 0.4,-1 1,-1 0.6,0 1,0.4 1,1 h 1 c 0.6,0 1,0.4 1,1 0,0.6 -0.4,1 -1,1 H 21.5 C 21.2,6 21,6.2 21,6.5 21,6.8 21.2,7 21.5,7 h 1 c 1.4,0 2.5,1.1 2.5,2.5 0,1.2 -0.9,2.2 -2,2.4 V 12 c 0,0.6 -0.4,1 -1,1 -0.6,0 -1,-0.4 -1,-1 h -1 c -0.6,0 -1,-0.4 -1,-1 0,-0.6 0.4,-1 1,-1 h 2.5 C 22.8,10 23,9.8 23,9.5 23,9.2 22.8,9 22.5,9 Z"
         id="path8" /><path
         d="m 37,51 c 0,-3.9 3.1,-7 7,-7 h 3 v -1 c 0,-0.4 0,-0.7 -0.1,-1 -0.4,-1.7 -2,-3 -3.9,-3 H 12 C 10.3,39 9,37.7 9,36 v 23 c 0,2.2 1.8,4 4,4 h 30 c 2.2,0 4,-1.8 4,-4 v -1 h -3 c -3.9,0 -7,-3.1 -7,-7 z"
         id="path9" /><path
         d="m 49,46 h -5 c -2.8,0 -5,2.2 -5,5 0,2.8 2.2,5 5,5 h 5 c 1.1,0 2,-0.9 2,-2 V 44 c 0,0.5 -0.2,1 -0.6,1.4 C 50,45.8 49.5,46 49,46 Z"
         id="path10" /></g></g><path
     d="m 47.792465,55.79954 c -1.338291,0 -2.605204,-0.41854 -3.567776,-1.177997 -0.137214,-0.108473 -0.266341,-0.222398 -0.387154,-0.341203 v 1.457216 c 0,1.54058 1.81103,2.841829 3.95493,2.841829 2.143901,0 3.955162,-1.301249 3.955162,-2.841829 V 54.28034 c -0.120583,0.118805 -0.249711,0.23273 -0.387154,0.341203 -0.962572,0.759457 -2.229601,1.177997 -3.568008,1.177997 z"
     id="path1-4"
     style="stroke-width:0.310305" /><path
     d="m 47.792465,60.303479 c -1.338291,0 -2.605204,-0.418684 -3.567776,-1.178428 -0.137214,-0.108617 -0.266341,-0.222255 -0.387154,-0.340774 v 1.457074 c 0,1.540579 1.81103,2.841683 3.95493,2.841683 2.143901,0 3.955162,-1.301104 3.955162,-2.841683 v -1.457074 c -0.120583,0.118519 -0.249711,0.232157 -0.387154,0.340774 -0.962572,0.759744 -2.229601,1.178428 -3.568008,1.178428 z"
     id="path2-0"
     style="stroke-width:0.310305" /><path
     d="m 47.792465,48.575161 c -2.1439,0 -3.95493,1.301681 -3.95493,2.841973 0,1.540293 1.81103,2.842258 3.95493,2.842258 2.143901,0 3.955162,-1.301967 3.955162,-2.842258 0,-1.540291 -1.811261,-2.841973 -3.955162,-2.841973 z"
     id="path3-9"
     style="stroke-width:0.310305" /><path
     d="m 49.362954,39.524449 c -1.338637,0 -2.605203,-0.418684 -3.567544,-1.178571 -0.137444,-0.108187 -0.266341,-0.222112 -0.387154,-0.340343 v 1.45693 c 0,1.540722 1.811029,2.841541 3.954698,2.841541 2.1439,0 3.955624,-1.300819 3.955624,-2.841541 v -1.45693 c -0.121044,0.118231 -0.249941,0.232156 -0.387616,0.340343 -0.962572,0.759887 -2.2296,1.178571 -3.568008,1.178571 z"
     id="path4-2"
     style="stroke-width:0.310305" /><path
     d="m 49.362954,44.027812 c -1.338637,0 -2.605203,-0.418396 -3.567544,-1.17814 -0.137444,-0.108042 -0.266341,-0.222256 -0.387154,-0.340773 v 1.457072 c 0,1.540578 1.811029,2.842258 3.954698,2.842258 2.1439,0 3.955624,-1.30168 3.955624,-2.842258 v -1.457072 c -0.121044,0.118517 -0.249941,0.232731 -0.387616,0.340773 -0.962572,0.759744 -2.2296,1.17814 -3.568008,1.17814 z"
     id="path5-5"
     style="stroke-width:0.310305" /><path
     d="m 49.362954,35.177196 c -1.338637,0 -2.605203,-0.418255 -3.567544,-1.178285 -0.137444,-0.108187 -0.266341,-0.222256 -0.387154,-0.340915 v 1.457214 c 0,1.540292 1.811029,2.842115 3.954698,2.842115 2.1439,0 3.955624,-1.301823 3.955624,-2.842115 v -1.457214 c -0.121044,0.118659 -0.249941,0.232728 -0.387616,0.340915 -0.962572,0.76003 -2.2296,1.178285 -3.568008,1.178285 z"
     id="path6-8"
     style="stroke-width:0.310305" /><path
     d="m 49.362954,33.657996 c 2.1439,0 3.955624,-1.30125 3.955624,-2.84183 0,-1.540866 -1.811724,-2.842115 -3.955624,-2.842115 -2.143669,0 -3.954698,1.301249 -3.954698,2.842115 0,1.54058 1.811029,2.84183 3.954698,2.84183 z"
     id="path7-0"
     style="stroke-width:0.310305" /><path
     d="m 26.496542,63.45531 c -1.338407,0 -2.605436,-0.418541 -3.568008,-1.178284 -0.137444,-0.10833 -0.266111,-0.222399 -0.387616,-0.340917 v 1.457215 c 0,1.540293 1.811494,2.842116 3.955624,2.842116 2.143669,0 3.954468,-1.301823 3.954468,-2.842116 v -1.457215 c -0.120582,0.118518 -0.24971,0.232587 -0.386692,0.340917 -0.962341,0.759743 -2.229369,1.178284 -3.567776,1.178284 z"
     id="path8-3"
     style="stroke-width:0.310305" /><path
     d="m 26.496542,56.144267 c -2.14413,0 -3.955624,1.301393 -3.955624,2.841828 0,1.540435 1.811494,2.842115 3.955624,2.842115 2.143669,0 3.954468,-1.30168 3.954468,-2.842115 0,-1.540437 -1.810799,-2.841828 -3.954468,-2.841828 z"
     id="path9-5"
     style="stroke-width:0.310305" /><path
     style="fill:#2c9448;fill-opacity:1;fill-rule:evenodd;stroke:#000000;stroke-width:0;paint-order:fill markers stroke"
     d="m 25.148667,61.567371 c -1.233601,-0.375245 -2.306056,-1.374392 -2.482021,-2.312363 -0.195149,-1.040235 0.825846,-2.270733 2.307282,-2.780725 0.298534,-0.102772 1.017097,-0.186156 1.596806,-0.185298 2.175913,0.0032 4.089671,1.570489 3.758553,3.078059 -0.163309,0.743539 -1.103724,1.656484 -2.084215,2.023332 -0.887198,0.331943 -2.318125,0.413737 -3.096405,0.176995 z"
     id="path12" /><path
     style="fill:#2c9448;fill-opacity:1;fill-rule:evenodd;stroke:#000000;stroke-width:0;paint-order:fill markers stroke"
     d="M 25.013668,65.891801 C 23.363646,65.303225 22.728273,64.57137 22.624746,63.14012 l -0.07059,-0.975949 0.643554,0.425884 c 1.812449,1.199422 4.806093,1.191695 6.578367,-0.01698 l 0.563248,-0.38413 0.05119,0.589516 c 0.06219,0.716293 -0.330295,1.803547 -0.815677,2.259539 -1.040538,0.977535 -3.121998,1.367161 -4.561163,0.8538 z"
     id="path13" /><path
     style="fill:#2c9448;fill-opacity:1;fill-rule:evenodd;stroke:#000000;stroke-width:0;paint-order:fill markers stroke"
     d="m 46.539012,54.003562 c -2.995592,-0.846954 -3.467657,-3.558175 -0.84311,-4.842246 1.999857,-0.978439 4.643378,-0.381732 5.654422,1.276341 0.553932,0.908429 0.311406,1.901074 -0.665263,2.722887 -1.047598,0.881495 -2.770742,1.231863 -4.146049,0.843018 z"
     id="path14" /><path
     style="fill:#2c9448;fill-opacity:1;fill-rule:evenodd;stroke:#000000;stroke-width:0;paint-order:fill markers stroke"
     d="m 46.43899,58.293095 c -1.657386,-0.518234 -2.446974,-1.420544 -2.446974,-2.796307 0,-0.458031 0.05389,-0.808419 0.11976,-0.778641 0.06587,0.02978 0.514971,0.264495 0.998004,0.521593 0.738966,0.393318 1.109863,0.47838 2.338759,0.53637 1.611246,0.07603 2.624613,-0.160932 3.64266,-0.851797 l 0.565488,-0.38375 -5.97e-4,0.833511 c -3.91e-4,0.546386 -0.108584,1.010617 -0.314078,1.347644 -0.873495,1.432601 -3.082581,2.140595 -4.903022,1.571377 z"
     id="path15" /><path
     style="fill:#2c9448;fill-opacity:1;fill-rule:evenodd;stroke:#000000;stroke-width:0;paint-order:fill markers stroke"
     d="M 46.364444,62.772191 C 44.706758,62.17997 43.992016,61.353189 43.992016,60.027874 v -0.843062 l 0.918164,0.469121 c 1.273986,0.650923 2.530965,0.856898 3.8391,0.629096 1.035399,-0.180307 2.098017,-0.618972 2.627966,-1.084865 0.261807,-0.230163 0.279441,-0.193223 0.279441,0.585416 0,0.457095 -0.104114,1.032416 -0.231364,1.27849 -0.777361,1.503249 -3.276313,2.34767 -5.060879,1.710121 z"
     id="path16" /><path
     style="fill:#2c9448;fill-opacity:1;fill-rule:evenodd;stroke:#000000;stroke-width:0;paint-order:fill markers stroke"
     d="m 47.819462,46.461326 c -1.505181,-0.463997 -2.387132,-1.621624 -2.38943,-3.136303 l -8.9e-4,-0.587153 0.887366,0.534344 c 1.990632,1.198696 5.073249,1.031324 6.657544,-0.361475 0.261821,-0.230175 0.279441,-0.1931 0.279441,0.587984 0,0.458507 -0.08048,0.990602 -0.178841,1.182433 -0.837552,1.633429 -3.169121,2.423236 -5.25519,1.78017 z"
     id="path17" /><path
     style="fill:#2c9448;fill-opacity:1;fill-rule:evenodd;stroke:#000000;stroke-width:0;paint-order:fill markers stroke"
     d="m 48.223553,42.085699 c -1.665392,-0.407238 -2.618196,-1.409687 -2.753011,-2.896457 l -0.08902,-0.981777 0.647037,0.428189 c 0.921192,0.609616 1.979317,0.885304 3.397906,0.885304 1.335326,0 2.276543,-0.25853 3.228231,-0.886719 l 0.598802,-0.395257 v 0.725957 c 0,0.985754 -0.320513,1.679219 -1.058007,2.289115 -1.003744,0.830081 -2.606207,1.165605 -3.971933,0.831645 z"
     id="path18" /><path
     style="fill:#2c9448;fill-opacity:1;fill-rule:evenodd;stroke:#000000;stroke-width:0;paint-order:fill markers stroke"
     d="m 48.112289,37.709477 c -1.686055,-0.473639 -2.671846,-1.608199 -2.67964,-3.084037 l -0.0035,-0.663981 1.116371,0.572773 c 0.956968,0.490988 1.309753,0.582922 2.470718,0.643857 1.504599,0.07897 2.515419,-0.163008 3.63605,-0.870431 l 0.641737,-0.405111 -0.06924,0.957266 c -0.05338,0.738 -0.172982,1.093276 -0.522144,1.551051 -0.86215,1.130337 -3.018138,1.740268 -4.590342,1.298613 z"
     id="path19" /><path
     style="fill:#2c9448;fill-opacity:1;fill-rule:evenodd;stroke:#000000;stroke-width:0;paint-order:fill markers stroke"
     d="m 48.112289,33.398606 c -1.164236,-0.327838 -2.025252,-0.979337 -2.393003,-1.810698 -0.308146,-0.696617 -0.309975,-0.751387 -0.048,-1.437363 0.331159,-0.867126 1.204864,-1.548662 2.448987,-1.910338 2.517821,-0.731951 5.48261,1.023078 5.050652,2.989772 -0.352873,1.606619 -3.009687,2.74559 -5.058636,2.168627 z"
     id="path20" /><path
     style="fill:#2c9448;fill-opacity:1;fill-rule:evenodd;stroke:#000000;stroke-width:0;paint-order:fill markers stroke"
     d="m 18.601761,53.107124 c -0.920581,-0.286531 -1.414436,-0.666149 -1.7391,-1.336816 -0.324393,-0.670105 -0.335715,-0.91379 -0.335715,-7.225515 0,-6.084443 0.01784,-6.506547 0.26039,-6.160262 0.574672,0.82046 0.521798,0.816869 12.069811,0.819693 l 10.743651,0.0026 0.6221,0.356655 c 0.676676,0.387943 1.214228,1.224535 1.214228,1.889701 0,0.420002 -9.7e-4,0.420311 -1.556886,0.49573 -1.811844,0.08782 -2.8072,0.449997 -3.771531,1.372317 -1.305926,1.249036 -1.608342,3.081646 -0.772543,4.681546 0.843484,1.614614 2.373479,2.376443 4.772656,2.376443 1.314897,0 1.328304,0.0041 1.328304,0.40433 0,0.73327 -0.4351,1.478223 -1.1333,1.940375 l -0.679398,0.449706 -10.311216,0.02902 c -5.671169,0.01596 -10.491322,-0.02703 -10.711451,-0.09555 z"
     id="path21" /><path
     style="fill:#2c9448;fill-opacity:1;fill-rule:evenodd;stroke:#000000;stroke-width:0;paint-order:fill markers stroke"
     d="m 38.802395,48.95855 c -2.183018,-0.559095 -3.093793,-2.57694 -1.945989,-4.311389 0.698534,-1.055556 1.435339,-1.293868 4.000342,-1.293868 1.653465,0 2.308956,-0.05994 2.664156,-0.243621 l 0.471112,-0.243622 v 2.773763 c 0,3.540607 0.134305,3.370321 -2.6909,3.411784 -1.110823,0.0163 -2.235248,-0.02557 -2.498721,-0.09305 z"
     id="path22" /><path
     style="fill:#2c9448;fill-opacity:1;fill-rule:evenodd;stroke:#000000;stroke-width:0;paint-order:fill markers stroke"
     d="m 41.037924,38.403194 c -0.263473,-0.174492 -0.619751,-0.317731 -0.79173,-0.31831 -0.254974,-8.57e-4 -0.18866,-0.127426 0.359282,-0.685739 0.926319,-0.94385 0.924241,-1.808654 -0.0055,-2.289442 -0.696762,-0.36031 -1.358718,-0.166867 -2.253641,0.658579 -0.717654,0.66194 -0.770872,0.762939 -0.714343,1.355706 l 0.06108,0.640483 h -3.411628 -3.411628 l 0.413397,-0.491293 c 0.227368,-0.270212 0.413396,-0.552504 0.413396,-0.627317 0,-0.246746 -0.496273,-0.637877 -0.809349,-0.637877 -0.411916,0 -1.585861,1.077597 -1.585861,1.455707 0,0.274928 -0.139992,0.30078 -1.628742,0.30078 -1.013992,0 -1.571487,-0.05646 -1.477046,-0.149577 1.509906,-1.488809 9.357921,-8.346116 9.635199,-8.418883 0.209938,-0.05509 0.546147,-0.03596 0.747132,0.04253 0.200984,0.07849 1.951372,1.571218 3.889751,3.317186 4.196248,3.779713 4.095254,3.567759 2.446481,5.1343 -0.592815,0.563249 -1.149701,1.025514 -1.237525,1.027257 -0.08783,0.0017 -0.37525,-0.139596 -0.638723,-0.314087 z m -7.134531,-3.445577 c 0.679228,-0.581394 0.819723,-0.969032 0.475849,-1.312906 -0.36222,-0.36222 -0.974675,-0.209045 -1.598058,0.399672 -0.628493,0.613707 -0.741175,0.965686 -0.413919,1.292942 0.335336,0.335336 0.849136,0.208332 1.536128,-0.379708 z m 2.737946,-2.477494 c 0.668443,-0.537175 0.843308,-0.912247 0.615275,-1.319719 -0.232346,-0.415179 -0.896907,-0.306899 -1.575852,0.256762 -0.592176,0.491624 -0.828787,1.146053 -0.524408,1.450432 0.246735,0.246735 0.911706,0.07323 1.484985,-0.387475 z"
     id="path23" /><path
     style="fill:#2c9448;fill-opacity:1;fill-rule:evenodd;stroke:#000000;stroke-width:0;paint-order:fill markers stroke"
     d="m 20.199601,37.698228 c 0,-0.03643 2.081701,-1.939906 4.626003,-4.229938 l 4.626003,-4.163695 0.579678,0.39338 c 0.499681,0.339092 0.846569,0.448471 1.941117,0.612059 0.107776,0.01611 -1.667792,1.699946 -3.945705,3.741862 l -4.141661,3.712575 h -1.842718 c -1.013494,0 -1.842717,-0.02981 -1.842717,-0.06624 z"
     id="path24" /><path
     style="fill:#2c9448;fill-opacity:1;fill-rule:evenodd;stroke:#000000;stroke-width:0;paint-order:fill markers stroke"
     d="m 22.59481,33.395101 c 0,-0.05912 0.359058,-0.822996 0.797906,-1.697503 l 0.797906,-1.590013 0.519459,0.102189 c 1.378758,0.271231 1.382766,0.187177 -0.07107,1.490643 -1.828032,1.638964 -2.044205,1.818175 -2.044205,1.694684 z"
     id="path26" /><path
     style="fill:#2c9448;fill-opacity:1;fill-rule:evenodd;stroke:#000000;stroke-width:0;paint-order:fill markers stroke"
     d="m 25.035112,28.878006 c -0.13525,-0.05483 -0.04166,-0.354754 0.307493,-0.985397 0.276057,-0.49862 0.524387,-0.935682 0.551845,-0.971249 0.02746,-0.03557 0.521351,0.135692 1.097542,0.380576 l 1.047619,0.445244 -0.367111,0.393079 c -0.201911,0.216193 -0.561147,0.494036 -0.798303,0.617428 -0.415694,0.216286 -1.43745,0.283132 -1.839085,0.120319 z"
     id="path27" /><path
     style="fill:#2c9448;fill-opacity:1;fill-rule:evenodd;stroke:#000000;stroke-width:0;paint-order:fill markers stroke"
     d="m 31.170924,28.714528 c -0.333037,-0.138078 -0.584534,-0.298794 -0.558882,-0.357145 0.07491,-0.170392 1.509066,-1.451195 1.624952,-1.451195 0.169648,0 1.535461,1.30368 1.535461,1.46561 0,0.212351 -1.029336,0.611686 -1.551757,0.60201 -0.244338,-0.0045 -0.716736,-0.121202 -1.049774,-0.25928 z"
     id="path28" /><path
     style="fill:#2c9448;fill-opacity:1;fill-rule:evenodd;stroke:#000000;stroke-width:0;paint-order:fill markers stroke"
     d="m 18.065808,37.333938 c -0.217907,-0.217906 -0.08586,-1.022474 0.217625,-1.325954 0.228689,-0.228688 0.532269,-0.319361 1.069248,-0.319361 h 0.749887 l -0.550286,0.57277 c -0.702697,0.731409 -1.356133,1.202887 -1.486474,1.072545 z"
     id="path29" /><path
     style="fill:#2c9448;fill-opacity:1;fill-rule:evenodd;stroke:#000000;stroke-width:0;paint-order:fill markers stroke"
     d="m 23.580569,24.593367 c -1.91958,-0.599051 -3.241915,-2.436893 -3.003721,-4.174711 0.565546,-4.126104 6.652604,-5.015236 8.605369,-1.256979 0.462003,0.889163 0.461752,2.333172 -5.59e-4,3.214086 -1.013779,1.931713 -3.439593,2.892151 -5.601089,2.217604 z m 1.798257,-0.87684 c 0.225279,-0.08565 0.409597,-0.265291 0.409597,-0.399201 0,-0.133911 0.111051,-0.243474 0.246779,-0.243474 0.485643,0 1.030666,-0.74461 1.030666,-1.408093 0,-0.896952 -0.56112,-1.413532 -1.688399,-1.554376 -1.165088,-0.145568 -1.101023,-0.390824 0.10209,-0.390824 1.159063,0 1.586309,-0.193533 1.586309,-0.718563 0,-0.415899 -0.40124,-0.718563 -0.952597,-0.718563 -0.184179,0 -0.376232,-0.107784 -0.426784,-0.239521 -0.05738,-0.149535 -0.301077,-0.239521 -0.64866,-0.239521 -0.422455,0 -0.576892,0.07703 -0.640262,0.319361 -0.04593,0.175649 -0.172426,0.319362 -0.281095,0.319362 -0.108669,0 -0.387714,0.176209 -0.620099,0.391577 -0.454732,0.421431 -0.572336,1.265649 -0.258104,1.852797 0.239499,0.447508 1.000717,0.789558 1.75713,0.789558 0.456599,0 0.639688,0.0615 0.594173,0.199601 -0.04138,0.125547 -0.505451,0.229222 -1.250832,0.279441 -1.166641,0.0786 -1.185864,0.08701 -1.237752,0.541556 -0.05756,0.50422 0.167181,0.729604 0.731349,0.733444 0.197605,0.0013 0.502994,0.146158 0.678643,0.321806 0.371274,0.371274 0.338142,0.365027 0.867848,0.163633 z"
     id="path33" /><path
     style="fill:#2c9448;fill-opacity:1;fill-rule:evenodd;stroke:#000000;stroke-width:0;paint-order:fill markers stroke"
     d="m 36.934644,27.011559 c -1.368218,-0.385604 -2.556102,-1.406653 -3.002874,-2.581129 -0.253743,-0.667042 -0.227123,-2.00295 0.05328,-2.67406 0.824415,-1.973103 3.372705,-3.093952 5.577188,-2.453091 2.451849,0.712771 3.796011,3.216014 2.847911,5.303686 -0.872473,1.921148 -3.342316,3.005791 -5.475509,2.404594 z m 1.893206,-1.192093 c 0.04147,-0.158576 0.284027,-0.367068 0.539018,-0.463316 0.62366,-0.235406 1.048166,-1.115942 0.840422,-1.743257 -0.217646,-0.657218 -1.060741,-1.177763 -1.907551,-1.177763 -0.382222,0 -0.694949,-0.07186 -0.694949,-0.159681 0,-0.0895 0.440586,-0.159681 1.002395,-0.159681 1.437735,0 2.105432,-0.542016 1.461249,-1.186198 -0.138009,-0.13801 -0.461362,-0.250927 -0.718562,-0.250927 -0.2572,0 -0.467636,-0.07417 -0.467636,-0.164827 0,-0.218526 -0.633858,-0.44527 -0.986761,-0.352983 -0.154059,0.04029 -0.323258,0.209204 -0.375997,0.37537 -0.05274,0.166166 -0.192444,0.30212 -0.310455,0.30212 -0.345616,0 -1.041358,0.944607 -1.041358,1.413848 0,0.871296 0.957067,1.620084 2.070719,1.620084 0.266294,0 0.484171,0.07186 0.484171,0.159681 0,0.0889 -0.429314,0.159681 -0.968582,0.159681 -1.159062,0 -1.586308,0.193533 -1.586308,0.718563 0,0.409077 0.399704,0.718563 0.928034,0.718563 0.170669,0 0.39976,0.107784 0.509091,0.23952 0.286858,0.345643 1.128695,0.312055 1.22306,-0.0488 z"
     id="path34" /></svg>
