<?xml version="1.0" encoding="UTF-8" standalone="no"?>
<svg
   version="1.1"
   x="0px"
   y="0px"
   viewBox="0 0 60 61.7675"
   style="enable-background:new 0 0 60 49.414;"
   xml:space="preserve"
   id="svg17"
   sodipodi:docname="noun-money-exchange-906707.svg"
   inkscape:version="1.3 (0e150ed6c4, 2023-07-21)"
   xmlns:inkscape="http://www.inkscape.org/namespaces/inkscape"
   xmlns:sodipodi="http://sodipodi.sourceforge.net/DTD/sodipodi-0.dtd"
   xmlns="http://www.w3.org/2000/svg"
   xmlns:svg="http://www.w3.org/2000/svg"><defs
     id="defs17" /><sodipodi:namedview
     id="namedview17"
     pagecolor="#ffffff"
     bordercolor="#999999"
     borderopacity="1"
     inkscape:showpageshadow="0"
     inkscape:pageopacity="0"
     inkscape:pagecheckerboard="0"
     inkscape:deskcolor="#d1d1d1"
     inkscape:zoom="8.1110614"
     inkscape:cx="30.020732"
     inkscape:cy="19.294639"
     inkscape:window-width="1366"
     inkscape:window-height="697"
     inkscape:window-x="-8"
     inkscape:window-y="-8"
     inkscape:window-maximized="1"
     inkscape:current-layer="svg17" /><g
     id="g16"><path
       d="M59,10.707H9v2h49v24H4v2h55c0.553,0,1-0.448,1-1v-26C60,11.155,59.553,10.707,59,10.707z"
       id="path1" /><path
       d="M55,34.707c0.553,0,1-0.448,1-1v-18c0-0.552-0.447-1-1-1H13c-0.553,0-1,0.448-1,1v18c0,0.552,0.447,1,1,1H55z M14,16.707   h40v16H14V16.707z"
       id="path2" /><path
       d="M34,19.707c-2.757,0-5,2.243-5,5s2.243,5,5,5s5-2.243,5-5S36.757,19.707,34,19.707z M34,27.707c-1.654,0-3-1.346-3-3   s1.346-3,3-3s3,1.346,3,3S35.654,27.707,34,27.707z"
       id="path3" /><rect
       x="42"
       y="23.707"
       width="2"
       height="2"
       id="rect3" /><rect
       x="24"
       y="23.707"
       width="2"
       height="2"
       id="rect4" /><rect
       x="2"
       y="10.707"
       width="5"
       height="2"
       id="rect5" /><rect
       y="36.707"
       width="2"
       height="2"
       id="rect6" /><rect
       y="15.707"
       width="10"
       height="2"
       id="rect7" /><rect
       y="31.707"
       width="10"
       height="2"
       id="rect8" /><rect
       y="26.707"
       width="4"
       height="2"
       id="rect9" /><rect
       x="8"
       y="20.707"
       width="2"
       height="2"
       id="rect10" /><rect
       y="20.707"
       width="6"
       height="2"
       id="rect11" /><rect
       x="6"
       y="26.707"
       width="4"
       height="2"
       id="rect12" /><path
       d="M55.293,6l1.414,1.414l3-3c0.391-0.391,0.391-1.023,0-1.414l-3-3l-1.414,1.414l1.293,1.293H15v2h41.586L55.293,6z"
       id="path12" /><rect
       x="7"
       y="2.707"
       width="2"
       height="2"
       id="rect13" /><rect
       x="11"
       y="2.707"
       width="2"
       height="2"
       id="rect14" /><path
       d="M10.707,43.414L9.293,42l-3,3c-0.391,0.391-0.391,1.023,0,1.414l3,3L10.707,48l-1.293-1.293H51v-2H9.414L10.707,43.414z"
       id="path14" /><rect
       x="57"
       y="44.707"
       width="2"
       height="2"
       id="rect15" /><rect
       x="53"
       y="44.707"
       width="2"
       height="2"
       id="rect16" /></g><path
     style="fill:#2c9448;fill-rule:evenodd;stroke:#000000;stroke-width:0;paint-order:fill markers stroke"
     d="M 4.0068739,37.726259 V 36.801595 H 31.007039 58.007205 V 24.71933 12.637064 H 33.534452 9.0616994 V 11.712401 10.787737 H 34.14081 c 13.793512,0 25.168921,0.03446 25.278688,0.07658 0.571477,0.219296 0.560322,-0.05782 0.560322,13.920013 v 13.145824 l -0.360382,0.360381 -0.360381,0.360382 H 31.632965 4.0068739 Z"
     id="path17" /><path
     style="fill:#2c9448;fill-rule:evenodd;stroke:#000000;stroke-width:0;paint-order:fill markers stroke"
     d="m 12.804049,34.62037 c -0.145488,-0.02846 -0.367407,-0.165427 -0.493153,-0.304374 -0.218425,-0.241357 -0.22863,-0.670764 -0.22863,-9.620285 V 15.32806 l 0.345918,-0.297547 0.345918,-0.297546 h 21.143212 c 22.559279,0 21.693897,-0.02212 21.917403,0.560322 0.04212,0.109766 0.07482,4.369892 0.07266,9.466946 -0.0042,9.997824 0.02553,9.556147 -0.661417,9.817322 -0.325331,0.123691 -41.81448,0.165543 -42.441915,0.04281 z M 54.061975,24.71933 V 16.705582 H 34.027606 13.993236 v 8.013748 8.013747 h 20.03437 20.034369 z"
     id="path18" /><path
     style="fill:#2c9448;fill-rule:evenodd;stroke:#000000;stroke-width:0;paint-order:fill markers stroke"
     d="m 32.736066,29.461155 c -0.889035,-0.24935 -1.540739,-0.642749 -2.239484,-1.351859 -2.385791,-2.421179 -1.645239,-6.391858 1.467083,-7.866183 0.756902,-0.358549 0.935566,-0.393246 2.002297,-0.388851 0.924199,0.0038 1.321663,0.06452 1.884411,0.287853 0.996872,0.395614 2.069583,1.417047 2.582611,2.459156 0.377586,0.766985 0.40287,0.899755 0.40287,2.115466 0,1.17057 -0.03362,1.365589 -0.344626,1.998905 -1.082283,2.203922 -3.527359,3.370351 -5.755162,2.745513 z m 2.163004,-1.841006 c 1.260702,-0.376121 2.151602,-1.577413 2.146395,-2.894204 -0.0083,-2.101691 -1.923496,-3.514065 -3.961645,-2.921559 -2.093774,0.608677 -2.821904,3.403923 -1.29998,4.990544 0.861647,0.898274 1.92564,1.180124 3.11523,0.825219 z"
     id="path19" /><path
     style="fill:#2c9448;fill-rule:evenodd;stroke:#000000;stroke-width:0;paint-order:fill markers stroke"
     d="m 24.102887,24.71933 v -0.986308 h 0.924664 0.924663 v 0.986308 0.986307 h -0.924663 -0.924664 z"
     id="path20" /><path
     style="fill:#2c9448;fill-rule:evenodd;stroke:#000000;stroke-width:0;paint-order:fill markers stroke"
     d="m 42.102998,24.71933 v -0.986308 h 0.924663 0.924663 v 0.986308 0.986307 h -0.924663 -0.924663 z"
     id="path21" /><path
     style="fill:#2c9448;fill-rule:evenodd;stroke:#000000;stroke-width:0;paint-order:fill markers stroke"
     d="M 56.062028,6.6853578 55.41739,6.032611 56.03421,5.4250645 c 0.339253,-0.3341506 0.616822,-0.6512421 0.616822,-0.7046475 0,-0.053406 -9.348345,-0.097101 -20.7741,-0.097101 h -20.7741 V 3.6986528 2.7739896 h 20.800711 20.80071 L 56.03459,2.0959033 55.364927,1.4178169 56.035761,0.73854483 56.706596,0.05927277 58.16685,1.5090976 c 1.671446,1.6595083 1.898739,1.9930655 1.694355,2.4864918 -0.07592,0.1832927 -0.816752,1.010342 -1.64629,1.8378875 l -1.508249,1.5046279 z"
     id="path22" /><path
     style="fill:#2c9448;fill-rule:evenodd;stroke:#000000;stroke-width:0;paint-order:fill markers stroke"
     d="M 7.6686134,47.671204 C 5.6072664,45.587891 5.6072427,45.789562 7.669081,43.689655 l 1.566304,-1.595224 0.6809251,0.680925 0.6809249,0.680925 -0.6710898,0.679531 -0.6710901,0.679531 H 30.11741 50.979764 v 0.924663 0.924664 H 30.11741 9.2550551 l 0.6694514,0.677871 0.6694515,0.677872 -0.6073841,0.616657 c -0.3340613,0.339161 -0.6399507,0.616657 -0.6797542,0.616657 -0.039803,0 -0.7769963,-0.712136 -1.6382063,-1.582523 z"
     id="path23" /></svg>
