<?xml version="1.0" encoding="UTF-8" standalone="no"?>
<svg
   version="1.1"
   x="0px"
   y="0px"
   viewBox="0 0 100 125"
   enable-background="new 0 0 100 100"
   xml:space="preserve"
   id="svg7"
   sodipodi:docname="noun-money-exchange-206973.svg"
   inkscape:version="1.3 (0e150ed6c4, 2023-07-21)"
   xmlns:inkscape="http://www.inkscape.org/namespaces/inkscape"
   xmlns:sodipodi="http://sodipodi.sourceforge.net/DTD/sodipodi-0.dtd"
   xmlns="http://www.w3.org/2000/svg"
   xmlns:svg="http://www.w3.org/2000/svg"><defs
     id="defs7" /><sodipodi:namedview
     id="namedview7"
     pagecolor="#ffffff"
     bordercolor="#999999"
     borderopacity="1"
     inkscape:showpageshadow="0"
     inkscape:pageopacity="0"
     inkscape:pagecheckerboard="0"
     inkscape:deskcolor="#d1d1d1"
     inkscape:zoom="4.008"
     inkscape:cx="50.02495"
     inkscape:cy="62.5"
     inkscape:window-width="1366"
     inkscape:window-height="697"
     inkscape:window-x="-8"
     inkscape:window-y="-8"
     inkscape:window-maximized="1"
     inkscape:current-layer="svg7" /><g
     id="g6"
     transform="translate(0,13.722555)"><path
       fill="#000000"
       d="m 76.3,33.7 -2.8,-2.8 -2,2 6.3,6.3 6.3,-6.3 -2,-2 L 79,34 C 78.2,26.9 72.1,21.3 64.8,21.3 V 24 c 5.9,0 10.6,4.2 11.5,9.7 z"
       id="path1" /><path
       fill="#000000"
       d="m 20.2,60.6 2.8,2.8 2,-2 -6.3,-6.3 -6.3,6.3 2,2 3.1,-3.1 C 18.3,67.4 24.4,73 31.7,73 V 70.2 C 25.9,70.3 21.1,66.1 20.2,60.6 Z"
       id="path2" /><path
       fill="#000000"
       d="m 50.6,48.6 c 4.3,0 7.9,-3.5 7.9,-7.9 V 19.8 c 0,-4.3 -3.5,-7.9 -7.9,-7.9 H 12.9 C 8.6,11.9 5,15.4 5,19.8 v 20.9 c 0,4.3 3.5,7.9 7.9,7.9 z M 12.9,14.9 h 37.7 c 2.7,0 4.9,2.2 4.9,4.9 v 3 H 8 v -3 c 0,-2.7 2.2,-4.9 4.9,-4.9 z M 8,40.7 V 29.2 h 47.6 v 11.5 c 0,2.7 -2.2,4.9 -4.9,4.9 H 12.9 C 10.2,45.7 8,43.5 8,40.7 Z"
       id="path3" /><path
       fill="#000000"
       d="m 83.1,50 c -2.2,0 -2.8,1 -3.3,2 h -2.3 c 0.2,-0.4 0.5,-0.8 1.1,-1.2 L 77,50.1 c -0.8,0.5 -1.3,1.1 -1.5,1.9 H 74 v 0.9 h 1.5 c 0.2,1.3 1.6,2.1 3.2,2.1 2.2,0 2.8,-1 3.2,-2 h 2.5 c -0.2,0.6 -0.8,1.1 -1.4,1.5 l 1.7,0.8 c 0.9,-0.5 1.5,-1.2 1.7,-2.2 h 1.4 v -0.9 h -1.5 c 0,-1.4 -1.4,-2.1 -3.2,-2.2 z m -4.6,3.6 c -0.5,0 -0.9,-0.3 -1,-0.7 h 2 c -0.2,0.4 -0.5,0.7 -1,0.7 z m 3.8,-1.5 c 0.2,-0.4 0.5,-0.7 1,-0.7 0.5,0 1,0.3 1.1,0.7 z"
       id="path4" /><path
       fill="#000000"
       d="m 61.6,68.3 c -2.2,0 -2.8,1 -3.3,2 H 56 c 0.2,-0.4 0.5,-0.8 1.1,-1.2 l -1.7,-0.8 c -0.8,0.5 -1.3,1.1 -1.5,1.9 h -1.5 v 0.9 h 1.5 c 0.2,1.3 1.6,2.1 3.2,2.1 2.2,0 2.8,-1 3.2,-2 h 2.5 c -0.2,0.6 -0.8,1.1 -1.4,1.5 l 1.7,0.8 C 64,73 64.6,72.3 64.8,71.3 h 1.4 v -0.9 h -1.5 c 0,-1.4 -1.3,-2.1 -3.1,-2.1 z M 57,71.8 c -0.5,0 -0.9,-0.3 -1,-0.7 h 2 c -0.3,0.5 -0.5,0.7 -1,0.7 z m 3.8,-1.5 c 0.2,-0.4 0.5,-0.7 1,-0.7 0.5,0 1,0.3 1.1,0.7 z"
       id="path5" /><path
       fill="#000000"
       d="m 80.8,45.9 c -7.1,0 -14.2,2.3 -14.2,6.8 V 65 c -2.2,-0.6 -4.8,-0.9 -7.3,-0.9 -7.1,0 -14.2,2.3 -14.2,6.8 V 82 h 0.1 c 0.7,4 7.4,6.1 14.1,6.1 6.7,0 13.4,-2.1 14.1,-6.1 h 0.1 v -2.6 c 2.2,0.6 4.8,0.9 7.3,0.9 C 87.9,80.3 95,78 95,73.5 V 52.7 C 95,48.2 87.9,45.9 80.8,45.9 Z M 70.4,81.3 c 0,1.2 -3.9,3.7 -11.1,3.7 -7.2,0 -11.1,-2.4 -11.1,-3.7 v -0.9 c 2.7,1.6 6.9,2.4 11.1,2.4 4.2,0 8.4,-0.8 11.1,-2.4 z m 0,-5.2 c 0,1.2 -3.9,3.7 -11.1,3.7 -7.2,0 -11.1,-2.4 -11.1,-3.7 v -0.9 c 2.7,1.6 6.9,2.4 11.1,2.4 4.2,0 8.4,-0.8 11.1,-2.4 z M 59.3,74.6 c -7.2,0 -11.1,-2.4 -11.1,-3.7 0,-1.3 3.9,-3.7 11.1,-3.7 7.2,0 11.1,2.4 11.1,3.7 0,1.3 -3.9,3.7 -11.1,3.7 z m 32.6,-1.1 c 0,1.2 -3.9,3.7 -11.1,3.7 -3,0 -5.5,-0.4 -7.3,-1 v -2 c 2.2,0.6 4.8,0.9 7.3,0.9 4.2,0 8.4,-0.8 11.1,-2.4 z m 0,-5.2 c 0,1.2 -3.9,3.7 -11.1,3.7 -3,0 -5.5,-0.4 -7.3,-1 v 0 c 0,-0.8 -0.2,-1.5 -0.6,-2.2 2.4,0.7 5.2,1.1 8,1.1 4.2,0 8.4,-0.8 11.1,-2.4 v 0.8 z m 0,-5.2 c 0,1.2 -3.9,3.7 -11.1,3.7 -7.2,0 -11.1,-2.4 -11.1,-3.7 v -0.9 c 2.7,1.6 6.9,2.4 11.1,2.4 4.2,0 8.4,-0.8 11.1,-2.4 z m 0,-5.2 c 0,1.2 -3.9,3.7 -11.1,3.7 -7.2,0 -11.1,-2.4 -11.1,-3.7 V 57 c 2.7,1.6 6.9,2.4 11.1,2.4 4.2,0 8.4,-0.8 11.1,-2.4 z M 80.8,56.3 c -7.2,0 -11.1,-2.4 -11.1,-3.7 0,-1.2 3.9,-3.7 11.1,-3.7 7.2,0 11.1,2.4 11.1,3.7 0,1.3 -3.9,3.7 -11.1,3.7 z"
       id="path6" /></g><path
     style="fill:#2c9448;fill-rule:evenodd;stroke:#000000;stroke-width:0;paint-order:fill markers stroke"
     d="M 10.682208,61.790796 C 8.0085913,60.859334 6.3437982,59.197612 5.5001452,56.618291 5.1461702,55.536075 5.1048859,53.911068 5.1677462,43.534614 5.2389887,31.774493 5.2437755,31.677375 5.8132111,30.439122 6.5940254,28.74122 7.9404943,27.401853 9.7305389,26.542456 l 1.4970061,-0.718709 20.394029,-1.97e-4 c 19.525397,-1.88e-4 20.44787,0.02026 21.658059,0.480096 1.730387,0.657496 3.228491,1.948991 4.112807,3.5456 l 0.741293,1.338379 0.07138,12.321193 c 0.08106,13.993193 0.102397,13.808652 -1.847293,15.977178 -0.646021,0.718533 -1.716909,1.536963 -2.539801,1.94106 l -1.422806,0.698693 -20.209581,0.0579 c -18.932142,0.05424 -20.291364,0.02941 -21.503421,-0.392857 z m 41.462677,-2.564424 c 1.301797,-0.361397 2.977575,-2.037175 3.338972,-3.338972 0.167548,-0.60352 0.277383,-3.385721 0.278224,-7.04758 l 0.0014,-6.050399 H 31.811377 7.8592814 l 0.00139,6.17515 c 8.061e-4,3.577443 0.1125791,6.575556 0.2657019,7.126979 0.3231464,1.16371 1.9169617,2.812055 3.0291667,3.132806 1.221648,0.352313 39.720714,0.354207 40.989344,0.002 z m 3.369087,-24.841211 c 0,-2.647988 -0.524394,-3.924179 -2.045721,-4.978567 L 52.438084,28.692615 32.018381,28.625964 C 12.302702,28.561611 11.566474,28.575828 10.664609,29.03831 8.6281866,30.082599 7.8592814,31.592702 7.8592814,34.547875 v 2.004021 H 31.686627 55.513972 Z"
     id="path7" /><path
     style="fill:#2c9448;fill-rule:evenodd;stroke:#000000;stroke-width:0;paint-order:fill markers stroke"
     d="m 54.89022,101.41097 c -1.856927,-0.28769 -4.674133,-1.12867 -5.933872,-1.771337 -1.336129,-0.681644 -2.938848,-2.188894 -3.335807,-3.137108 -0.250428,-0.598199 -0.33611,-2.341692 -0.33611,-6.839356 0,-5.946998 0.009,-6.051874 0.607978,-7.073929 2.259615,-3.855742 10.756181,-5.548744 19.913479,-3.967904 l 0.935629,0.16152 v -6.527685 c 0,-7.358752 0.03887,-7.561879 1.740798,-9.097695 4.993853,-4.506432 19.735539,-4.494832 24.732323,0.01946 1.746178,1.577568 1.746672,1.581735 1.666869,14.084798 l -0.07113,11.143971 -0.758218,1.081577 c -1.418102,2.022884 -4.45496,3.37765 -9.221822,4.11392 -3.262639,0.503932 -8.369069,0.242729 -10.915668,-0.558359 -0.376547,-0.11845 -0.436627,0.037 -0.436627,1.129689 0,1.543672 -0.753106,3.25473 -1.837091,4.173867 -1.117118,0.947233 -3.964732,2.199161 -6.146941,2.702451 -2.184872,0.50391 -8.33338,0.71388 -10.603792,0.36212 z m 9.97299,-3.156304 c 2.079201,-0.466996 3.706034,-1.135948 4.809667,-1.97773 0.640454,-0.488498 0.811155,-0.800863 0.811155,-1.484326 v -0.865626 l -1.034265,0.527642 c -2.885848,1.47225 -9.082398,2.27733 -13.436793,1.745761 -3.377092,-0.412266 -5.303731,-0.958573 -7.796906,-2.210853 -0.102919,-0.0517 -0.187126,0.257295 -0.187126,0.686644 0,0.994723 0.841454,1.853371 2.561668,2.614017 1.388053,0.61377 4.3143,1.315586 6.170867,1.479992 1.924082,0.170384 6.282699,-0.106958 8.101733,-0.515521 z m 0.423485,-5.291654 c 3.463521,-0.890839 5.197337,-2.039097 5.197337,-3.442051 v -0.83617 l -0.78913,0.408073 c -5.31015,2.745986 -15.56668,2.745986 -20.87683,0 l -0.78913,-0.408073 v 0.699393 c 0,1.408403 1.497056,2.534287 4.549794,3.421742 3.405563,0.990025 9.191486,1.061547 12.707959,0.157086 z m 20.541648,-2.397231 c 2.314838,-0.488635 3.821131,-1.044838 5.010227,-1.850042 0.804456,-0.544743 0.991655,-0.828356 1.055961,-1.599836 l 0.07816,-0.937717 -1.200919,0.606185 c -0.660504,0.333401 -2.211397,0.86781 -3.446427,1.187573 -1.946562,0.503987 -2.810187,0.5786 -6.487026,0.560439 -2.764748,-0.01366 -4.784446,-0.14756 -5.800898,-0.384586 L 73.47804,87.784164 v 1.171131 1.17113 l 1.434631,0.278772 c 0.789047,0.153324 1.659181,0.324055 1.933632,0.379401 1.328411,0.267895 7.37404,0.120614 8.982036,-0.218817 z M 65.541847,87.730906 c 2.224763,-0.582485 3.29767,-1.081048 4.256057,-1.977725 1.279082,-1.196724 0.726325,-2.232176 -1.811946,-3.394235 -2.252046,-1.031021 -4.731368,-1.45162 -8.60472,-1.459729 -4.036745,-0.0084 -6.637802,0.450248 -9.048193,1.595657 -1.855158,0.881563 -2.509253,1.686754 -2.099961,2.585051 0.562976,1.235597 3.552182,2.580242 6.906637,3.106834 2.413783,0.378925 8.178667,0.126288 10.402126,-0.455853 z m 20.411247,-2.404314 c 3.521212,-0.705534 6.237525,-2.278136 6.237525,-3.6112 0,-0.632047 0.06867,-0.641575 -2.579122,0.357844 -2.841302,1.072459 -5.782118,1.463708 -9.771178,1.299964 -1.921157,-0.07886 -4.166666,-0.312573 -4.99002,-0.519363 -2.052592,-0.515521 -2.155568,-0.506355 -1.883176,0.16762 0.124788,0.308758 0.290078,0.858765 0.367316,1.222239 0.118266,0.556561 0.347407,0.710668 1.451898,0.976451 2.938606,0.707144 7.931243,0.754733 11.166757,0.106445 z m 0.333031,-5.235793 c 1.942712,-0.407867 4.264738,-1.401645 5.092879,-2.179645 0.365939,-0.34378 0.562114,-0.819431 0.562114,-1.36291 v -0.834833 l -0.938648,0.478863 c -2.312602,1.179801 -6.671904,2.027952 -10.407103,2.024818 -3.45622,-0.0029 -8.746138,-1.110034 -10.213059,-2.137505 -0.279571,-0.195819 -0.595601,-0.356034 -0.702295,-0.356034 -0.3199,0 -0.219544,0.973359 0.180022,1.746036 0.652438,1.261671 4.491198,2.70207 8.233777,3.089519 1.701784,0.176176 6.402473,-0.09254 8.192313,-0.468309 z m -1.910466,-4.886182 c 4.286399,-0.591748 7.565459,-2.213081 7.565459,-3.740746 0,-0.401686 -0.04683,-0.730338 -0.104065,-0.730338 -0.05724,0 -0.646684,0.232783 -1.30988,0.517296 -4.89621,2.100481 -13.390449,2.257849 -18.465511,0.342099 -2.684716,-1.013435 -2.575634,-1.002703 -2.575634,-0.253401 0,2.745109 7.986045,4.818147 14.889631,3.86509 z m 1.949358,-5.623599 c 1.975507,-0.411021 4.219888,-1.365309 5.053987,-2.148906 1.587555,-1.491429 -0.347989,-3.242784 -4.802158,-4.345182 -2.459136,-0.60863 -9.03982,-0.6159 -11.477046,-0.01268 -2.194533,0.543155 -4.761953,1.780635 -5.254768,2.532762 -0.800789,1.222161 0.580983,2.519427 3.758239,3.528394 3.482425,1.105876 8.674222,1.287731 12.721746,0.445609 z"
     id="path8" /><path
     style="fill:#2c9448;fill-rule:evenodd;stroke:#000000;stroke-width:0;paint-order:fill markers stroke"
     d="m 83.863489,68.416906 c -0.414212,-0.302879 -0.409948,-0.346434 0.07706,-0.787172 0.893232,-0.808365 0.656818,-1.137718 -0.816671,-1.137718 -1.171222,0 -1.365823,0.07378 -1.610395,0.610556 -0.485746,1.066098 -1.377319,1.457804 -3.043782,1.337263 -1.518328,-0.109826 -2.746151,-0.832825 -2.746151,-1.617059 0,-0.201177 -0.293244,-0.33076 -0.748503,-0.33076 -0.499002,0 -0.748503,-0.12475 -0.748503,-0.374251 0,-0.2448 0.245051,-0.374252 0.708454,-0.374252 0.508783,0 0.786577,-0.17146 0.985641,-0.608357 0.371927,-0.816291 1.030153,-1.133878 1.770966,-0.854473 0.557297,0.210191 0.56939,0.253894 0.187125,0.676291 -0.616078,0.680759 -0.514097,0.786539 0.758286,0.786539 0.99548,0 1.261288,-0.112178 1.808883,-0.763394 1.298974,-1.544779 4.352692,-1.429825 5.382441,0.202616 0.358957,0.569046 0.691565,0.793755 1.18513,0.800668 0.439286,0.0062 0.686128,0.144252 0.686128,0.383863 0,0.245996 -0.246138,0.374251 -0.718234,0.374251 -0.564813,0 -0.785304,0.161923 -1.032223,0.758038 -0.470762,1.136521 -1.29196,1.497715 -2.085655,0.917351 z m -4.522172,-1.425888 c 0.445446,-0.492212 0.435787,-0.499002 -0.709833,-0.499002 -1.185886,0 -1.392876,0.167749 -0.862023,0.698603 0.442959,0.442959 1.061421,0.364424 1.571856,-0.199601 z m 5.114771,-1.197605 c 0,-0.37366 -0.597294,-0.798403 -1.122755,-0.798403 -0.52546,0 -1.122754,0.424743 -1.122754,0.798403 0,0.109781 0.505239,0.199601 1.122754,0.199601 0.617515,0 1.122755,-0.08982 1.122755,-0.199601 z"
     id="path9" /><path
     style="fill:#2c9448;fill-rule:evenodd;stroke:#000000;stroke-width:0;paint-order:fill markers stroke"
     d="m 62.174258,86.678952 c -0.421853,-0.250186 -0.409957,-0.307706 0.187126,-0.904789 0.35069,-0.35069 0.637618,-0.734583 0.637618,-0.853096 0,-0.118513 -0.565875,-0.215478 -1.257499,-0.215478 -1.142518,0 -1.344306,0.09125 -2.206877,0.998004 -0.879473,0.924518 -1.048674,0.997935 -2.29789,0.997071 -1.507802,-0.001 -2.819843,-0.629069 -3.089556,-1.478858 -0.116595,-0.367359 -0.374833,-0.516217 -0.89553,-0.516217 -0.484057,0 -0.73169,-0.126662 -0.73169,-0.374252 0,-0.238303 0.239633,-0.374251 0.659686,-0.374251 0.44868,0 0.910875,-0.290582 1.444998,-0.908472 0.758484,-0.877436 0.809024,-0.896047 1.479429,-0.544786 0.615371,0.322425 0.649577,0.40065 0.301509,0.68952 -0.772555,0.641164 -0.4648,1.013239 0.838084,1.013239 1.025245,0 1.258042,-0.08617 1.394532,-0.516217 0.598606,-1.886038 5.28792,-1.969942 5.756493,-0.102997 0.120646,0.480692 0.316807,0.619214 0.876868,0.619214 0.474959,0 0.721455,0.127868 0.721455,0.374251 0,0.225699 -0.230995,0.374252 -0.581951,0.374252 -0.398708,0 -0.772233,0.294606 -1.186262,0.935629 -0.633999,0.981591 -1.295651,1.235931 -2.050543,0.788233 z m -4.464677,-1.27476 c 0.515797,-0.515797 0.332991,-0.698603 -0.698603,-0.698603 -0.694689,0 -0.998004,0.107424 -0.998004,0.35346 0,0.614554 1.185938,0.855811 1.696607,0.345143 z m 5.289421,-1.397206 c 0,-0.373661 -0.597294,-0.798403 -1.122754,-0.798403 -0.525461,0 -1.122755,0.424742 -1.122755,0.798403 0,0.109781 0.50524,0.199601 1.122755,0.199601 0.617514,0 1.122754,-0.08982 1.122754,-0.199601 z"
     id="path10" /></svg>
