<?xml version="1.0" encoding="UTF-8" standalone="no"?>
<svg
   version="1.1"
   x="0px"
   y="0px"
   viewBox="0 0 100 125"
   style="enable-background:new 0 0 100 100;"
   xml:space="preserve"
   id="svg2"
   sodipodi:docname="noun-profit-6276569.svg"
   inkscape:version="1.3 (0e150ed6c4, 2023-07-21)"
   xmlns:inkscape="http://www.inkscape.org/namespaces/inkscape"
   xmlns:sodipodi="http://sodipodi.sourceforge.net/DTD/sodipodi-0.dtd"
   xmlns="http://www.w3.org/2000/svg"
   xmlns:svg="http://www.w3.org/2000/svg"><defs
     id="defs2" /><sodipodi:namedview
     id="namedview2"
     pagecolor="#ffffff"
     bordercolor="#999999"
     borderopacity="1"
     inkscape:showpageshadow="0"
     inkscape:pageopacity="0"
     inkscape:pagecheckerboard="0"
     inkscape:deskcolor="#d1d1d1"
     inkscape:zoom="4.008"
     inkscape:cx="50.02495"
     inkscape:cy="62.5"
     inkscape:window-width="1366"
     inkscape:window-height="697"
     inkscape:window-x="-8"
     inkscape:window-y="-8"
     inkscape:window-maximized="1"
     inkscape:current-layer="svg2" /><style
     type="text/css"
     id="style1">&#10;	.st0{fill-rule:evenodd;clip-rule:evenodd;}&#10;</style><path
     d="M67.39,33.53c0.55,0,1,0.44,1,1v21.1c0,0.55-0.45,1-1,1h-8.9c-0.55,0-1-0.45-1-1v-21.1c0-0.55,0.45-1,1-1H67.39z   M87.99,55.63V26.19c0-0.55-0.45-1-1-1h-8.9c-0.55,0-1,0.45-1,1v29.43c0,0.55,0.45,1,1,1h8.9C87.54,56.62,87.99,56.18,87.99,55.63z   M38.35,34.02c0.29,0.19,0.63,0.21,0.95,0.07l44.5-19.94c0.58-0.26,1.26,0.01,1.52,0.58l1.4,3.13c0.2,0.43,0.61,0.69,1.08,0.68  c0.48-0.02,0.87-0.3,1.04-0.74l3.91-10.27c0.22-0.59-0.07-1.26-0.66-1.48L81.83,2.15c-0.44-0.17-0.92-0.06-1.24,0.29  c-0.33,0.34-0.41,0.82-0.21,1.26l1.4,3.13c0.26,0.58,0,1.26-0.58,1.51L38.48,27.47c-0.37,0.16-0.59,0.5-0.59,0.91v4.8  C37.9,33.53,38.06,33.83,38.35,34.02z M77.96,64.62l-7.45,3.66c1.28,1,2.29,2.32,2.92,3.79l11.78-5.79  C83.53,64.13,80.5,63.37,77.96,64.62z M38.89,56.62h8.9c0.55,0,1-0.45,1-1V42.85c0-0.55-0.45-1-1-1h-8.9c-0.55,0-1,0.45-1,1v12.78  C37.9,56.18,38.35,56.62,38.89,56.62z M98.89,70.23c-1.43-2.9-5-4.12-7.9-2.69L74.21,75.8c0.01,0.83-0.1,1.68-0.33,2.53  c-1.36,5.1-6.64,8.14-11.74,6.77l-24.58-6.58c-0.86-0.23-1.37-1.12-1.14-1.98l0.12-0.44c0.23-0.85,1.11-1.37,1.97-1.14l24.58,6.59  c3,0.8,6.11-0.88,7.1-3.77c0.02-0.05,0.03-0.1,0.05-0.15v-0.01c0.03-0.1,0.06-0.2,0.09-0.3v-0.01c0.35-1.36,0.19-2.76-0.37-3.96  v-0.01c-0.02-0.04-0.04-0.08-0.06-0.12l-0.01-0.03c-0.02-0.03-0.03-0.06-0.04-0.09l-0.03-0.07L69.78,73  c-0.02-0.03-0.03-0.06-0.05-0.09l-0.01-0.02c-0.64-1.1-1.63-2-2.86-2.5h-0.01c-0.04-0.02-0.09-0.04-0.13-0.05l-0.02-0.01  c-0.04-0.02-0.08-0.03-0.12-0.04l-0.04-0.01c-0.03-0.02-0.07-0.03-0.1-0.04c-0.02-0.01-0.04-0.01-0.07-0.02  c-0.03-0.01-0.05-0.02-0.08-0.02c-0.05-0.02-0.1-0.03-0.15-0.04l-0.5-0.13l-0.49-0.13l-0.49-0.13l-0.5-0.14l-0.49-0.13l-0.49-0.13  l-0.5-0.13l-0.49-0.13l-0.49-0.13l-0.49-0.14l-0.5-0.13l-0.49-0.13l-0.49-0.13l-0.5-0.13l-0.49-0.14l-0.49-0.13l-0.49-0.13  l-0.5-0.13l-0.49-0.13l-0.49-0.14l-0.5-0.13l-0.49-0.13l-0.49-0.13l-0.49-0.13l-0.5-0.14l-0.49-0.13l-0.49-0.13l-0.5-0.13L51.8,66.3  l-0.49-0.14l-0.5-0.13l-0.49-0.13l-0.49-0.13l-0.49-0.13l-0.5-0.14l-0.49-0.13l-0.49-0.13l-0.5-0.13l-0.49-0.13l-0.49-0.13  l-0.49-0.14l-0.5-0.13l-0.49-0.13l-0.49-0.13l-0.5-0.13l-0.49-0.14l-0.49-0.13l-0.49-0.13l-0.5-0.13l-0.49-0.13l-0.49-0.14  l-0.5-0.13l-0.49-0.13l-0.49-0.13l-0.5-0.13l-0.49-0.14l-0.49-0.13l-0.49-0.13l-0.5-0.13l-0.49-0.13l-0.19-0.05l-1.79-0.48  c-4.49-1.21-8.81-0.58-12.77,1.86l-4.45,2.73l6.89,23.02l26.05,6.98c3.98,1.06,7.74,0.7,11.44-1.12  c11.52-5.67,23.04-11.34,34.56-17.01C99.12,76.7,100.33,73.14,98.89,70.23z M12.65,63.71c-0.24-0.82-1.11-1.28-1.92-1.04L1.6,65.4  c-0.81,0.25-1.28,1.11-1.04,1.92l8.84,29.51c0.24,0.82,1.11,1.28,1.92,1.04l9.12-2.73c0.81-0.25,1.28-1.11,1.04-1.92L12.65,63.71z"
     id="path1" /><path
     style="fill:#2c9448;fill-rule:evenodd;stroke:#000000;stroke-width:0;stroke-opacity:0.988166;paint-order:fill markers stroke"
     d="M 50.523952,96.178194 C 46.315362,95.127171 24.507564,89.21149 24.383211,89.087136 24.244206,88.948131 17.58982,66.794001 17.58982,66.470224 c 0,-0.255352 4.594445,-3.068289 6.245636,-3.823875 2.392933,-1.095007 4.350252,-1.468087 6.977746,-1.330013 2.478151,0.130226 1.546689,-0.103498 28.055725,7.039803 4.383897,1.181314 8.352343,2.383698 8.818765,2.671964 1.158042,0.715707 2.190571,2.212352 2.544698,3.688519 0.661552,2.757664 -1.213046,5.787926 -4.099695,6.627098 -0.8615,0.250444 -1.704192,0.340194 -2.202218,0.234544 -0.443698,-0.09413 -6.420497,-1.674453 -13.281774,-3.511839 -6.861278,-1.837386 -12.620498,-3.340741 -12.798268,-3.340789 -0.177769,-4.8e-5 -0.598802,0.275498 -0.935628,0.612324 -0.683496,0.683496 -0.825092,1.995369 -0.293793,2.721964 0.223843,0.306123 4.175897,1.473792 13.28593,3.925445 12.825484,3.451539 12.991866,3.48873 15.212816,3.400494 1.823803,-0.07246 2.517156,-0.219452 3.691979,-0.782715 2.841929,-1.362547 5.045948,-4.379769 5.349783,-7.323662 l 0.142443,-1.380124 8.88095,-4.364854 c 8.470991,-4.163364 8.950058,-4.365213 10.377959,-4.372623 5.1903,-0.02693 7.716676,6.284867 3.947785,9.862978 -0.392528,0.372656 -8.944357,4.730126 -19.004065,9.683266 -13.362804,6.579498 -18.800104,9.136075 -20.182407,9.489608 -2.380929,0.60894 -5.313029,0.601592 -7.800235,-0.01954 z"
     id="path2" /><path
     style="fill:#2c9448;fill-rule:evenodd;stroke:#000000;stroke-width:0;stroke-opacity:0.988166;paint-order:fill markers stroke"
     d="M 9.8834259,97.339291 C 9.7280704,97.152101 7.5675302,90.220272 5.0822253,81.935227 0.94399444,68.139969 0.59229636,66.820188 0.90559294,66.262011 1.1938114,65.748514 2.0140187,65.422555 6.1128703,64.19258 11.00912,62.723324 11.882263,62.617169 12.314722,63.438575 c 0.415704,0.789581 9.017613,29.730247 9.017613,30.339279 0,0.328446 -0.149641,0.721365 -0.332536,0.873154 -0.441514,0.366425 -9.419032,3.028633 -10.213176,3.028633 -0.341403,0 -0.747842,-0.153156 -0.9031971,-0.34035 z"
     id="path3" /><path
     style="fill:#2c9448;fill-rule:evenodd;stroke:#000000;stroke-width:0;stroke-opacity:0.988166;paint-order:fill markers stroke"
     d="m 72.606386,70.345499 c -0.525031,-0.762321 -1.156928,-1.527753 -1.404217,-1.700961 -0.395838,-0.277257 0.0491,-0.55976 3.720016,-2.36192 3.833737,-1.882095 4.290226,-2.046369 5.666637,-2.039212 1.194589,0.0062 1.757998,0.157469 2.78895,0.748748 0.710569,0.407531 1.365074,0.859292 1.454455,1.003915 0.09784,0.158302 -2.085243,1.351915 -5.485458,2.999209 -3.106383,1.504943 -5.678978,2.736259 -5.716876,2.736259 -0.0379,0 -0.498477,-0.623717 -1.023507,-1.386038 z"
     id="path4" /></svg>
