<?xml version="1.0" encoding="UTF-8" standalone="no"?>
<svg
   version="1.1"
   x="0px"
   y="0px"
   viewBox="0 0 1000 1250"
   style="enable-background:new 0 0 1000 1000;"
   xml:space="preserve"
   id="svg28"
   sodipodi:docname="noun-locker-1005100.svg"
   inkscape:version="1.3 (0e150ed6c4, 2023-07-21)"
   xmlns:inkscape="http://www.inkscape.org/namespaces/inkscape"
   xmlns:sodipodi="http://sodipodi.sourceforge.net/DTD/sodipodi-0.dtd"
   xmlns="http://www.w3.org/2000/svg"
   xmlns:svg="http://www.w3.org/2000/svg"><defs
     id="defs28" /><sodipodi:namedview
     id="namedview28"
     pagecolor="#ffffff"
     bordercolor="#999999"
     borderopacity="1"
     inkscape:showpageshadow="0"
     inkscape:pageopacity="0"
     inkscape:pagecheckerboard="0"
     inkscape:deskcolor="#d1d1d1"
     inkscape:zoom="0.5668168"
     inkscape:cx="486.0477"
     inkscape:cy="747.15499"
     inkscape:window-width="1366"
     inkscape:window-height="697"
     inkscape:window-x="-8"
     inkscape:window-y="-8"
     inkscape:window-maximized="1"
     inkscape:current-layer="svg28" /><g
     id="g27"><path
       d="M334.7,108.5c-0.4,62.2-1.5,78.7-1.1,143.2c-0.1,30.8,0.1,63.6,0.2,93.6c0.8,14.3,0,39.5,0.6,56.4l-0.5,6.5   c0.2,5.8,0.4,12.6,0.1,18.5l-0.1-0.4c0.4,8.7,0.1,18.5,0.3,22.8l-0.1-0.4l0,10.6l-0.2-1.8c0.4,15.2,0.4,30.8,0.2,44.5l0.6-1.1   c-0.7,29.4,0.5,40.2-0.3,66.7l-0.1-0.4c1.5,33.6-1.1,53.1,0.3,87.7c-0.2-4.3-0.3,1.8-0.4,1.5c0.1,15.9,0.2,33,1.3,33.2   c0,11.6-0.4,9.5-0.8,11c0.5-0.1,0.7,10,0.7,19.1l-0.2-4.2l0.1,26l1-5.1c-0.3,13.8-1.2,3.5-0.9,16.7l0.8-0.2   c-0.2,19.1-1.4,30.2-2,48.7c-0.1,18.7-0.1,37.7,0,56.8c0.1,9.6,0.1,19.1,0.2,28.7c0,4.8,0.1,9.6,0.1,14.3l0,3.6l0,1.6l0.1,2.6   l-2.3-1.5c-1.6-1.1-3.2-2.1-4.8-3.2c-4.2-2.8-8.3-5.5-12.4-8.3c-8.2-5.5-16.4-11-24.5-16.4c-16.1-10.9-31.8-21.7-46.8-32.2   l-2.3-2.2c-0.7-1.5-17-10-18.8-12.1l-7.1-4.3c-1.8-1.4-5.8-4.3-2.3-2.2c-6.3-4.3-6.6-4.3-11.3-7.2L201,819l-0.1-0.1l0,0l-0.1-0.1   l-0.1-0.1l-0.4-0.4l0.1-0.6l0-0.1l0-0.1l0-0.3l0.1-1.1c0.4-30.3-0.7-56-0.6-87.9c1-38.3-0.1-110.3-0.8-151.8   c-1.4-58.3,1.9-126.2,0.3-185.9c0.1-1,0-2.7-0.1-4.2c0-0.7-0.1-1.4-0.1-1.9s-0.1-0.8-0.1-0.8l0-54.7c0,0-0.2-265-6.9-63.7l-0.2-1.3   c-0.4,29.9-0.5,48.8,0.5,69.4c-1.1,3.3-0.1,24.6-0.4,31.6l-0.1-0.7c0.9,18.3-0.7,37.6,0.2,55.2c-0.1-0.7-0.4-1.1-0.4-5.1   c0.2,12.8,0.5,30.3-0.2,31.3c0.2,30.6,0,73.3,1.1,93l-0.2-1.3c0.7,11.2,0.1,14.5,0.5,27c-0.1,0.7-0.1,1.6-0.2,1.4   c0.7,12.2,0.2,35.5,0.5,45.4l-0.4,0.6l0.2,24.2l0.1-9.1c1.2,3.1-0.7,18.3,0.1,35.9c-0.1,16.5,2.6,33.4,2.1,50.5   c0.6,8.1-0.9-7.2-0.5,5c-0.6,0.4-0.4-5.7-0.9-2.5c0.3,12-0.6,19.6-0.1,34.4l-0.5,0.6c0.9,19.2-0.6,36.3,0.3,49.1   c0.2,6.7,0,10.4-0.1,13.1c-0.1,1.4-0.2,2.5-0.3,3.7c0,0.3,0,0.6-0.1,0.9c0,0.5,0,1-0.1,1.5c0,1-0.1,2.1-0.1,3.3   c0.9,0.7,2,1.4,3.1,2.2c0.5,0.3,0.9,0.6,1.4,1c0.4,0.3,0.8,0.5,1.3,0.8c1.8,1.2,4,2.6,6.9,4.4l6.3,5.1c7.3,5,5.7,2.9,13.7,8.6   c-0.7,0,10.1,7.2,5.1,4.3c18,13,37.9,24.4,61.5,41.7c5.7,2.9,17.6,11.5,21.9,13.7c0.2,0.4,6.3,4.5,10.6,7.5   c1.1,0.8,2.2,1.5,2.9,2.1c1.2,0.9,2.1,1.5,2.3,1.7c0.3,0.2-0.1,0.1-1.2-0.6c-0.8-0.5-2.2-1.4-4.4-2.7c-1.2-0.7-3.3-2.2-3.1-2.2   l-1.9-0.7c1.3,1,2.7,2,4,2.9c0.7,0.5,1.3,0.9,2,1.4c0.9,0.6,1.8,1.2,2.7,1.9c5,3.4,9.9,6.7,14.6,9.8c-0.1-4.3-0.1-8.6-0.2-13   c0-2.1-0.1-4.2-0.1-6.3c0-1.2-0.1-2.3-0.1-3.5c-0.1-4.6-0.2-9.3-0.2-14.2c-0.2,4.9-0.1,11.4-0.5,7l0.1-15.3l0.4,3.2l0.3-22.8   l-0.5,3.1c0.3-11.2,1.2-15.1,0.4-27.7c-0.4-5.7-0.7,10.6-0.8-1.2c0.4-14.9,0.9-37.3,1.1-56.4c-0.6,1.8-0.5-3.4-0.7-8.6l0.5-0.6   c-0.7-20.2,1.1-7.4,0.6-27.5l0.3,1.8l-1-5.3c-1-18.1,1-9.8-0.3-29.9c0.1,8-1.1,3.8-0.9-6.1l0.5,2.5c-0.1-5.4-0.3-7.2-0.2-10.8   c0.3,3.2,0.7,1.7,0.6-6.3l0.6,5.3l-0.9-15.1c0.5-11.6-0.1-30.1,0.6-34.9c0,0,0.4-25-0.4-30.8c0.5,5,0.6-8.8,1.2-4.8   c-0.5-6.5-0.9-25.6-0.3-33.3l0.1,1.5c0.6-28.4-0.7-48.5,0-73.9c-0.6,1.2-0.2-12.3-1-9c-0.7-26.3,1.6-48-0.7-57.5   c-0.1-12,0.6-14.2,0.7-20.4l0.1,2.9c-0.2-22.4-0.2-29-0.1-45.6c-0.2-8.3-1.3-9.6-1-24.5c0.4,4.8,0.3-1.3,0.4-6.8   c0.1,3.6,0.2,4.7,0.5-2.7c-0.1-1-0.2-2.6-0.3-4.1c0-0.1,0.1-0.4,0.1-0.2c-0.1-9.3-0.3-7.7-0.3-3.4c-0.1-0.2-0.1,0.1-0.3,1.5   c0.6-9.7,0-26.9,0.7-28.1c-0.1-28-0.8-48-1.1-71.3c0.4-2.6,0.7,2.8,0.8,9.6l-0.1-16.5c0.5,0.1,0.3,9.5,0.4,14.6   c0.9-19.7-0.8-40.6,0-63.6l-0.4-4.8l0.1-1.4c-0.2,0.1-0.5-5.1-0.6-8.5c0.5-3.3,1.1,0.2,1.1-11.2c0.5-9-0.2-25.7-0.4-37.5   c-0.1,6.4-0.3,4.3-0.5,1.6c0-5.7,0.5-9,0.3-13.4l0.6-0.5c-0.1,0.5-0.2,0.1-0.3-0.8c0-0.5-0.1-1-0.1-1.7c0-0.3,0-0.7,0-1.1   c0-0.5,0-1,0-1.5c-0.1-4.7-0.2-10.6-0.3-14.1c-1.3,1-2.1,1.6-2.6,2c-1.4,0.8,0.2-0.5,2.8-2.5c0.1,4,0.2,10.5,0.4,11.7   c0-8.2,0-11.1,0-12.3c-11.1,8.1-8.6,6.3-25.7,18.8c-9.6,7.6,2.1-0.8-2.2,3.1c-8.6,6.5-16.9,13-27.1,20l3.5-1.9   c-16.1,12.3-25.9,19.4-37.3,27c-119.2,92.7-22,23.8-22,23.8c21.5-15,38.1-27.2,54.9-39.7c8.4-6.3,16.8-12.6,25.9-19.5   c4.5-3.4,9.3-7,14.2-10.7c2.3-1.7,4.7-3.5,7.1-5.4c0.4-0.4,0.9-0.8,1.4-1.1c0,0.3,0,0.6,0.1,0.9l0,0.5l0,0.3l0,0.1l0,0.6   C334.7,100.3,334.7,104.4,334.7,108.5z"
       id="path1" /><g
       id="g5"><path
         d="M453.3,95.3l-6.2-1C447.1,94.4,448.7,94.7,453.3,95.3z"
         id="path2" /><path
         d="M800.6,649c0-0.5,0-1.1-0.1-1.5C800.5,648.6,800.6,648.9,800.6,649z"
         id="path3" /><path
         d="M353.8,231.1c0-0.1,0-0.2,0-0.3c0-0.5,0-1.2-0.1-1.6L353.8,231.1z"
         id="path4" /><path
         d="M530.5,98c-38.1-5-63.5-8.6-88-12c-12.3-1.7-24.3-3.3-37.7-5.1c-6.7-0.9-13.6-1.8-21.1-2.8    c-9.3-1.2-19.3-2.5-30.1-3.9c0,8.5,0,18.3,0,28.8c-0.2,41.9,0,86.7,0.1,127.7c0.8,19.5-0.1,53.8,0.6,76.8l-0.5,8.9    c0.2,7.9,0.4,17.2,0.1,25.2l-0.1-0.5c0.3,11.9,0.1,25.2,0.3,31.1l-0.1-0.5l0,14.4l-0.2-2.5c0.4,20.7,0.3,42,0.1,60.7l0.6-1.6    c-0.7,40.1,0.5,54.8-0.4,91l-0.1-0.5c1.5,45.8-1.2,72.4,0.2,119.5c-0.2-5.9-0.3,2.5-0.4,2c0.1,21.7,0.2,44.9,1.3,45.3    c0,15.8-0.4,12.9-0.8,15c0.3,0,0.4,3.4,0.5,8.3s0.2,11.5,0.2,17.7l-0.2-5.7L355,771l1-7c-0.3,18.8-1.2,4.8-1,22.8l0.8-0.2    c-0.2,26-1.4,41.2-2,66.4c0,11.2-0.1,22.6-0.1,33.9c0,12.9,0,25.8,0,38.8c43.1-5.5,86.6-11,129.2-16.4    c41.1-5.2,81.3-10.1,119.3-14.2l4.3,0.1c2,0.6,26.5-4.5,30.3-4.2l11.2-1.8c3.2-0.2,9.8-0.9,4.3,0c10.4-1.2,10.6-1.4,18.1-2.6    l11.2-0.8c20.5-2.3,39.4-4.8,58.6-7.3c9.6-1.3,19.3-2.5,29.2-3.8c5-0.6,10-1.3,15.2-1.9c5.3-0.6,10.8-1.3,16.4-2    c2.1-0.2,4.2-0.5,6.8-0.8c0.1-7.6,0.1-16,0.2-24.9c0-7.8,0.1-16,0.1-24.6c0-17.2-0.1-35.7-0.2-54.3c-0.3-37.2-0.7-74.8-1-102.4    c-1.4-79.5,1.8-172.1,0.2-253.5c0.1-1.3,0-3.7-0.1-5.7c0-1-0.1-2-0.1-2.6c0-0.7-0.1-1.1-0.1-1.1l0-74.5c0,0-0.3-361.4-6.9-86.8    l-0.2-1.8c-0.4,40.8-0.4,66.5,0.6,94.6c-1.1,4.4-0.1,33.5-0.4,43.1l-0.1-0.9c0.9,24.9-0.6,51.3,0.2,75.2c-0.1-0.9-0.4-1.4-0.4-7    c0.2,17.5,0.5,41.4-0.2,42.7c0.3,41.7,0,100,1.2,126.8l-0.2-1.8c0.8,15.2,0.1,19.7,0.5,36.8c-0.1,0.9-0.1,2.1-0.2,1.9    c0.7,16.6,0.2,48.5,0.5,61.9l-0.4,0.9l0.2,33.1l0.1-12.4c1.2,4.3-0.7,25,0.1,49c-0.1,22.4,2.6,45.5,2.1,68.8    c0.6,11.1-0.9-9.8-0.5,6.8c-0.6,0.5-0.4-7.8-0.9-3.5c0,2.4,0.1,4.6,0.1,6.8c0,0.9,0,1.7,0,2.5c0,0.6,0,1.2,0,1.8    c-1.8,0.2-3.7,0.4-5.5,0.5c-2.5,0.3-5.1,0.5-7.7,0.8c-5.4,0.6-11.2,1.3-18.3,2.3l-0.9-0.4c-25.9,4.1-49.2,5.4-66.5,8.3    c-26.8,3.7-18.2,0.7-46.1,5.1l-11,0.7c-12,1.4-8.5,1.9-21.8,3.2c0.8-0.5-16.8,1.7-9.1,0.4c-30.1,3-60.9,8.4-100.6,12.1    c-8.5,1.9-28.5,3.8-34.8,5.2c-1.1-0.2-39.9,4.8-17.7,1.3c1.9-0.3,5.3-0.7,5.1-0.5l2.6-0.8c-22.7,1.8-40.9,5.5-63.3,8.1    c6.6-0.6,15.4-1.8,9.6-0.7l-20.8,2.5l4.3-0.9l-30.9,3.5l4.3,0c-3.2,0.3-6,0.6-8.5,0.8c-0.3,0-0.6,0.1-0.9,0.1c-0.1,0-0.1,0-0.2,0    c-0.1,0-0.2,0-0.3,0c-0.2,0-0.4,0-0.5-0.1c0.2,1.2,0.3-7.6-0.1-16.9c-0.4-7.8-0.7,14.4-0.8-1.7c0.4-20.4,0.9-50.9,1.1-76.9    c-0.6,2.4-0.5-4.6-0.7-11.8l0.5-0.8c-0.7-27.6,1.1-10.1,0.6-37.5l0.3,2.4l-1-7.2c-1-24.7,1.1-13.3-0.3-40.8    c0.1,10.9-1.1,5.1-0.9-8.3l0.5,3.4c-0.1-7.4-0.3-9.9-0.2-14.8c0.3,4.4,0.7,2.3,0.6-8.5l0.6,7.3l-0.9-20.6    c0.5-15.9-0.1-41,0.6-47.5c0,0,0.4-34.1-0.3-42c0.5,6.9,0.7-12,1.2-6.6c-0.5-8.8-0.9-35-0.3-45.4l0.1,2    c0.6-38.7-0.7-66.1,0.1-100.8c-0.6,1.6-0.2-16.7-1-12.2c-0.7-35.9,1.6-65.5-0.7-78.4c-0.1-16.3,0.6-19.4,0.7-27.8l0.1,3.9    c-0.1-30.6-0.2-39.5-0.1-62.2c-0.2-11.3-1.3-13.1-1-33.5c0.4,6.6,0.3-1.7,0.4-9.3c0.1,4.9,0.2,6.4,0.5-3.6    c-0.1-1.4-0.2-3.6-0.3-5.6c0-0.1,0.1-0.5,0.1-0.3c-0.1-12.7-0.3-10.5-0.3-4.6c-0.1-0.3-0.1,0.2-0.3,2c0.6-13.2,0-36.7,0.7-38.3    c-0.1-18.2-0.2-33.9-0.4-48.8c-0.2-14.1-0.4-27.5-0.6-41.7c0.9,0.1,1.8,0.2,2.8,0.3c1.5,0.4-0.1,0.5-2.2,0.4    c0,0.6,0.1,1.4,0.1,2.1c0,0.4,0,0.8,0,1.2c0,0.8,0,1.6,0,2.4l0-5.5l10.7,1.3c-0.1,0.2-1.9,0-4.6-0.2c-1.6-0.2-3.8-0.5-5.8-0.7    c0,1,0,1.9,0,2.6c0.1-0.9,0.1-1.6,0.2-2.4c0.6,0.1,1.3,0.2,1.9,0.3l1.5,0.2l2.4,0.3c3.2,0.4,6.3,0.8,9.6,1.2    c6.4,0.7,13,1.5,19.6,2.2c13.3,1.5,27.2,3.1,41.6,5.3l6.5,0.4l1.9,0.3c-0.1-0.2,7,0.4,11.6,0.9c4.4,1-0.4,1,15,3    c12.2,2,34.7,4.2,50.8,6c-8.6-1.2-5.8-1.1-2.1-0.8c7.7,1,12.1,2,18.1,2.6l0.7,0.7c-3-1,20.3,2,23.1,2.1c4.3,1-12-1.1-14-1    c31,3.9,15.5,2,46.5,5.9c16.6,1.6-2.9-1,5-0.5c14.6,1.7,28.9,3.1,45.6,5.7l-5.2-1.2c27.5,3.1,43.9,5.3,62.3,8.2    c204.8,21.7,43.8-0.7,43.8-0.7C668,113.5,626.3,109.8,530.5,98z"
         id="path5" /></g><g
       id="g9"><path
         d="M781.5,580.4l-0.2,5.9C781.4,586.2,781.5,584.7,781.5,580.4z"
         id="path6" /><path
         d="M462.5,132.1c0.5,0,1,0.1,1.4,0.1C462.9,132.2,462.6,132.1,462.5,132.1z"
         id="path7" /><path
         d="M773.3,773.3c0-0.1,0-0.2,0-0.3c0-0.5,0-1.1-0.1-1.5L773.3,773.3z"
         id="path8" /><path
         d="M792.8,519.9c-6.7,0-13,0.1-18.4,0.1c-0.1,8.3-0.1,16-0.2,23.3c-0.1,5.9-0.1,11.5-0.2,16.9    c-0.1,10.7-0.3,20.5-0.4,30.1c-0.1,9.6-0.2,19-0.3,29c0,5-0.1,10.2-0.1,15.6c0,7.2-0.1,14.8-0.1,22.8c5.4-0.3,11.3-0.7,17.6-1    l0,0.1c0,1.5,0.1,3,0.1,4.6c0.1,3.4,0.2,7,0.2,10.6c0.1,6.9,0.2,14,0.3,21l0,0.1c0,0,0,0,0,0.1l-0.1,0l-2,0.1    c-5.4,0.3-10.8,0.5-16.2,0.8c0,26.6,0.1,53.5,0.1,79c0.3,7.6,0.4,17.6,0.4,28.3c0,5.3,0,10.8,0,16.2c0,2.7,0,5.4,0,8    c0,0.7,0,1.3,0,2l0,0.9l0,0.2c0,0.2,0,0.5,0,0.7c-0.2,0-0.3,0.1-0.5,0.1l-0.3,0.1l-0.1,0c0,0,0,0-0.2,0l-0.7,0.1    c-1.8,0.2-3.6,0.5-5.3,0.7l-8.3,0.4c-7.3,1-15.9,2-23.3,2.5l0.5-0.2c-10.9,1.5-23.3,2.5-28.7,3.2l0.4-0.2l-13.3,1.4l2.3-0.4    c-19.1,2.3-38.8,4.3-56.1,5.9l1.5,0.4c-37.2,3.1-50.6,5.7-84.2,8.3l0.4-0.2c-42.2,5.8-67,5.8-110.5,11.6c5.4-0.7-2.4-0.1-1.9-0.2    c-20.1,2.2-41.5,4.5-41.7,5.6c-1.8,0.2-3.4,0.3-4.7,0.5c-0.5,0-1,0.1-1.4,0.1c-0.3,0-0.5,0-0.7,0c-0.9,0-1.3,0-1.5,0    c0.1-0.8,0.3-0.9,0.6-1.4c-0.1,0.1-0.2-0.1-0.3-0.6c0-0.1,0-0.3-0.1-0.4c0-0.1,0-0.2,0-0.3c0-0.2,0-0.5,0-0.7c0-0.9-0.1-2-0.1-3.2    c-0.1-4.6-0.2-10.7-0.2-16.4l0.2,5.3l-0.1-32.9l-1,6.5c0.3-17.5,1.2-4.4,1-21.2l-0.8,0.2c0.2-24.2,1.4-38.3,2-61.7    c0.5-97.2-1.3-201.6,0.3-292.1l0.6-4c0.9-1.7-1.2-24.9-0.4-28.4l-0.4-10.5c0.2-3,0.3-9.2,0.5-3.9c0.1-9.7-0.1-10-0.3-17l0.6-10.4    c0.5-38.4-0.5-71-0.2-111.4c0.4-17,0.6-39.3,0.6-63.3c0-12,0-24.5-0.1-36.9c0-6.2-0.1-12.4-0.1-18.6c0-3.1,0-6.1-0.1-9.2l0-2.3    l0-1.2c0-0.5,0-0.9,0-1.4c18.9,1.9,36.5,3.7,50.9,5.1c73.6,7,158.7,20,234.1,27c1.2,0.2,3.4,0.4,5.3,0.6c0.9,0.1,1.8,0.1,2.4,0.2    c0.6,0,1,0,1,0l68.9,7.9c0,0,6.1,0.7,15.8,1.8c0,15.3,0.1,38.5,0.1,62.1c0.1,12.4,0.2,24.9,0.2,36.5c0.2,12.5,0.3,24.1,0.4,33.6    c1.6,0.1,3.2,0.2,4.8,0.4c1.3,0.1,2.6,0.2,3.9,0.3c1.9,0.1,3.7,0.2,5.4,0.3c3.3,0.2,6.1,0.3,8.1,0.4l-1.8-2c0.2,5.5,0.7,6.2,1.4,0    l0.5,0.6c-1.9-0.4-4.4-0.8-7.6-1.3c-3.1-0.5-6.8-1-11.3-1.7c0.1-1.7,0.2-3.6,0.3-5.5c0.1-2.1,0.2-4.4,0.3-6.8    c0.2-4.8,0.4-10.2,0.6-16.1c0.4-11.9,0.8-26,1.4-42.6l0.2,1.7c0.2-12.9,0.3-24.3,0.4-34.6c0-5.2,0-10.1,0-14.8    c0-5.8-0.1-11.4-0.1-16.9c-3.1-0.3-6.2-0.6-9.3-0.9c-2.1-0.2-4.1-0.4-6.2-0.6c-4.1-0.4-8.2-0.7-12.3-1c-4-1.6-31-3.6-39.7-5l0.8,0    c-23.1-1.7-47.3-6.1-69.5-7.8c0.9,0,1.4-0.3,6.5,0.3c-16.2-1.7-38.3-3.9-39.4-4.7c-38.6-4.2-92.4-10.5-117.2-12.2l1.7,0    c-14.2-0.9-18.2-1.9-34-3.3c-0.8-0.2-2-0.4-1.8-0.4c-15.4-1-44.8-4.9-57.2-6l-0.8-0.5l-14.1-1.5l0,23.3l0.1-11.5    c1.2,4-0.8,23.2-0.1,45.5c-0.2,20.9,2.5,42.3,1.8,64c0.6,10.3-0.9-9.1-0.5,6.3c-0.6,0.5-0.4-7.2-0.9-3.2    c0.3,15.2-0.7,24.9-0.3,43.6l-0.5,0.8c0.9,24.4-0.7,46,0.1,62.3c0.4,25.2-1.5,16.9-0.6,43.1l-0.7,10.2c-0.1,11.2,0.8,8,0.5,20.5    c-0.4-0.8-0.4,15.7-0.8,8.4c-0.7,28.1,0.8,57.1-0.4,94.2c0.8,8.1,0.3,26.7,0.9,32.7c-0.4,1-0.1,37.4-0.9,16.4    c-0.1-1.8,0-5,0.1-4.8l-0.5-2.5c-1,21.1,0.4,38.4,0.3,59.3c0.2-6.2,0.1-14.5,0.5-8.9l-0.1,19.4l-0.4-4l-0.3,29l0.5-4    c-0.3,14.2-1.2,19.1-0.5,35.1c0.4,7.2,0.7-13.4,0.8,1.5c-0.4,18.9-1,47.3-1.2,71.5c0.6-2.3,0.5,4.2,0.6,10.9l-0.5,0.8    c0.6,25.7-1.1,9.4-0.6,34.9l-0.3-2.2l1,6.7c0.9,23-1.1,12.4,0.2,37.9c0-5,0.2-6.2,0.5-4.6c0.1,0.8,0.2,2.3,0.3,4.4    c0,1,0.1,2.2,0.1,3.5c0,0.7,0,1.5,0,2.2c0,1.1,0,2.3,0,3.5c0,0-0.1-1.2-0.2-2.4c-0.1-0.6-0.1-1.2-0.2-1.7c0-0.3-0.1-0.5-0.1-0.5    c0.1,4.5,0.1,7.8,0.1,10.5c2.1-0.2,3.9-0.4,5.7-0.7c0.9-0.1,1.8-0.2,2.8-0.3c0.7-0.1,1.5-0.1,2.4-0.2c-0.6,0.1-1,0.2-1.4,0.2    c-0.5,0.1-0.9,0.2-1.1,0.2c-0.4,0.1-0.1,0.2,0.9,0.1c0.4,0,0.9,0,1.5-0.1c0.5,0,1.2-0.1,2-0.1c1.5-0.1,3.5-0.3,6.1-0.6l-6.7,1.3    l18.9-2.8c14.7-1,37.9-4,44-3.9c0,0,31.6-2.9,38.8-4.3c-6.3,1.1,11.1-0.5,6.2,0.6c8.1-1.3,32.2-4.2,42-4.7l-1.8,0.2    c35.8-3.1,61.1-7,93.3-9.5c-1.5-0.4,15.5-1.8,11.2-2.1c33.1-4.1,60.7-4.6,72.5-8.1c15.1-1.7,18-1.3,25.8-2L748,840    c15.1-1.6,24.9-2.7,33.5-3.6c0-9.8,0-18.2,0.1-30.3c-0.2-10.5-1.3-12.2-1-31.1c0.4,6.1,0.3-1.6,0.4-8.7c0.1,4.5,0.2,5.9,0.5-3.4    c-0.1-1.3-0.2-3.3-0.3-5.2c0-0.1,0.1-0.4,0.1-0.3c-0.1-11.8-0.3-9.8-0.3-4.3c-0.1-0.3-0.1,0.2-0.3,1.9c0.6-12.2,0-34.1,0.8-35.6    c0-3.6,0-7.2,0-10.6c0-1.6,0-3.2,0-4.8c0-0.7,0-1.5,0-2.2c0.7-0.1,1.4-0.1,2.1-0.2c1.5-0.1,3-0.2,4.4-0.3c1.7-0.1,3.3-0.2,5-0.3    c1.1-0.1,2.3-0.1,3.4-0.2l1.7-0.1l0.8,0l0.4,0l0.2,0c0.1,0,0.2,0,0.1-0.1c-0.1-2.2-0.1-4.4-0.2-6.6c-0.1-1.6-0.1-3.2-0.2-4.8    c-0.1-2.9-0.2-5.7-0.3-8.6c-0.2-5.7-0.4-11.3-0.6-16.9c-0.1-3-0.2-6-0.3-9.1c0-1,0-2-0.1-3l0-1.5l0-0.7l0-0.4l0-0.2l0-0.1    c0,0-0.1,0-0.1,0c-2,0.1-4,0.3-6,0.4c-2.2-0.1-1.1-0.3,2.4-0.7c1.5,0.1,5.3-1.6,4.3,2.2c0.1,2.4,0.2,5.1,0.3,7.9    c0,0,0-1.6-0.1-3.9c0-1.5-0.1-3.2-0.1-5.1c0-0.5,0-0.9,0-1.4c0.1-0.3-0.3-0.2-0.5-0.2l-0.7,0c-1,0.1-2,0.1-2.9,0.2    c-5.6,0.4-11.2,0.7-11.2,0.7c0-0.1,0.1-0.1,0.3-0.2c0.1,0,0.2-0.1,0.3-0.1c0.1,0,0.4-0.1,0.7-0.1c1.2-0.1,2.9-0.3,4.8-0.4    c2.8-0.2,6-0.4,9-0.5l0.3,0l0.1,0c0,0,0.1,0,0.1,0l0,0.1l0,0.6c0,0.4,0,0.8,0,1.2c0,0.8,0,1.5,0,2.3c0,1.5,0.1,2.9,0.1,4.1    c0-1.5,0-3,0-4.4l0-2.3l0-1.1l0-0.6c-0.2,0-0.4,0-0.5,0c-2.9,0.1-5.9,0.3-8.8,0.4c-1.9,0.1-3.8,0.2-5.7,0.3    c-0.7,0.1-1.5,0.1-2.3,0.2c0-1.1,0-2.2-0.1-3.3c0-2.3-0.1-4.6-0.1-7c-0.1-4.7-0.1-9.4-0.2-14.2c-0.1-9.6-0.1-19.6,0.2-29.8    l-0.4-6.1l0.1-1.7c-0.2,0.1-0.5-6.5-0.6-10.8c0.5-4.1,1.1,0.3,1.1-14.2c0.2-4.5,0.2-10.4,0.1-16.9c0-3.2-0.1-6.6-0.1-10    c0-1.6-0.1-3.2-0.1-4.9c0-0.8-0.1-1.6-0.1-2.4c0.9,0,1.8-0.1,2.6-0.1c1.8-0.1,3.5-0.1,5.1-0.2c-4,0-5.5-0.1-5.3-0.2    c0-0.1,1.6-0.2,3.3-0.3c1.8,0,3.4,0,4.9,0c2.1,0,4.1,0.1,5.9,0.1c0.5,0,1,0,1.4,0c0.2,0,0.5,0,0.7,0l0-0.7c0-0.9,0-1.8,0-2.8    c0-0.9,0-1.9,0-2.8c0-0.5,0-1,0-1.5c0-0.4,0-0.7,0-1.1l0.6-0.7c-0.6,2.9-0.9-18.9-1.2-21.6c0.4-4.1,0.5,11.2,0.9,13    c-0.2-14.5-0.3-18.1-0.3-21.8c0-2.3-0.1-4.6-0.1-8.5c0-0.6,0-1.2,0-1.9c0-0.2,0-0.3,0-0.5l0-0.3c0,0,0-0.1,0-0.1l-0.1,0    c-0.4,0-0.7,0-1.1,0c-1.5,0-3.1-0.1-5-0.2c-2.6-0.1-5.7-0.2-9.6-0.3c-1.5,0-2.5,0.1-2.9,0.2c-0.1-0.8-0.2-0.4-0.3,0.3    c0.4,0.1,1,0.2,1.3,0.3c0.2,0.1,0.1,0.2-1.4,0.3l-0.5,0c-0.1-6.2-0.2-12.3-0.2-18.6c-0.1-6.9-0.1-14,0.1-21.7l-0.6,5    c-0.4-25.7-0.3-41.1,0.3-58.4c-0.3-12.1-0.5-22.9-0.8-32.3c4.3,0.1,8.3,0.3,12.1,0.4c1.8,0.1,3.6,0.1,5.3,0.2l0.2,0    c0,0,0-0.1,0-0.1l0-0.3l0-0.7c0-0.4,0-0.8,0-1.3c0-0.8,0-1.6,0-2.4c0-6.7,0-12.5,0-17.4c-0.1-9.8-0.2-16.1-0.4-19.8    c-0.4-7.3-1.1-3.9-1.8,3.8c-0.7,7.8-1.4,19.9-2,30.1c-0.2,3.5-0.2,2.5-0.2,2.9c0,0,0,0.1-0.1,0.1l-0.1,0c-0.1,0-0.2,0-0.2-0.1    c-3-0.2-4.8-0.4-4.8-0.4c-2-0.1-4-0.3-6-0.4c-2.6-0.2-5.1-0.4-7.4-0.5c-0.1,14.2-0.3,27.3-0.4,39.8c-0.1,10.7-0.1,21,0,31.1    c0.2,21.8,0.3,43,0.5,67.4c4,0.1,8.1,0.2,12.2,0.3c1.3,0,2.5,0,3.8,0.1c0.6,0,1.3,0,1.9,0l0.3,0l0.3,0c0.1,0,0.2,0,0.2,0.1    c0,0.2,0,0.4,0.1,0.6c0.1,2.6,0.1,5.2,0.2,7.9c0.1,5.6,0.2,11.5,0.4,17.6c0.1,3.1,0.1,6.2,0.2,9.4l0,0.7l0,0.2l0,0.5l0,0.3    c-0.1,0-0.2,0-0.2,0L792.8,519.9z"
         id="path9" /></g><g
       id="g13"><path
         d="M592.1,172.7l-5.4-0.8C586.7,171.9,588.1,172.2,592.1,172.7z"
         id="path10" /><path
         d="M739.6,677.4c0-0.4-0.1-0.9-0.1-1.3C739.6,677,739.6,677.3,739.6,677.4z"
         id="path11" /><path
         d="M408.3,181.9c0-0.1,0-0.2,0-0.3c0-0.5,0-1-0.1-1.4L408.3,181.9z"
         id="path12" /><path
         d="M658.8,172.9c-72.7-8.4-91.8-11.7-167.2-19.7c-12.7-1.4-25.8-2.9-38.8-4.3c-14.9-1.6-29.9-3.3-44.5-4.9    c0,13,0,25.4,0.1,37.6c0.8,16.8-0.1,46.4,0.6,66.3l-0.5,7.7c0.2,6.8,0.4,14.9,0.1,21.7l-0.1-0.4c0.3,10.2,0.1,21.7,0.3,26.8    l-0.1-0.4l0,12.4l-0.2-2.1c0.4,17.8,0.3,36.2,0.1,52.4l0.6-1.3c-0.7,34.6,0.5,47.3-0.4,78.5l-0.1-0.4c1.5,39.5-1.2,62.4,0.2,103.1    c-0.2-5.1-0.3,2.2-0.4,1.8c0.1,18.7,0.2,38.8,1.3,39.1c0,13.7-0.4,11.1-0.8,12.9c0.5-0.1,0.7,11.8,0.7,22.4l-0.2-4.9l0.1,30.6l1-6    c-0.3,16.2-1.2,4.1-1,19.6l0.8-0.2c-0.2,22.4-1.4,35.5-2,57.2c-0.1,21.6-0.1,43.7,0,65.8c0.1,23.4,0.2,47,0.3,70.3    c13.2-1.4,26.3-2.8,39.4-4.2c11.8-1.2,23.5-2.4,35-3.6c23.1-2.3,45.7-4.5,67.4-6.4l3.7,0.2c1.7,0.7,22.9-3.6,26.2-3.1l9.7-1.4    c2.7-0.1,8.5-0.5,3.7,0.1c9-0.9,9.2-1,15.6-2l9.7-0.4c35.5-3.2,65.5-7.3,102.8-10.8c5.2-0.4,11-0.9,17.2-1.4    c3.1-0.3,6.3-0.6,9.6-0.9c4.5-0.4,9.2-0.9,13.9-1.4c0.2-45.1-0.1-78.5-0.4-122.8c-3.6,0.2-7.2,0.4-10.6,0.6c-1,0.1-2,0.1-3,0.2    c-0.4,0-0.8,0.1-1.3,0.1l-0.6,0.1l-0.1,0c0,0,0,0,0-0.1l0-0.2l0-0.3c0-0.4,0-0.8-0.1-1.2c-0.1-1.8-0.1-3.6-0.2-5.3    c-0.3-8.4-0.5-17.1-0.7-25.8c0-1.9-0.1-3.8-0.1-5.7l0-1.5c0-0.1,0-0.2,0-0.2l0.2,0l0.4,0l0.8,0c5-0.3,9.9-0.5,15-0.8    c0.1-6.2,0.1-12.4,0.2-18.7c0.1-5.3,0.1-10.7,0.2-16c0.2-10.7,0.3-21.5,0.5-32.3c0.1-10.8,0.3-21.6,0.4-32.3    c0-5.4,0.1-10.7,0.1-16.1c0-6.8,0.1-13.5,0.1-20.2c-4.6,0.1-9.2,0.1-13.8,0.2l-1.8,0l-0.5,0c-0.2,0-0.4,0-0.6,0l0-0.5    c-0.2-5.5-0.5-11-0.7-16.4c0-1.1-0.1-3.2-0.2-4.9c-0.1-0.9-0.1-1.7-0.2-2.3c-0.1-0.6-0.1-0.9-0.1-0.9l-0.3-15.1l0-0.2    c0-0.1,0.1,0,0.2,0l0.4,0l0.8,0l3.4,0.1l13.1,0.4l0.1-31c0,0,0-13.8,0-33.3c0-9.8,0-21-0.1-32.7c-0.1-12.7-0.1-25.9-0.2-38.5    c-4.8-0.2-9.5-0.5-14-0.7c-0.9,0-1.8-0.1-2.6-0.1c-0.4,0-0.8,0-1.2,0c-0.4,0-0.7,0-1.1,0c0,0-0.1,0-0.1,0l0-0.1l0-0.3l0-0.5    c0.1-6,0.1-11.7,0.2-16.6c0.1-10.9,0-18.8-0.3-21.6s-0.9-0.5-1.9,8.9c-0.5,4.7-1,11.3-1.7,19.9c-0.2,2.1-0.3,4.4-0.5,6.8    c-0.1,1.4-0.2,2.9-0.3,4.4c-0.1,0.8-0.1,1.6-0.2,2.5l0,0.6c0,0.1,0,0.2,0,0.3l0.3,0c0.4,0,0.8,0.1,1.2,0.1c3,0.3,6.2,0.6,9.6,0.9    c1.4,0.1,2.9,0.3,4.4,0.4c0.9,0.1,1.9,0.2,2.8,0.3c0,0.6-0.1,1.2-0.1,1.8c0,0.3,0,0.6-0.1,0.9l0,0.5l0,0.8    c-0.1,2.1-0.1,4.2-0.2,6.4c-0.1,4.4-0.3,9.1-0.5,14.1l-0.2-1.6c-0.5,35.2-0.7,57.3,0.2,81.6c-0.4,1.2-0.5,4.3-0.6,8.3    c0,2,0,4.3,0,6.6c0,0.5,0,1.1,0,1.6l0,0.7c0,0.5,0,0.9,0,1.4c-0.6,0-1.2,0-1.8,0c-0.5,0-1,0-1.4,0c-0.7,0-1.4,0-2-0.1    c-1.3,0-2.6-0.1-3.7-0.1c-1.8-0.1-3.3-0.1-4.6-0.2l1.2-0.1c-1.1,0-2.1,0-3.2,0l-1.6,0l-0.8,0c-0.1,0-0.1,0.1-0.1,0.1l0,0.2l0,0.4    c0.1,2.2,0.2,4.3,0.2,6.5c0.1,1.6,0.1,3.2,0.2,4.8c0,1.4,0.1,2.7,0.1,4.1c0.1,5.5,0.2,11,0.2,16.5c0,2.7,0,5.5,0.1,8.2    c0,1.4,0,2.7,0,4.1c0,1.9,0.1,3.8,0.1,5.6c0,1.1,0.1,2.2,0.1,3.3l0,0.8l0,0.4l0,0.2l0,0.1c0,0,0.1,0,0.1,0l1.7,0    c2.2,0,4.4-0.1,6.6-0.1c1.4,0,2.8-0.1,4.2-0.1c0.7,0,1.3-0.1,2-0.1l0.2,0l0.1,0l0.2,0l0.4,0c-0.2,0-0.3,0.2-0.6,0.2    c0,0-0.1,0-0.1,0c-0.1,0-0.2,0-0.4,0c-0.3,0-0.6,0-0.9,0.1c-0.7,0-1.6,0.1-2.8,0.1c1.4,0,2.9-0.1,4.4-0.1c0.5,0,1.1,0,1.6-0.1    c0,0.5,0,1,0,1.6c0,1.5,0,2.9,0,4.3c0,3.1,0,6,0,8.5c0,5-0.2,8.6-0.4,9c0,16.2,0,35.3,0,53.5c0,9.1,0.1,18,0.1,26.1    c0,4.1,0.1,8,0.1,11.6c0,1.8,0.1,3.5,0.1,5.2c0,0.6,0.1,1.3,0.1,1.9c-0.5,0.1-1.1,0.2-1.5,0.2c-0.1,0-0.3,0-0.4,0.1    c-0.3,0-0.6,0.1-0.9,0.1c-0.6,0.1-1.2,0.1-1.8,0.2l1.6-0.3c-1.6,0.2-3.1,0.3-4.5,0.5c-2.1,0.2-4,0.3-5.8,0.5    c-0.5,0-0.9,0.1-1.4,0.1l-0.7,0l-0.3,0l-0.2,0c0,0,0,0.1,0,0.2c0,0.9,0,1.8,0.1,2.6c0,1.7,0.1,3.4,0.1,5.1    c0.1,4.5,0.1,9.1,0.4,16.5c-0.1,0.8-0.1,1.8-0.1,1.7c0.2,2.5,0.3,5.3,0.4,8.4c0,1.5,0.1,3.2,0.1,4.8c0,1.7,0.1,3.5,0.1,5.4    c0,1.3,0,2.5,0.1,3.8l0,1.9l0,1l0,0.5c0,0.1,0,0.2,0,0.2l0.2,0c2.6-0.1,5.2-0.2,7.7-0.4c2.5-0.1,5-0.2,7.4-0.3c0,1.9,0,3.7,0,5.4    c0,2.5,0,4.7,0.1,6.5l-0.4,0.7l0,28.5l0.1-10.7c1.2,3.7-0.8,21.6-0.1,42.2c-0.1,6.5,0.2,13.2,0.5,19.8c0.4,6.3,0.7,12.7,1.1,19.1    c-1.2,0.2-2.5,0.4-3.8,0.6l-4.8,0.6c-3.2,0.4-6.4,0.7-9.7,0.9c-9.5,1.5,8.3-1.8-5.9,0.1c-0.5-0.6,6.6-1.1,2.9-1.2    c-14,1.7-23,1.7-40.2,3.9l-0.8-0.4c-22.4,3.2-42.6,3.7-57.5,6c-23.2,2.8-15.7,0.1-39.8,3.5l-9.5,0.3c-10.4,0.9-7.3,1.6-18.8,2.4    c0.7-0.5-14.5,1.1-7.9,0.1c-26,2-52.6,6.3-86.9,8.6c-7.3,1.6-24.6,2.8-30.1,4c-1-0.3-34.5,3.4-15.3,0.7c1.7-0.2,4.6-0.5,4.4-0.4    l2.3-0.7c-4.3,0.2-8.4,0.6-12.4,1c-2,0.2-3.9,0.4-5.8,0.6l-0.7,0.2l-0.1-0.4l0-0.2c0,0,0,0,0-0.1l0-0.5l0-0.9    c-0.1-2.5-0.1-5-0.2-7.5c-0.1-5.1-0.2-10.2-0.1-15.7c-0.2,5.7-0.1,13.4-0.5,8.3l0.1-18l0.4,3.8l0.3-26.9l-0.5,3.7    c0.3-13.1,1.2-17.8,0.5-32.6c-0.4-6.7-0.7,12.4-0.8-1.4c0.4-17.6,1-43.9,1.1-66.3c-0.6,2.1-0.5-3.9-0.7-10.1l0.5-0.7    c-0.6-23.8,1.1-8.7,0.6-32.3l0.3,2.1l-1-6.2c-0.9-21.3,1.1-11.5-0.2-35.2c0.1,9.4-1.1,4.4-0.9-7.1l0.5,2.9    c-0.1-6.4-0.3-8.5-0.2-12.8c0.3,3.8,0.7,2,0.6-7.4l0.6,6.3l-0.9-17.7c0.5-13.7-0.1-35.4,0.6-41c0,0,0.4-29.4-0.3-36.2    c0.5,5.9,0.7-10.3,1.2-5.7c-0.5-7.6-0.9-30.2-0.3-39.2l0.1,1.7c0.6-33.4-0.7-57,0.1-87c-0.6,1.4-0.2-14.4-1-10.5    c-0.7-31,1.6-56.5-0.7-67.6c-0.1-14.1,0.6-16.7,0.7-24l0.1,3.4c-0.1-26.4-0.1-34.1-0.1-53.7c-0.2-9.8-1.3-11.3-1-28.9    c0.4,5.7,0.3-1.5,0.4-8.1c0.1,4.2,0.2,5.5,0.5-3.1c-0.1-1.2-0.2-3.1-0.3-4.8c0-0.1,0.1-0.4,0.1-0.2c-0.1-10.9-0.3-9-0.3-4    c-0.1-0.3-0.1,0.2-0.3,1.7c0.1-2.2,0.2-4.6,0.2-7.2c0-1.6,0-3.3,0.1-4.9c3.2,0.4,6.4,0.8,8.7,1c3.2,0.4,5.4,0.8,5.8,1    c32.7,3.5,56.2,5.4,83.5,8.2c3,0.7-3.4,0.3-11.3-0.4l19.3,2c-0.2,0.5-11.1-0.9-17.1-1.5c22.9,3.4,47.5,4.5,74.4,8.3l5.6,0.2    l1.6,0.3c-0.1-0.2,6,0.1,10,0.5c3.8,0.9-0.4,1,13,2.5c10.5,1.6,30,3.1,43.9,4.4c-7.4-0.9-5-0.9-1.8-0.7c6.7,0.7,10.5,1.6,15.6,2    l0.6,0.7c-2.6-0.9,17.5,1.3,20,1.3c3.7,0.9-10.4-0.8-12.1-0.6c26.8,2.9,13.4,1.5,40.2,4.4c14.3,1.1-2.5-0.9,4.4-0.7    c6.3,0.6,12.4,1.2,18.8,1.8c3.2,0.3,6.5,0.7,9.8,1c1.7,0.2,3.4,0.4,5.1,0.6c0.7,0.1,1.4,0.2,2,0.3c0.6,0.1,1.3,0.2,1.9,0.3    c0,0.1,0,0.2,0,0.3l0.1-0.3c-0.9-0.3-1.9-0.5-3-0.8c1.2,0.1,2.5,0.2,3.6,0.3c0,2.4,0.1,4.7,0.1,6.9c0,2.4,0,4.8,0.1,7    c0,4.5,0,8.7,0,12.6c-0.1,7.9-0.2,15.1-0.5,22.6c0.4,14.5,0.7,26.9,1,37.4c0.4,10.9,0.7,19.8,0.9,27.1c-2.2-0.1-4.3-0.2-6.3-0.4    c-1.7-0.1-3.3-0.2-4.8-0.2c-2.9-0.1-5.4-0.2-7.4-0.3l2-1.8c0.5,13.6,1.3,9.9,2.2,0.1l-4.3,3.8c2.4,0.4,5.2,0.7,8.2,1.1    c0.7,0.1,1.5,0.2,2.3,0.3c0.4,0,0.8,0.1,1.2,0.2c0.7,0.1,1.4,0.2,2.1,0.2c2.9,0.3,5.8,0.6,8.8,1c0.3-15.6,0.6-31.1,0.6-31.1    c0.3-17,0.5-32,0.5-46.2c0-7.1,0-14,0-20.8c0-8.4-0.1-16.8-0.1-25.2c-3.4-0.4-6.8-0.7-10.2-1.1c-1.8-0.2-3.6-0.4-5.4-0.5    c-3.7-0.4-7.3-0.7-11.1-1.1c-7.5-0.7-15.3-1.5-23.5-2.3C698.2,177,680,175.2,658.8,172.9z"
         id="path13" /></g><g
       id="g17"><path
         d="M522.4,588.9l-1.1-1.4C521.3,587.6,521.5,588,522.4,588.9z"
         id="path14" /><path
         d="M692.8,506.2c0,0.1,0,0.3,0,0.4C692.8,506.3,692.8,506.2,692.8,506.2z"
         id="path15" /><path
         d="M497.1,528.7C497.1,528.7,497.1,528.7,497.1,528.7c0.1,0.2,0.1,0.4,0.2,0.5L497.1,528.7z"
         id="path16" /><path
         d="M543.2,595.4c-4.7-2.8-8.2-5.6-11.2-8.2c-1.5-1.3-2.9-2.5-4.1-3.8c-1.3-1.3-2.5-2.5-3.7-3.8    c-0.6-0.6-1.2-1.3-1.8-1.9c-0.6-0.7-1.1-1.4-1.7-2.1c-0.6-0.7-1.2-1.4-1.8-2.1c-0.6-0.8-1.2-1.5-1.8-2.3c-1.3-1.6-2.4-3.4-3.8-5.3    c-1.3-2-2.8-4.1-4.2-6.5c-5.4-9.3-9.6-20.2-12.1-30.5c-0.9-2.4-1.7-5.8-2.1-9.4c-0.5-3.6-0.8-7.3-1.3-10.3l0.3-2.3    c-0.3-2.1-0.6-4.5-0.2-6.6l0.1,0.1c-0.1-1.5-0.2-3.2-0.1-4.6c0.1-1.4,0.2-2.7,0.1-3.5l0.1,0.1c0,0,0-0.9,0.1-1.9    c0.1-0.9,0.2-1.9,0.2-1.9l0.1,0.7c0.1-5.4,1-10.9,2.3-15.6l-0.7,0.3c0.8-2.5,1.3-4.7,1.9-6.5c0.5-1.9,1-3.6,1.5-5.2    c0.5-1.6,1-3.3,1.7-5c0.3-0.9,0.7-1.8,1.1-2.7c0.4-0.9,1-1.9,1.5-2.9l0.1,0.2c1.8-5.7,4.3-9.8,7.2-13.6c1.3-2,2.9-3.8,4.4-5.8    c0.8-1,1.6-2,2.4-3.2c0.8-1.1,1.7-2.3,2.6-3.6c-0.9,1.3,0.7-0.3,0.7-0.1c3.6-4.3,8.1-8.4,7.4-9.3c3.2-2.7,2.8-1.9,3.5-1.9    c-0.2-0.2,0.4-0.9,1.4-1.7c1-0.9,2.3-2,3.6-2.9l-1.1,1c0,0,1.9-1.3,3.8-2.7c2-1.2,3.9-2.5,3.9-2.5l-2,0.1c2.2-1.2,2.6-1,3-1    c0.4,0.1,0.7,0.1,2.7-1.1l-0.4-0.7c3.1-1.5,5.7-2.3,8.3-3c1.3-0.4,2.6-0.6,4-0.9c0.7-0.2,1.4-0.3,2.1-0.5c0.7-0.1,1.5-0.3,2.3-0.4    c6.5-1.9,13.3-3.2,20.1-3.8c6.9-0.6,13.9-0.4,20.7,0.7c3.4,0.5,6.8,1.2,10.1,2.2c1.7,0.4,3.3,1,4.9,1.5c1.6,0.6,3.2,1.2,4.7,1.8    c6.2,2.7,11.9,6.1,16.8,10c0,0,0.1,0.3,0.3,0.6c0.1,0.3,0.3,0.6,0.3,0.6c-0.1,0.5,1.5,1.3,3.1,2.1c1.6,0.9,3.3,1.8,3.4,2.4    l2.5,1.7c0.5,0.6,1.7,2,0.5,1.1c1.9,1.9,2.1,1.8,3.7,3.1l1.6,2.5c3.5,4.1,6.7,7.9,9.7,11.9c3,4,5.8,8.4,8.3,13.5    c1.2,3.2,2.9,7,4.4,11.3c1.5,4.3,3,9,4.2,13.8c2.5,9.6,3.7,19.7,3.9,27.2c0.6,10.5-1.5,21.8-5.3,32.5c-3.7,10.7-9,20.7-14.2,30    c-0.5,0.5-1.3,2.1-1.2,2.2c0,0-2.8,4-5.9,7.7c-1.6,1.8-3.2,3.7-4.5,5c-0.6,0.7-1.2,1.2-1.5,1.6c-0.4,0.4-0.6,0.6-0.6,0.6    s-1.1,1-2.8,2.7c-1.8,1.6-4.3,3.9-7.4,6.2c-6,4.8-14.3,9.6-20.9,12.6c-0.8,0.4-1.6,0.8-2.4,1.1c-0.8,0.3-1.5,0.6-2.2,0.9    c-0.7,0.3-1.3,0.6-1.9,0.9c-0.6,0.2-1.1,0.5-1.6,0.7c-1.9,0.9-2.7,1.5-2,1.8c0.4,0.1,1.1,0.2,2.4,0.2c0.6,0,1.3-0.1,2.2-0.2    c0.8-0.1,1.8-0.3,2.9-0.5c1.1-0.2,2.3-0.5,3.7-0.8c0.7-0.2,1.4-0.3,2.2-0.6c0.7-0.2,1.5-0.5,2.3-0.7c1.7-0.5,3.4-1.2,5.3-1.9    c1-0.4,1.9-0.8,2.9-1.3c0.5-0.2,1-0.5,1.6-0.7c0.5-0.3,1-0.5,1.6-0.8l-0.3,0.4c5-2.8,8.8-5.4,12-8.1c3.2-2.7,5.8-5.4,8.2-8.5    c0.4,0,1-0.4,1.8-1.1c0.4-0.3,0.7-0.7,1.2-1.1c0.4-0.4,0.8-0.9,1.2-1.4c1.6-1.9,3.2-4.1,4.1-5l-0.1,0.3c0.9-1.5,1.9-3,2.9-4.3    c1-1.4,2.1-2.8,3.2-4.3c2.1-2.9,4.1-5.8,5.3-8.9c0,0.3,0.2,0.6-0.5,1.9c2.3-4.3,4.8-10.5,5.5-10.6c2.3-5.4,4.6-12,6.1-18.2    c1.5-6.3,2.3-12.2,2.2-15.9l0.1,0.5c-0.2-4.3,0.5-5.4,0.4-10.2c0.1-0.3,0.2-0.6,0.2-0.5c-0.2-1.2-0.2-2.6-0.2-4.1    c0-1.5-0.1-3.2-0.1-4.8c-0.1-3.2-0.2-6.4-0.6-8.2l0.4-0.3c0,0-0.2-2.3-0.6-4.5c-0.3-2.3-0.8-4.5-0.8-4.5s0.1,0.8,0.3,1.7    c0.1,0.4,0.1,0.8,0.2,1.2c0,0.3,0.1,0.5,0.1,0.5c-0.7-0.5-0.8-2.2-1-4.6c-0.1-1.2-0.3-2.6-0.5-4c-0.2-1.5-0.7-3-1.3-4.6    c-0.3-1.5-0.9-3-1.6-4.4c-0.6-1.4-1.4-2.8-2.2-4.2c-0.8-1.4-1.6-2.8-2.3-4.2c-0.7-1.4-1.4-2.8-1.9-4.3c-1.7-2.5,1.9,2.1-0.3-1.9    c0.5-0.4,1.2,1.8,1.2,0.5c-2.2-3.9-2.5-7-5.7-11.6l0.3-0.4c-1.1-1.5-2.1-2.9-3-4.3c-0.9-1.4-1.8-2.8-2.6-4.1    c-0.9-1.3-1.7-2.5-2.5-3.7c-0.9-1.1-1.7-2.1-2.7-2.9c-1.3-1.4-2.1-2.3-2.6-3.1c-0.5-0.8-0.8-1.4-1.2-1.9c-0.7-1.1-1.4-2.3-4.6-4.7    c0,0-0.4-0.7-0.9-1.3c-0.5-0.6-0.9-1.3-0.9-1.3c-2.5-2.3-2.3-1-5-3.6c0.5-0.2-3.5-3.2-1.5-2.1c-3.2-2.9-6.9-5.1-11-7.3    c-4.1-2.2-8.6-4.3-13.7-6.8c-1.3-0.1-3.2-0.7-5.1-1.2c-1.9-0.6-3.7-1-4.6-1c-0.1-0.2-2.8-1-4.7-1.4c-1.9-0.5-3.1-0.8,0.1-0.6    c0.5,0.1,1.5,0.3,1.4,0.4l0.9-0.3c-3-1.2-6-1.6-8.9-1.8c-2.9-0.2-5.8-0.2-9-0.4c1.9,0.2,4.4,0.4,2.7,0.6c0,0-1.5-0.1-2.9-0.2    c-1.5-0.1-2.9-0.1-2.9-0.1l1.2-0.4c0,0-0.5,0-1.4-0.1c-0.8,0-1.9-0.1-3-0.1c-1.1,0-2.2,0-3,0c-0.4,0-0.8,0-1,0c-0.2,0-0.4,0-0.4,0    s0.3,0.1,0.6,0.2c0.3,0.1,0.6,0.2,0.6,0.2c-2.1,0-3.6-0.1-5.2-0.2c-1.5,0-3.1,0.2-5.5,0.9c-2.1,0.7,4.1,0.1-0.3,0.9    c-1.4,0.2-3,0.4-4.7,0.6c-1.7,0.3-3.5,0.6-5.4,1c-3.7,0.9-7.5,2-11,3.3c0.8,0.3-1,1-2.8,1.9l-0.4-0.4c-6.7,4-3.1,0.2-9.7,4.4    c0,0,0.1-0.2,0.2-0.3c0.1-0.2,0.2-0.3,0.2-0.3s-0.3,0.5-0.6,1c-0.3,0.5-0.6,1-0.6,1c-1.4,1.1-2.3,1.7-3,2.1    c-0.7,0.4-1.1,0.6-1.6,0.8c-0.5,0.2-1,0.4-1.7,0.9c-0.7,0.5-1.7,1.3-3,2.8c2.4-1.9,1.8,0-1.3,2.1l0.5-0.9c-1.6,1.3-1.9,2-3.1,2.8    c0.8-1,0-1-2.2,1.1l1.2-1.8c0,0-0.2,0.3-0.6,0.7c-0.4,0.4-0.8,1-1.3,1.5c-0.9,1.1-1.8,2.3-1.8,2.3c-0.9,0.6-1.8,1.5-2.8,2.5    c-0.9,0.9-1.9,1.9-2.7,2.9c-1.7,1.9-3.2,3.6-4,4.1c0,0-0.4,0.5-1,1.2c-0.6,0.7-1.4,1.7-2.2,2.8c-0.8,1.1-1.6,2.3-2.2,3.3    c-0.7,1-1.1,2-1.2,2.5c0.7-1.9-2.3,2.5-2,0.9c-0.5,1.2-1.5,3.4-2.6,5.7c-1.1,2.2-2.3,4.5-3.2,5.7l0.2-0.5    c-2.6,4.8-4.2,9.2-5.5,13.5c-1.3,4.3-2.3,8.5-3.8,13.2c0.6-0.3-0.7,4.6,0.3,3.5c-0.6,4.9-1.5,9.4-2.1,13.1c-0.3,1.9-0.4,3.5-0.4,5    c0,1.4,0.3,2.6,0.8,3.5c0,4.5-0.6,5.3-0.7,7.7l-0.1-1.1c0.4,8.5,0.8,10.9,1.6,17.2c0.3,1.5,0.8,2.4,1.2,3.5c0.5,1.1,1,2.6,1.4,5.4    c-0.4-0.8-0.4-0.7-0.4-0.1c0.1,0.6,0.4,1.7,0.6,2.7c-0.4-1.3-0.6-1.7-0.3,1.1c0.2,0.3,0.4,0.9,0.6,1.4c0,0,0,0.1-0.1,0.1    c1.1,3.3,1.1,2.7,0.7,1.1c0.1,0.1,0.1-0.1,0.1-0.6c0.3,1.8,0.9,4.3,1.6,6.3c0.7,2,1.2,3.7,0.9,4c2,4.9,4,9,6.2,12.7    c2.1,3.7,4.5,7.1,7,10.7c0.2,1-1.2-0.5-2.7-2.6c0,0,0.9,1.3,1.7,2.6c0.4,0.7,0.9,1.3,1.2,1.8c0.3,0.5,0.6,0.8,0.6,0.8    c-0.2,0.1-0.8-0.6-1.5-1.5c-0.6-0.9-1.3-2.1-1.9-2.9c0.8,1.7,1.8,3.3,3,4.9c0.6,0.8,1.2,1.6,1.8,2.3c0.6,0.8,1.3,1.5,2,2.2    c0.7,0.7,1.3,1.5,2,2.3c0.7,0.7,1.4,1.5,2.1,2.3c1.4,1.6,2.9,3.1,4.2,4.8c0,0,0.4,0.2,0.8,0.5c0.4,0.2,0.8,0.5,0.8,0.5l0.3,0.4    c0.1-0.2,1.8,0.9,2.8,1.7c0.6,1.2-0.8,0.8,2.5,3.5c1.1,1.3,3.2,2.7,5.3,4.1c2.2,1.3,4.5,2.7,6.5,3.7c-2-1.3-1.2-1.1-0.2-0.7    c1.8,1.1,2.7,2.2,4.2,2.8l-0.1,0.7c-0.2-0.5,1.1,0.1,2.6,0.7c1.5,0.6,3.2,1.3,3.6,1.4c0.9,0.9-3.2-1.1-3.8-1c1.9,1,3.2,1.5,4,1.9    c0.9,0.4,1.4,0.6,1.9,0.8c0.5,0.2,1,0.4,1.9,0.8c0.9,0.4,2.1,0.9,4.2,1.6c4.5,1.1-0.6-0.8,1.7-0.6l1.4,0.5l1.5,0.4    c1,0.2,2,0.5,3,0.7c1,0.2,2,0.4,3.1,0.7c1,0.3,2.1,0.6,3.2,0.9c0,0-0.3-0.2-0.7-0.4c-0.3-0.2-0.7-0.4-0.7-0.4    c1.9,0.3,3.5,0.5,5.1,0.7c1.5,0.2,3,0.3,4.3,0.5c1.3,0.2,2.6,0.3,3.8,0.5c0.6,0.1,1.2,0.2,1.9,0.3c0.6,0.1,1.2,0.2,1.9,0.2    c7-0.3,12.4-1.4,16.4-2.5c4-1.1,6.6-2.1,8.3-3c3.3-1.7,2.9-2.2,0.9-2.2c-2,0-5.5,0.5-8.6,0.7c-3.1,0.3-5.7,0.4-5.7,0.4    c-2.6,0.1-5,0.1-7.3,0c-1.2,0-2.3-0.1-3.4-0.1c-1.1-0.1-2.2-0.1-3.2-0.2c-1.1-0.1-2.1-0.2-3.1-0.2c-1-0.1-2.1-0.2-3.1-0.4    c-2.1-0.2-4.1-0.6-6.1-0.9C562.9,603.7,554.1,601.5,543.2,595.4z"
         id="path17" /></g><g
       id="g21"><path
         d="M540.8,437.2l-1.1,0.8C539.9,438,540.2,437.9,540.8,437.2z"
         id="path18" /><path
         d="M662.9,497c0-0.1,0-0.2-0.1-0.3C662.9,496.9,662.9,497,662.9,497z"
         id="path19" /><path
         d="M510.3,479C510.3,479,510.3,479,510.3,479c0-0.2,0-0.3,0-0.4L510.3,479z"
         id="path20" /><path
         d="M549.1,421.5c-4,2.5-7.1,4.7-9.8,6.9c-1.4,1-2.5,2.1-3.7,3.1c-1.1,1.1-2.2,2.1-3.3,3.1    c-2.1,2.2-4.2,4.4-6.3,7.3c-0.5,0.7-1.1,1.4-1.6,2.2c-0.5,0.8-1,1.6-1.6,2.5c-0.6,0.9-1.1,1.8-1.6,2.7c-0.5,1-1.1,2-1.7,3.1    c-2.3,4.1-4.1,8.5-5.7,13c-0.8,2.2-1.4,4.5-2,6.8c-0.5,2.3-1.1,4.5-1.5,6.7c0,2.2-0.5,5.1-0.9,8.1c-0.2,1.5-0.4,3-0.5,4.5    c-0.1,1.5-0.1,2.9,0,4.1c0,0-0.2,0.5-0.3,1c-0.1,0.5-0.3,1-0.3,1c0.2,1.7,0.3,3.8,0.1,5.5l-0.1-0.1c0.2,1.3,0.3,2.7,0.3,3.9    c0.1,1.2,0.2,2.3,0.3,2.9l-0.1-0.1c0,0,0.1,0.8,0.1,1.6c0.1,0.8,0.2,1.6,0.2,1.6l-0.3-0.5c0.8,4.5,1.6,9,2.3,13.1l0.5-0.5    c0.3,2.2,0.7,4,1.2,5.5c0.5,1.6,1,3,1.5,4.3c0.5,1.3,1,2.7,1.6,4.1c0.6,1.4,1.1,3,1.8,4.9l-0.2,0c2.7,4.3,4.4,7.8,6.3,11.3    c0.5,0.9,1,1.8,1.5,2.6c0.5,0.9,1.1,1.7,1.7,2.6c0.6,0.9,1.3,1.8,2.1,2.6c0.8,0.9,1.6,1.8,2.6,2.6c-1-0.9,0.1,0.6,0,0.6    c0.8,0.9,1.6,1.8,2.5,2.5c0.8,0.8,1.6,1.6,2.4,2.1c1.5,1.2,2.6,1.8,3.1,1.4c2.6,2.2,1.9,2.1,2,2.7c0.3-0.4,2.8,1.3,5,2.9    c0,0-0.3-0.1-0.6-0.3c-0.3-0.1-0.6-0.3-0.6-0.3s0.4,0.3,1,0.7c0.6,0.4,1.4,0.9,2.2,1.5c0.8,0.5,1.7,1,2.3,1.4c0.6,0.4,1,0.6,1,0.6    l-0.8-1.6c1.6,1.2,1.7,1.6,1.8,1.9c0.1,0.3,0.2,0.6,2,1.4l0.3-0.7c2.4,1.4,4.3,2.6,6.2,3.8c0.9,0.6,1.9,1.2,3,1.8    c0.5,0.3,1.1,0.6,1.6,0.9c0.6,0.3,1.2,0.5,1.8,0.8c5.5,1.8,11.4,2.8,17.3,3c5.9,0.2,11.9-0.4,17.6-1.6    c11.5-2.5,21.9-7.7,30.8-13.5l1.1-0.1c0.4,0.2,1.4-0.9,2.4-2.2c1-1.2,1.9-2.5,2.5-2.5l1.5-2c0.6-0.4,1.7-1.3,1-0.3    c1.6-1.6,1.6-1.7,2.5-3.1l2-1.5c3.1-3.3,5.5-6.8,7.6-10.4c2.1-3.7,4.1-7.5,6.1-11.7c1.5-2.4,2.9-5.6,4.2-9.2    c1.3-3.6,2.4-7.6,3.2-11.6c1.6-8.2,1.9-16.6,1.4-22.7c-0.7-8.6-1.5-17.8-3.7-26.9c-2.2-9.1-5.8-18.1-11.2-25.2    c-0.2-0.6-1.3-1.7-1.3-1.6c0,0-0.1-0.2-0.4-0.6c-0.3-0.4-0.6-0.9-1.1-1.5c-0.8-1.3-2.1-2.9-3.3-4.5c-2.5-3.2-5.4-6.1-5.4-6.1    s-0.2-0.2-0.6-0.6c-0.4-0.4-1-1-1.7-1.7c-0.8-0.7-1.6-1.6-2.7-2.4c-0.5-0.4-1.1-0.9-1.7-1.4c-0.6-0.5-1.2-0.9-1.9-1.4    c-5.1-4-12.3-7.9-18.1-9.7c-0.7-0.2-1.4-0.5-2.1-0.7c-0.7-0.2-1.3-0.3-1.9-0.5c-1.2-0.3-2.3-0.5-3.1-0.5c-1.7-0.2-2.5,0-2.2,0.6    c0.2,0.3,0.7,0.7,1.5,1.2c0.4,0.3,0.9,0.6,1.5,0.9c0.6,0.4,1.2,0.8,2,1.2c3,1.8,7.4,4.3,12.7,8.7l-0.4,0c3.4,2.3,5.9,4.5,8.2,6.4    c2.3,1.9,4.4,3.6,6.7,5.3c-0.1,0.7,1,2,2.2,3.3c0.6,0.7,1.2,1.4,1.8,2c0.5,0.6,1,1.2,1.2,1.7l-0.2-0.1c1.9,1.7,3.2,4,4.4,6.2    c0.6,1.1,1.2,2.3,1.8,3.4c0.6,1.1,1.2,2.2,2,3.1c-0.2-0.1-0.5-0.1-1-1c1.8,3,4,7.3,3.5,7.8c1.7,3.8,3.3,8.6,4.6,13    c1.2,4.5,2.1,8.6,3,11.3l-0.2-0.3c0.6,1.5,0.7,2.5,0.8,3.5c0.1,1,0.1,2.1,0.4,3.8c-0.1,0.2-0.1,0.4-0.1,0.4    c0.4,1.7,0.5,4.1,0.4,6.5c0,1.2-0.1,2.4-0.2,3.4c0,1-0.1,2-0.1,2.6l-0.5,0.1c0,0,0,0.4-0.1,1c0,0.6-0.1,1.5-0.2,2.3    c-0.1,0.8-0.2,1.7-0.3,2.3c-0.1,0.6-0.2,1-0.2,1s0.1-0.6,0.3-1.2c0.1-0.6,0.2-1.2,0.2-1.2c0.6,0.5,0.2,1.8-0.4,3.5    c-0.3,0.9-0.6,1.8-0.9,2.9c-0.3,1.1-0.5,2.2-0.6,3.4c-0.3,1.1-0.5,2.2-0.6,3.4c-0.1,1.2-0.2,2.4-0.2,3.6c0,0.6-0.1,1.2-0.2,1.8    c-0.1,0.6-0.2,1.2-0.3,1.8c-0.2,1.2-0.6,2.3-1.2,3.4c-0.3,2.3-0.1-2.2-1,1.1c-0.6-0.2,0.2-1.6-0.6-1c-1,3.2-2.8,4.7-4.4,8.5    l-0.5-0.1c-0.9,2.6-2.4,4.6-3.8,6.4c-1.4,1.8-2.8,3.4-3.5,5c-3.1,4.5-3.4,1.9-6.5,6.7c0,0-0.5,0.3-1,0.5c-0.5,0.3-1,0.5-1,0.5    c-0.9,0.8-1.1,1.2-1.3,1.7c-0.2,0.5-0.5,0.9-1.6,1.6c-0.1-0.2-0.8,0.3-1.3,0.6c-0.6,0.4-1,0.6-0.5,0c-2.5,1.6-4.8,3.6-7.5,5.5    c-2.7,1.8-5.8,3.6-9.6,4.6c-1.3,1.4-5.2,2.3-6.2,3.2c-0.2-0.2-2.1,0.4-3.5,0.7c-1.4,0.2-2.2,0.3-0.1-0.6c0.4-0.1,1-0.3,1-0.2    l0.4-0.6c-2.3,0.1-4.2,0.6-6.1,1.2c-1.9,0.5-3.9,1.1-6.1,1.2c1.3,0.1,3.1-0.1,1.9,0.3c0,0-1,0.1-2.1,0.1c-1,0-2.1,0.1-2.1,0.1    l0.8-0.4c0,0-1.5,0-3.1-0.1c-1.5-0.1-3-0.2-3-0.2l0.8,0.5c-3-0.4-3.9-1.4-7.3-1.1c-1.6,0.2,2.7,1.1-0.5,0.8    c-1-0.3-2.1-0.6-3.2-0.9c-1.2-0.4-2.4-0.8-3.6-1.2c-2.5-0.9-5.1-1.9-7.4-3c0.2,0.7-1,0.2-2.4-0.3l0.1-0.5    c-2.6-0.9-2.9-1.3-3.2-1.8c-0.3-0.5-0.6-1-3-2.1l0.6-0.1l-1.7,0.2c-2.4-0.8-2.7-1.5-3.2-2.1c-0.5-0.6-1-1.1-3.6-2.3    c1.8,1.2,0.1,1.5-1.8-0.3l0.8,0.1c-1.2-0.9-1.7-1-2.4-1.7c0.9,0.4,0.8-0.2-0.9-1.6c0,0,0.4,0.1,0.7,0.3c0.4,0.1,0.7,0.2,0.7,0.2    s-0.2-0.1-0.6-0.3c-0.3-0.2-0.8-0.5-1.2-0.7c-0.9-0.5-1.8-1.1-1.8-1.1c-1.9-2.6-5.7-5.9-5.9-7.4c0,0-1-1.3-2.1-2.9    c-1.1-1.5-2.3-3.2-3.1-3.7c1.1,0.9-0.7-2.3,0.3-1.7c-0.6-0.6-1.8-2-2.7-3.5c-0.9-1.5-1.7-3.2-1.9-4.2l0.2,0.3    c-0.3-0.9-0.7-1.8-1-2.6c-0.3-0.8-0.6-1.6-1-2.4c-0.7-1.5-1.3-3.1-1.9-4.5c-0.6-1.5-1.1-3-1.6-4.5c-0.4-1.6-0.8-3.2-1-4.9    c-0.5,0.4-0.9-3.2-1.5-2.2c-0.6-1.7-0.8-3.5-1-5.1c-0.2-1.6-0.1-3.1-0.2-4.5c-0.1-1.4,0-2.6-0.3-3.6c-0.2-1-0.5-1.9-1.1-2.5    c-0.2-3.3,0.4-3.9,0.6-5.7l0.1,0.8c0-1.5,0-2.8,0-3.9c0.1-1.1,0.1-2.1,0.1-3c0.1-1.8,0.3-3.4,0.6-5.7c0-1.2-0.2-1.8-0.3-2.8    c-0.1-0.9-0.2-2.1,0.4-4.1c0.1,1.4,0.4-0.3,0.7-1.8c-0.1,1-0.1,1.3,0.6-0.6c-0.1-0.3,0-0.7,0-1.2c0,0,0.1-0.1,0.1,0    c0.5-2.5,0.2-2.1-0.1-1c0-0.1-0.2,0-0.4,0.3c0.3-0.6,0.6-1.4,0.8-2.2c0.3-0.8,0.5-1.6,0.7-2.4c0.4-1.5,0.9-2.7,1.3-2.7    c0.3-0.9,0.6-1.8,0.8-2.7c0.3-0.9,0.6-1.7,0.9-2.5c0.5-1.6,1.1-3.1,1.7-4.6c0.5-1.5,1.2-2.9,1.8-4.3c0.7-1.4,1.4-2.8,2.2-4.2    c0.7-0.4,0.2,1-0.6,2.7c0,0,0.5-1,1.1-2c0.6-1,1.2-1.9,1.2-1.9c0.4,0.3-1.2,2.3-1.8,3.6c1.7-2.1,3.1-4.5,4.6-7    c0.7-1.3,1.6-2.4,2.5-3.7c1-1.2,2-2.3,3.2-3.3l0.6-1.2l0.3-0.2c-0.2-0.1,0.6-1.4,1.3-2.1c1-0.3,0.7,0.8,3-1.3    c2.1-1.3,5.3-4.6,7.9-6.6c-1.5,0.9-1.2,0.4-0.6-0.2c1.3-0.9,2.3-0.9,3.3-1.8l0.4,0.5c-0.9-0.2,3.3-2.6,3.7-3c0.5,0,0,0.4-0.6,0.8    c-0.6,0.4-1.4,1-1.5,1.2c1.4-0.8,2.2-1.2,2.8-1.5c0.6-0.3,1-0.5,1.3-0.7c0.7-0.4,1.4-0.7,4.3-1.9c3-1.6-0.8-0.3,0.5-1.4    c0.7-0.3,1.4-0.6,2.1-0.9c0.7-0.3,1.4-0.5,2.1-0.8c1.4-0.6,3-0.9,4.7-1.2l-1.2-0.3c5.5-1.7,9-2,12.8-1.6c5.3-0.8,9.5-0.9,12.7-1    c3.2,0,5.5,0.1,7.1,0c3,0,2.9-0.7,1.6-1.6c-1.5-0.9-4.4-1.9-7-2.6c-2.6-0.6-4.9-0.9-4.9-0.9c-4.5-0.7-8.6-0.8-12.4-0.5    c-3.8,0.3-7.3,1-10.9,1.9c-3.6,1-7.1,2.3-10.9,4C557.6,416.3,553.5,418.6,549.1,421.5z"
         id="path21" /></g><g
       id="g25"><path
         d="M566.2,532.7l-0.2-0.7C565.9,532.1,565.9,532.3,566.2,532.7z"
         id="path22" /><path
         d="M633.4,511.7c0,0.1,0,0.1,0,0.2C633.4,511.8,633.4,511.8,633.4,511.7z"
         id="path23" /><path
         d="M564.9,508.3C564.9,508.3,564.9,508.3,564.9,508.3c0,0.1,0.1,0.1,0.1,0.2L564.9,508.3z"
         id="path24" /><path
         d="M576.4,533.2c-2.6-2.6-3.8-4.6-4.9-6.7c-0.5-1-1.1-2-1.7-3.3c-0.3-0.6-0.7-1.2-1-1.9    c-0.3-0.7-0.7-1.5-1.1-2.3c-1.2-3.4-2.4-7.1-2.8-10.7c-1-1.6-0.3-4.7-0.8-6.8l0.5-0.8c-0.2-0.7-0.3-1.6,0.1-2.2l0.1,0.1    c-0.2-1.1,0.1-2.2,0.1-2.8l0.1,0.1l0.2-1.3l0.1,0.3c0-0.9,0.1-1.9,0.3-2.7c0.2-0.9,0.6-1.7,0.9-2.5l-0.6-0.1    c0.2-0.4,0.4-0.8,0.6-1.1c0.2-0.3,0.3-0.7,0.5-1c0.3-0.6,0.4-1.2,0.6-1.8c0.5-1.1,0.9-2.2,2-3.3l0.1,0.1c0.2-1,0.6-1.9,1.1-2.6    c0.5-0.7,1.1-1.2,1.7-1.8c0.3-0.3,0.6-0.5,0.9-0.8c0.3-0.3,0.6-0.5,0.9-0.8c0.6-0.6,1.1-1.4,1.7-2.3c-0.3,0.5,0.4,0.1,0.4,0.2    c0.7-0.6,1.3-1.4,1.9-1.9c0.5-0.6,0.8-1.1,0.5-1.6c1.2-0.8,1.1-0.4,1.5-0.1c-0.3-0.4,0.7-1.2,1.7-1.7l-0.4,0.4    c0,0,0.7-0.4,1.4-0.8c0.7-0.3,1.4-0.7,1.4-0.7l-0.9-0.6c1.7-0.4,0.8,0.9,2.2,0.1l-0.3-0.7c1.2-0.3,2.2-0.2,3.1-0.1    c1,0.1,1.9,0.5,3,0.6c0.5-0.1,1.1-0.1,1.7-0.1c0.6,0,1.1-0.1,1.7-0.1c0.6-0.1,1.1,0,1.7,0c0.6,0,1.2,0,1.7,0    c2.2,0.2,4.6,0.5,6.8,1.2c4.4,1.3,8.5,4,11.1,7.6l-0.2,0.7c-0.2,0.3,0.4,0.6,1,0.8c0.6,0.2,1.3,0.5,1.1,0.9c0,0,0.2,0.1,0.5,0.3    c0.2,0.1,0.5,0.3,0.5,0.3c0,0.3,0.3,0.9-0.2,0.6c0.5,0.8,0.6,0.7,1.2,1.1c0,0,0,0.3,0.1,0.6c0,0.3,0.1,0.6,0.1,0.6    c0.4,0.8,0.8,1.6,1.3,2.3c0.5,0.7,0.9,1.5,1.4,2.2c0.2,0.4,0.5,0.7,0.7,1.1c0.2,0.4,0.4,0.8,0.6,1.2c0.4,0.8,0.8,1.7,1,2.6    c0.1,1.2,0.4,2.6,0.6,4.1c0.1,0.8,0.3,1.5,0.4,2.4c0.1,0.8,0.3,1.7,0.4,2.5c0.4,3.4,0.8,6.9,0.7,9.5c0.2,3.7-1.3,7.5-3.3,10.9    c-2,3.4-4.4,6.3-6.1,9.5c-0.2,0.1-0.4,0.7-0.4,0.8c0,0-0.3,0.3-0.7,0.8c-0.4,0.5-1,1-1.6,1.6c-0.3,0.3-0.6,0.6-0.9,0.8    c-0.3,0.3-0.6,0.5-0.8,0.6c-0.5,0.4-0.8,0.6-0.8,0.6s-0.4,0.3-1,0.8c-0.7,0.4-1.6,1.1-2.7,1.8c-2.2,1.3-5.1,2.7-7.4,3.6    c-0.6,0.3-1.1,0.4-1.6,0.7c-0.5,0.2-0.9,0.4-1.2,0.6c-0.7,0.4-1,0.9-0.7,1.3c0.3,0.4,1.1,0.9,2.8,1.3c0.9,0.3,1.9,0.3,3.3,0.3    c1.4,0.1,2.9-0.1,4.8-0.4l-0.1,0.2c1.1-0.3,2-0.7,2.8-1.1c0.4-0.2,0.8-0.4,1.2-0.6c0.4-0.2,0.7-0.4,1.1-0.7    c0.7-0.5,1.3-0.9,1.8-1.4c0.5-0.5,1-1.1,1.4-1.8c0.5,0.3,1.3-0.2,2-0.9c0.7-0.7,1.3-1.5,1.8-1.8l0,0.1c0.2-0.3,0.3-0.6,0.6-0.9    c0.2-0.3,0.4-0.5,0.6-0.8c0.5-0.5,1-0.9,1.5-1.4c0.5-0.4,1-0.9,1.4-1.4c0.4-0.5,0.8-1.1,1-1.7c0,0.1,0.2,0.4-0.1,0.8    c0.2-0.4,0.5-0.8,0.8-1.3c0.2-0.4,0.5-0.9,0.7-1.3c0.5-0.8,0.9-1.3,1.2-1.2c1-2,2.2-4.4,3-6.7c0.4-1.1,0.7-2.3,0.9-3.3    c0.2-1,0.3-1.9,0.2-2.7l0.1,0.2c-0.4-1.7,0.3-2,0.3-3.8c0.1-0.1,0.2-0.2,0.2-0.2c-0.2-0.9-0.1-2.1,0.1-3.3    c0.1-1.2,0.2-2.4,0.1-3.1l0.4-0.1c0,0,0-0.2,0-0.5c0-0.3,0-0.8,0-1.2c-0.1-0.9-0.1-1.7-0.1-1.7l0,1.3c-0.6-0.2-0.5-0.8-0.2-1.8    c0.1-0.5,0.2-1,0.2-1.5c0-0.6-0.1-1.2-0.4-1.8c-0.1-1.2-0.8-2.3-1.7-3.3c-0.4-0.5-0.8-1-1.1-1.5c-0.1-0.3-0.3-0.5-0.3-0.8    c-0.1-0.3-0.2-0.6-0.2-0.9c-0.9-0.9,1.2,0.7,0.3-0.8c0.6-0.2,0.6,0.6,1,0.1c-0.4-0.8-0.4-1.5-0.5-2.2c-0.1-0.8-0.3-1.5-0.8-2.4    l0.4-0.3c-0.5-0.5-0.7-1.1-1-1.7c-0.3-0.6-0.5-1.2-0.7-1.7c-0.2-0.6-0.4-1.1-0.6-1.6c-0.3-0.5-0.6-0.9-1-1.1    c-0.9-1.1-0.8-1.7-0.8-2.3c0-0.6-0.2-1.1-1.4-2l-0.1-1.4c-0.7-1.1-1.2-0.2-1.9-1.5c0.4-0.2-0.9-1.6-0.1-1.2    c-0.4-0.7-1-1.3-1.6-1.9c-0.7-0.5-1.3-1.1-2.1-1.6c-0.8-0.5-1.5-1-2.3-1.6c-0.7-0.6-1.6-1.2-2.3-2.1c-1.2,0.1-2.9-1.3-3.8-1    c0-0.2-0.9-0.7-1.6-1c-0.7-0.3-1.1-0.6,0.2-0.5c0.2,0,0.6,0.2,0.5,0.3l0.5-0.3c-1-0.9-2.1-1.2-3.3-1.4c-1.2-0.2-2.4-0.1-3.5-0.5    c0.7,0.3,1.6,0.6,0.9,0.7c0,0-0.5-0.2-1.1-0.3c-0.3-0.1-0.6-0.2-0.8-0.2c-0.2,0-0.4-0.1-0.4-0.1s0.6-0.3,0.6-0.3    c0,0-0.2-0.1-0.5-0.1c-0.3-0.1-0.7-0.2-1.2-0.3c-0.9-0.2-1.7-0.4-1.7-0.4l0.4,0.6c-0.4-0.1-0.8-0.3-1.1-0.4    c-0.3-0.1-0.6-0.2-0.9-0.3c-0.6-0.2-1.2-0.2-2.2,0.1c-0.8,0.4,1.6,0.7-0.2,0.8c-1.1-0.1-2.5-0.3-4-0.4c-1.5,0-3.1,0.1-4.5,0.4    c0.4,0.5-0.4,0.7-1.1,1l-0.2-0.5c-2.7,1.5-1.5-0.8-4.1,0.9l0.1-0.4l-0.4,1.3c-1.1,1-1.5,0.9-1.9,0.9c-0.4,0-0.9,0.1-1.9,1.4    c1-0.6,1,0.7-0.3,1.2l0.1-0.6c-0.7,0.5-0.7,0.8-1.2,1c0.2-0.5-0.2-0.7-1.1,0l0.3-0.9l-1.3,2c-0.9,0.3-1.7,1.1-2.4,1.7    c-0.4,0.3-0.7,0.6-1,0.8c-0.3,0.2-0.6,0.4-0.8,0.4c0,0-0.7,0.6-1.4,1.4c-0.4,0.4-0.7,0.8-1,1.2c-0.2,0.4-0.4,0.8-0.4,1.1    c0.1-0.9-1.3,0.6-1.4-0.2c-0.1,0.5-0.5,1.4-1,2.3c-0.5,0.9-1,1.7-1.6,2l0.1-0.2c-0.3,0.4-0.7,0.8-1,1.2c-0.3,0.4-0.5,0.8-0.7,1.3    c-0.4,0.8-0.7,1.7-1.1,2.5c-0.3,0.8-0.5,1.6-0.9,2.5c-0.3,0.8-0.8,1.6-1.2,2.4c0.6,0-0.3,1.8,0.5,1.6c-0.1,1-0.4,1.8-0.7,2.6    c-0.3,0.8-0.6,1.5-0.8,2.2c-0.2,0.7-0.4,1.3-0.4,1.9c0,0.6,0.3,1.1,0.8,1.5c-0.1,1.7-0.8,1.9-1,2.8l-0.1-0.4c-0.1,1.6,0,2.6,0,3.6    c0,0.5,0,0.9,0,1.4c0,0.5,0,1,0,1.6c0.3,1.2,1.3,1.3,1.2,3.4c-0.5-0.6-0.3,0.2-0.2,1c-0.1-0.5-0.3-0.6-0.5,0.4    c0.1,0.1,0.3,0.3,0.4,0.5c0,0-0.1,0.1-0.1,0c0.3,1.3,0.4,1,0.4,0.4c0.1,0,0.1,0,0.2-0.2c-0.2,0.7-0.1,1.7,0.1,2.4    c0.2,0.8,0.3,1.4-0.1,1.6c0.3,1,0.5,1.9,0.9,2.7c0.4,0.8,0.7,1.6,1.1,2.3c0.2,0.4,0.4,0.7,0.5,1.1l0.6,1c0.4,0.7,0.8,1.4,1.2,2.1    c-0.2,0.5-0.8-0.1-1.3-0.9c0,0,0.3,0.5,0.5,1.1c0.1,0.3,0.3,0.5,0.4,0.7c0.1,0.2,0.2,0.3,0.2,0.3c-0.5,0.2-0.8-1.1-1.2-1.7    c0.1,0.7,0.3,1.4,0.7,2.1c0.4,0.6,0.8,1.2,1.3,1.9c0.9,1.3,2,2.4,2.5,4l0.7,0.3l0.1,0.2c0.2-0.1,0.9,0.2,1.2,0.6    c-0.1,0.6-0.9,0.6,0.2,1.9c0.1,0.3,0.3,0.7,0.6,1c0.3,0.3,0.7,0.6,1.1,0.9c0.8,0.6,1.6,1.2,2.4,1.6c-0.6-0.7-0.2-0.7,0.2-0.5    c0.6,0.5,0.7,1.2,1.3,1.4l-0.3,0.5c0.1-0.7,2,0.9,2.5,0.8c0.1,0.6-1.3-0.4-1.6-0.3c0.6,0.5,1.1,0.8,1.4,1c0.3,0.2,0.5,0.3,0.6,0.4    c0.4,0.2,0.7,0.5,2.1,1.3c1.8,0.4,0-0.7,1-0.7c0.7,0.3,1.4,0.5,2.1,0.8c0.7,0.3,1.5,0.5,2.2,1.1l-0.3-0.7c1.4,0.3,2.4,0.7,3.4,0.9    c0.9,0.3,1.7,0.7,2.6,1.2c1.3-0.1,2.5-0.1,3.5-0.3c1-0.2,1.9-0.4,2.6-0.6c0.7-0.2,1.3-0.5,1.8-0.7c0.5-0.2,0.9-0.5,1.2-0.7    c1.2-0.9,1.1-1.5,0.3-1.9c-0.7-0.5-1.9-0.7-2.8-1c-1-0.3-1.8-0.4-1.8-0.4c-3.2-0.9-5.6-1.4-8.1-2.2c-1.3-0.3-2.6-0.9-4.1-1.4    c-0.7-0.4-1.4-0.8-2.2-1.2c-0.4-0.2-0.8-0.5-1.2-0.8C577.3,533.8,576.9,533.5,576.4,533.2z"
         id="path25" /></g><g
       id="g26"><path
         d="M452.3,685.9c-5.3,0-10.1-3.2-14.3-9.5c-1.5-2.3-0.9-5.4,1.4-6.9c2.3-1.5,5.4-0.9,6.9,1.4    c1.3,2,3.8,5.2,6.2,5.1c2.6-0.2,5.6-3.9,7.2-6.6l1.5-285.2c0-0.1,0-0.2,0-0.4c1.5-19.2-1.1-32.2-7.5-36.6    c-5.3-3.7-12.4-0.5-12.4-0.5c-2.5,1.1-5.5,0.1-6.6-2.4c-1.2-2.5-0.1-5.4,2.4-6.6c0.5-0.2,12.2-5.7,22.3,1.2    c9.7,6.7,13.7,22,11.8,45.5l-1.5,286.3c0,0.8-0.2,1.5-0.5,2.2c-0.6,1.3-6.5,12.4-16,13C452.8,685.9,452.5,685.9,452.3,685.9z"
         id="path26" /></g></g><path
     style="fill:#2c9448;fill-rule:evenodd;stroke:#000000;stroke-width:0;stroke-opacity:0.988166;paint-order:fill markers stroke"
     d="m 443.11155,678.90594 c -3.83984,-4.08733 -4.71283,-6.53039 -2.76392,-7.73488 1.56676,-0.96832 4.39232,0.31669 6.27903,2.85554 2.72905,3.67238 4.35293,4.05152 7.94278,1.85456 4.12571,-2.5249 4.64303,-8.93914 6.0368,-74.8503 2.86346,-135.41252 2.43881,-241.16494 -0.99578,-247.98695 -2.4816,-4.92909 -5.35244,-6.39846 -13.68578,-7.00473 -11.81171,-0.85934 -13.7196,-4.38701 -4.30791,-7.96533 8.26884,-3.14381 17.25949,0.44574 22.94835,9.16221 4.22971,6.48075 4.46217,16.37767 3.91438,166.65328 l -0.58237,159.76335 -6.41804,5.61378 c -8.14075,7.12061 -11.39945,7.05666 -18.36754,-0.36053 z"
     id="path28" /><path
     style="fill:#2c9448;fill-rule:evenodd;stroke:#000000;stroke-width:0;stroke-opacity:0.988166;paint-order:fill markers stroke"
     d="m 574.25962,612.19211 c -13.94003,-1.94892 -21.23801,-3.84818 -27.02671,-7.03358 -3.08643,-1.69839 -7.98169,-4.33418 -10.87836,-5.8573 -2.89666,-1.52312 -7.42196,-4.80342 -10.05623,-7.28956 -7.85879,-7.41691 -16.36827,-16.47115 -17.38658,-18.49965 -2.75172,-5.48152 -4.06487,-7.82074 -8.21205,-14.62879 -4.52679,-7.43122 -9.71672,-21.6261 -10.43147,-28.53092 -0.18958,-1.83141 -0.96191,-5.00704 -1.7163,-7.05696 -1.75108,-4.75829 -2.49861,-31.31674 -1.0978,-39.00349 0.53132,-2.91562 0.96145,-6.69045 0.95583,-8.38853 -0.0313,-9.46795 10.19433,-33.71083 19.34807,-45.8702 5.98372,-7.94848 19.57164,-20.88916 29.9874,-28.55901 7.68795,-5.66117 27.91024,-12.9006 36.03595,-12.9006 0.99079,0 1.80143,-0.43237 1.80143,-0.96082 0,-1.2655 30.77615,-0.60379 31.61301,0.6797 0.32139,0.49292 4.15693,1.80234 8.52342,2.90984 11.80781,2.99487 31.62099,13.28658 33.94742,17.63356 0.49193,0.91917 1.6012,1.89555 2.46506,2.16972 0.86385,0.27418 3.94065,3.31272 6.83736,6.75232 2.89669,3.4396 6.00525,7.11246 6.90791,8.1619 5.72091,6.65128 15.19667,23.5424 14.38852,25.64842 -0.23515,0.61278 1.49255,4.9537 3.83933,9.6465 2.34677,4.69279 4.71149,10.81066 5.25495,13.59527 0.54345,2.78462 1.36489,6.97875 1.82543,9.3203 1.31673,6.69481 1.02243,33.71047 -0.45927,42.15888 -3.68457,21.00888 -14.187,40.46937 -31.78287,58.89211 -4.36649,4.57169 -10.80223,10.1937 -14.30165,12.49337 -7.20661,4.73588 -19.02677,9.3336 -25.99553,10.11155 l -4.6909,0.52367 9.31656,-4.72825 c 12.91113,-6.55253 22.02996,-13.00639 30.81987,-21.81278 8.65487,-8.67112 12.57401,-14.27709 19.45221,-27.82463 9.68655,-19.07895 13.34945,-32.53003 13.32452,-48.93089 -0.0312,-20.55796 -6.51616,-45.99174 -15.66296,-61.42996 -5.72346,-9.66021 -22.63924,-29.42832 -25.18212,-29.42832 -0.33484,0 -2.68664,-1.77362 -5.22623,-3.94138 -6.11565,-5.22022 -16.28668,-10.42093 -26.00325,-13.29613 -9.61188,-2.84422 -28.09947,-3.93201 -37.95191,-2.23304 -11.57068,1.99526 -27.27437,6.22788 -29.66556,7.99577 -1.31783,0.97431 -2.98783,1.77147 -3.71112,1.77147 -0.72328,0 -1.6325,0.52346 -2.02048,1.16325 -0.38799,0.63979 -2.50911,2.38884 -4.7136,3.88677 -10.36039,7.03979 -27.24563,27.67007 -32.98713,40.30346 -3.03424,6.67645 -7.57402,20.16883 -8.03922,23.89288 -0.12121,0.97033 -0.66853,4.98844 -1.21626,8.92913 -1.14987,8.27284 -1.4175,25.70698 -0.51291,33.41259 1.35217,11.51819 6.10519,26.7804 11.95003,38.37219 6.83879,13.56304 20.30058,29.67876 31.42608,37.62159 15.94138,11.38103 38.66137,17.00545 63.81275,15.79707 l 10.14437,-0.48738 -3.78628,1.81182 c -4.58459,2.19381 -15.57809,4.39807 -21.21119,4.25296 -2.26186,-0.0583 -7.68505,-0.60542 -12.05154,-1.21589 z"
     id="path29" /><path
     style="fill:#2c9448;fill-rule:evenodd;stroke:#000000;stroke-width:0;stroke-opacity:0.988166;paint-order:fill markers stroke"
     d="m 575.71863,591.0706 c -4.5888,-0.87399 -8.50908,-2.41314 -13.43206,-5.27359 -3.82358,-2.22165 -7.30945,-4.03937 -7.74635,-4.03937 -0.43691,0 -1.2965,-0.60502 -1.91021,-1.3445 -0.61371,-0.73947 -1.3106,-1.14972 -1.54866,-0.91166 -0.43243,0.43243 -8.10152,-4.59234 -9.11264,-5.9706 -0.29404,-0.40081 -2.05136,-1.64413 -3.90515,-2.76294 -4.56243,-2.75353 -10.7399,-10.44201 -15.7786,-19.63803 -12.98869,-23.70534 -16.40938,-48.42711 -10.53099,-76.1087 4.43335,-20.87678 16.91711,-39.16052 34.99362,-51.25169 16.37618,-10.95385 26.14972,-14.45434 40.30276,-14.43483 9.00467,0.0124 19.40663,2.06256 19.40663,3.82491 0,0.39576 -6.7227,0.98386 -14.93934,1.30688 -15.71654,0.61786 -23.09174,2.27682 -26.77516,6.02273 -0.86794,0.88267 -2.10216,1.60485 -2.74271,1.60485 -2.25169,0 -10.72233,5.15695 -15.06662,9.17261 -2.41525,2.23254 -4.79697,4.06633 -5.29271,4.07508 -1.03414,0.0182 -5.00326,4.69521 -9.15699,10.79005 -1.57058,2.30454 -3.22329,4.19007 -3.67269,4.19007 -1.12704,0 -2.91232,3.6517 -6.52564,13.34779 -4.45748,11.96136 -5.06343,14.88328 -5.82989,28.11182 -0.75874,13.09545 0.25607,26.77792 2.27283,30.64414 0.6987,1.33944 1.27281,2.93577 1.2758,3.54742 0.0101,2.06801 6.49459,18.27239 8.55008,21.36618 1.12243,1.68942 2.04078,3.39342 2.04078,3.78668 0,2.81426 16.33703,20.92843 18.87518,20.92843 0.65865,0 1.69171,0.59543 2.29568,1.32318 0.60398,0.72774 1.76525,1.32317 2.58059,1.32317 0.81535,0 3.04923,1.11483 4.96418,2.47739 1.91495,1.36256 6.65735,3.55091 10.53868,4.86301 12.6406,4.27319 33.50607,3.34738 44.92093,-1.99317 12.7494,-5.96491 25.79614,-16.37866 32.81067,-26.18905 2.12544,-2.97261 3.86443,-5.85052 3.86443,-6.39536 0,-0.54485 0.3488,-0.99063 0.7751,-0.99063 0.4263,0 1.26387,-1.18001 1.86127,-2.62225 0.59739,-1.44224 2.00953,-3.61857 3.13809,-4.8363 1.28531,-1.38688 2.24596,-3.78521 2.57131,-6.41947 0.28568,-2.31299 1.20417,-7.57953 2.04112,-11.70344 0.97482,-4.80324 1.51144,-11.4609 1.49313,-18.5245 -0.0244,-9.39488 -0.39892,-12.33179 -2.53127,-19.84769 -7.01514,-24.72627 -15.02587,-38.63458 -28.23299,-49.01838 -3.35143,-2.63499 -6.69084,-5.37998 -7.42091,-6.09997 -0.73006,-0.71999 -5.12645,-3.79638 -9.76976,-6.83642 -4.6433,-3.04004 -8.02491,-5.52735 -7.5147,-5.52735 2.17261,0 10.90445,3.04373 15.75554,5.49204 16.42595,8.29005 33.17428,27.87619 39.05785,45.67577 5.10858,15.45496 7.36103,37.73437 5.21669,51.59908 -1.79675,11.61718 -4.68596,19.77779 -11.3754,32.12983 -10.96933,20.25489 -26.60948,32.61565 -49.80256,39.3601 -9.6595,2.80893 -21.8882,3.51005 -30.98894,1.77668 z"
     id="path30" /><path
     style="fill:#2c9448;fill-rule:evenodd;stroke:#000000;stroke-width:0;stroke-opacity:0.988166;paint-order:fill markers stroke"
     d=""
     id="path31" /><path
     style="fill:#2c9448;fill-rule:evenodd;stroke:#000000;stroke-width:0;stroke-opacity:0.988166;paint-order:fill markers stroke"
     d="m 584.03988,543.82157 c -2.86868,-0.91497 -5.49904,-1.58587 -5.84526,-1.49091 -0.34622,0.095 -1.79828,-0.81971 -3.22681,-2.03263 -1.42853,-1.21291 -3.33661,-2.62878 -4.24016,-3.14637 -0.90356,-0.51759 -2.06632,-1.70845 -2.58391,-2.64635 -0.51759,-0.93791 -1.15867,-1.90377 -1.42463,-2.14635 -1.36381,-1.24394 -4.3681,-6.15135 -4.3681,-7.13515 0,-0.62097 -0.76126,-2.74293 -1.6917,-4.71548 -2.06939,-4.38715 -2.89802,-9.34867 -3.09901,-18.55569 -0.28666,-13.13108 2.84328,-21.51357 11.12641,-29.79832 3.27423,-3.27487 6.46302,-5.95614 7.0862,-5.95838 0.62319,-0.002 2.32987,-1.12603 3.79262,-2.4973 1.46275,-1.37126 4.24143,-2.79953 6.17483,-3.17392 6.61594,-1.28115 21.22444,-0.4839 22.48086,1.22686 0.24258,0.33031 2.39522,1.53497 4.78365,2.67703 2.38843,1.14205 5.84724,3.58111 7.68624,5.42011 4.67187,4.67187 11.48831,19.43208 9.53225,20.64099 -0.44163,0.27295 0.13878,2.36231 1.2898,4.64302 2.17978,4.31917 2.22204,5.12343 0.97171,18.49316 -0.78982,8.44559 -4.07113,14.91327 -11.39101,22.45244 -6.1481,6.33227 -8.82841,8.06176 -13.92248,8.98353 -3.44827,0.62396 -7.77136,-0.0702 -7.77136,-1.24783 0,-0.38684 2.49977,-1.87313 5.55503,-3.30286 6.90343,-3.2305 11.21651,-6.96663 15.7511,-13.64412 7.10281,-10.45935 8.14199,-15.70496 5.95597,-30.06495 -0.93832,-6.16387 -6.36654,-18.07896 -9.01252,-19.78273 -0.57654,-0.37124 -1.48406,-1.46889 -2.01672,-2.43922 -0.53266,-0.97033 -2.79197,-2.89866 -5.02069,-4.28518 -3.5656,-2.21822 -5.29357,-2.61359 -14.38954,-3.29247 -9.81301,-0.73239 -10.49794,-0.6733 -13.50382,1.165 -4.46107,2.72825 -12.12065,10.97437 -14.55995,15.6749 -4.0658,7.8348 -5.18985,19.92802 -2.73007,29.37176 1.72397,6.61879 6.11366,15.32128 9.58369,18.99953 3.62557,3.84312 6.50984,5.28988 15.46727,7.75843 4.06943,1.12148 7.57677,2.21687 7.7941,2.43419 0.65384,0.65385 -2.67203,2.11476 -5.94704,2.61228 -1.82392,0.27707 -5.1894,-0.20906 -8.28695,-1.19702 z"
     id="path32" /><path
     style="fill:#2c9448;fill-rule:evenodd;stroke:#000000;stroke-width:0;stroke-opacity:0.988166;paint-order:fill markers stroke"
     d="m 409.27342,769.90772 c 0.31967,-46.47559 0.51201,-107.12743 0.42741,-134.78187 -0.0846,-27.65444 -0.29805,-149.40808 -0.47436,-270.56366 l -0.32057,-220.28286 2.40401,0.42245 c 1.32221,0.23235 31.38163,3.60803 66.79872,7.50151 35.41708,3.89348 87.02106,9.83457 114.6755,13.20242 59.8046,7.2832 84.46568,10.04428 134.74371,15.08609 l 37.7106,3.78156 -0.002,40.62227 c -10e-4,22.34225 -0.26369,49.87617 -0.58349,61.18649 l -0.58147,20.56423 -5.81187,-0.68864 c -3.19653,-0.37874 -7.39968,-0.70119 -9.34035,-0.71654 -3.24237,-0.0256 -5.17998,-0.98831 -4.4304,-2.20116 0.16767,-0.27129 3.8133,-0.24819 8.1014,0.0513 4.2881,0.29953 7.94785,0.41741 8.13277,0.26194 0.18492,-0.15546 -0.0651,-14.88481 -0.55555,-32.73188 -0.49046,-17.84707 -0.69329,-43.38786 -0.45071,-56.75732 l 0.44105,-24.3081 -15.32259,-1.59388 c -8.42743,-0.87664 -19.88756,-1.74045 -25.46696,-1.91959 -5.57941,-0.17913 -14.70934,-0.94256 -20.28874,-1.69651 -5.57941,-0.75394 -13.71696,-1.73572 -18.08345,-2.18173 -4.36649,-0.44602 -12.70251,-1.40947 -18.5245,-2.14101 -5.82199,-0.73154 -16.69271,-1.7777 -24.15716,-2.32481 -7.46445,-0.5471 -19.17459,-1.76479 -26.02252,-2.70596 -18.58481,-2.55429 -36.63455,-4.56499 -74.64019,-8.31477 -7.52007,-0.74196 -16.05457,-1.92039 -18.96557,-2.61874 -2.91099,-0.69835 -19.98,-2.67387 -37.93112,-4.39004 -17.95113,-1.71617 -37.79881,-3.73261 -44.10597,-4.48098 -6.30715,-0.74838 -13.50469,-1.58679 -15.99453,-1.86314 l -4.52697,-0.50247 0.55744,103.10008 c 0.61238,113.2612 0.67789,203.97789 0.21459,297.16632 -0.16643,33.47643 -0.32328,88.65299 -0.34856,122.61458 -0.0253,33.96159 -0.10828,80.60364 -0.18446,103.64901 -0.0762,23.04536 0.0478,47.32255 0.27556,53.9493 l 0.41407,12.04864 3.6216,0.35746 c 4.38397,0.43271 24.25482,-1.23958 42.8759,-3.60836 7.52007,-0.95662 18.63477,-2.18456 24.69934,-2.72877 6.06457,-0.5442 23.72901,-2.33451 39.2543,-3.97847 15.5253,-1.64396 33.78517,-3.42325 40.57749,-3.95397 6.79232,-0.53072 18.30397,-1.54663 25.58146,-2.25757 7.27748,-0.71095 19.58304,-1.69873 27.34569,-2.19504 7.76265,-0.49632 14.70934,-1.08259 15.43709,-1.30284 0.72775,-0.22025 12.04093,-1.40397 25.1404,-2.63049 13.09947,-1.22652 27.98523,-2.63117 33.07947,-3.12144 23.6307,-2.27422 29.54019,-2.71504 41.90066,-3.12563 7.27749,-0.24173 15.01808,-0.73192 17.20133,-1.0893 l 3.96954,-0.64978 -0.20685,-3.52243 c -0.29317,-4.99264 -1.1051,-72.59168 -1.11122,-92.51726 l -0.005,-16.66104 -7.35787,0.59701 -7.35785,0.59701 -0.57852,-15.2512 c -0.31818,-8.38816 -0.57973,-19.86579 -0.58121,-25.50584 l -0.003,-10.25463 2.75662,-0.55133 c 1.51615,-0.30323 4.19558,-0.55674 5.95431,-0.56336 1.75872,-0.007 3.99159,-0.22598 4.96192,-0.48744 1.74255,-0.46956 1.76443,-1.22859 1.77983,-61.73631 l 0.0156,-61.26091 h -8.03907 -8.03907 l -0.57361,-11.24702 c -0.31549,-6.18586 -0.57522,-18.29294 -0.57719,-26.90463 l -0.004,-15.65762 h 8.82119 8.8212 l 0.006,-8.60066 c 0.0324,-43.41827 0.81954,-111.30717 1.3081,-112.82623 0.75762,-2.35559 -0.0374,-2.61488 -10.46155,-3.41181 l -7.82386,-0.59815 0.53031,-5.86634 c 0.29167,-3.22649 0.9941,-11.70801 1.56094,-18.84781 1.51232,-19.04893 2.91642,-15.93383 2.12997,4.72548 l -0.63331,16.63611 6.47096,0.01 c 3.55903,0.005 7.95953,0.25576 9.7789,0.55648 l 3.30795,0.54676 v 66.92565 66.92565 h -8.95972 -8.95972 l 0.57959,14.69585 c 0.31877,8.08271 0.57959,17.21265 0.57959,20.28874 v 5.59289 h 8.38013 8.38013 v 27.64194 c 0,15.20307 -0.26272,45.5378 -0.58382,67.4105 l -0.58381,39.76857 -8.36863,0.62741 -8.36863,0.62743 0.57232,11.93334 c 0.31476,6.56334 0.5721,15.74087 0.57187,20.39453 l -4.5e-4,8.46119 7.82314,-0.30395 7.82315,-0.30396 0.65737,60.55567 c 0.36155,33.30562 0.51316,60.69224 0.3369,60.85915 -0.17626,0.16691 -7.46563,0.95538 -16.19861,1.75214 -32.0311,2.92239 -44.84099,4.21088 -79.94785,8.0416 -19.71304,2.15101 -41.71051,4.32772 -48.88328,4.83714 -7.17277,0.50941 -13.27333,1.06204 -13.55679,1.22805 -0.28347,0.16601 -3.69103,0.56008 -7.57235,0.87572 -12.43329,1.01113 -24.11813,2.33623 -32.01096,3.63015 -4.22642,0.69286 -10.06613,1.26854 -12.97713,1.2793 -8.10518,0.03 -134.63268,12.39196 -140.56252,13.73327 l -2.0698,0.46818 z"
     id="path33" /><path
     style="fill:#2c9448;fill-rule:evenodd;stroke:#000000;stroke-width:0;stroke-opacity:0.988166;paint-order:fill markers stroke"
     d="m 388.11587,856.04444 c -0.31709,-0.99908 -0.46527,-8.04501 -0.32928,-15.65762 0.136,-7.6126 0.23172,-23.1695 0.21271,-34.5709 -0.019,-11.40139 0.0223,-29.46278 0.0917,-40.13642 0.14813,-22.7659 0.21891,-65.20701 0.12873,-77.18543 -0.0347,-4.60908 0.0743,-21.47961 0.24212,-37.49007 0.16787,-16.01047 0.005,-36.75129 -0.36109,-46.09073 -0.4985,-12.70405 -0.40785,-16.9808 0.35992,-16.9808 0.77398,0 0.96818,-18.26775 0.79006,-74.31854 -0.1299,-40.8752 0.0643,-95.75405 0.43161,-121.95299 0.36728,-26.19894 0.87133,-67.48212 1.12011,-91.7404 0.28667,-27.95419 0.82997,-46.13374 1.48359,-49.64326 0.78995,-4.24153 0.78148,-11.46632 -0.0362,-30.87417 -0.58712,-13.93528 -1.05905,-40.93702 -1.04873,-60.00386 l 0.0188,-34.66698 5.51325,0.55405 c 3.03228,0.30474 6.01816,0.71229 6.63527,0.90568 2.48084,0.77743 70.97384,8.12464 102.52698,10.99801 26.81797,2.44217 116.2583,12.34821 142.46226,15.77853 12.99872,1.70165 58.88556,7.07914 79.83179,9.35551 11.40139,1.23907 22.71457,2.60672 25.1404,3.03922 2.42583,0.43251 10.06719,1.26821 16.9808,1.85711 l 12.57019,1.07073 -0.004,19.94452 c -0.004,20.15765 -2.12701,93.76871 -3.11075,107.8527 l -0.53332,7.63534 2.48554,0.4846 c 1.36705,0.26652 5.65246,0.96846 9.52313,1.55986 3.87067,0.59139 6.55011,1.23775 5.9543,1.43635 -0.81629,0.2721 -1.08328,5.59378 -1.08328,21.5917 v 21.2306 l -8.60066,-0.52434 -8.60066,-0.52433 0.20258,47.36393 c 0.11141,26.05016 0.44844,54.51406 0.74895,63.2531 l 0.54639,15.88917 9.56369,-0.32735 9.5637,-0.32734 0.39954,4.28586 c 0.21975,2.35722 0.28224,-47.31811 0.13887,-110.38964 -0.18631,-81.96333 0.0824,-126.25057 0.94197,-155.25298 1.78533,-60.23768 2.28326,-70.86229 3.20426,-68.37259 1.39505,3.7712 2.6031,179.14609 2.35768,342.27061 -0.13102,87.08722 0.10286,206.07408 0.51973,264.41524 l 0.75794,106.07484 h -2.27549 -2.27548 l 0.46794,-6.39536 c 0.25737,-3.51746 -0.16087,-19.89179 -0.92942,-36.38742 -1.02986,-22.10409 -1.39787,-49.82799 -1.39928,-105.41325 -0.002,-71.31499 -0.24139,-96.83357 -1.4804,-157.67882 l -0.52542,-25.80198 h -9.16123 -9.16122 l -0.1297,23.59669 c -0.14644,26.64265 0.22664,98.46474 0.51316,98.78875 0.10308,0.11656 3.7761,0.31504 8.16226,0.44106 l 7.97485,0.22913 0.64553,24.98227 c 0.35503,13.74025 0.38006,25.24773 0.0556,25.57217 -0.32445,0.32445 -4.23283,0.79256 -8.68528,1.04025 l -8.09538,0.45034 -0.61721,14.55497 c -0.33946,8.00523 -0.4323,38.24 -0.20631,67.18838 l 0.41089,52.63342 -2.44004,0.47391 c -3.08211,0.59862 -26.20467,2.88801 -41.2533,4.08454 -6.30715,0.50149 -14.64318,1.49115 -18.5245,2.19925 -3.88133,0.70809 -18.56861,2.30138 -32.63841,3.54062 -14.0698,1.23925 -28.99541,2.83805 -33.16801,3.55289 -4.1726,0.71483 -17.38034,2.28717 -29.35052,3.49407 -11.97017,1.20691 -26.8161,2.78921 -32.99093,3.51624 -8.44271,0.99405 -20.30564,1.29479 -47.83492,1.21266 -25.50547,-0.0761 -34.33395,-0.33165 -29.10993,-0.84266 4.1239,-0.4034 16.62794,-1.73687 27.78675,-2.96326 11.15881,-1.22639 28.62477,-3.04887 38.81325,-4.04996 19.32017,-1.89834 44.09738,-4.49828 78.50861,-8.23814 11.15881,-1.21275 26.44153,-2.82711 33.96159,-3.58746 7.52007,-0.76035 21.21497,-2.1583 30.43312,-3.10656 9.21814,-0.94825 23.50847,-2.35493 31.75629,-3.12596 8.24781,-0.77102 15.90956,-1.59155 17.0261,-1.8234 l 2.03006,-0.42155 -0.6254,-67.3146 -0.62541,-67.31461 4.77017,-0.57273 c 2.6236,-0.31501 6.85418,-0.57619 9.4013,-0.5804 l 4.63113,-0.008 V 680.243 c 0,-7.4489 -0.24388,-15.88416 -0.54196,-18.74503 l -0.54196,-5.20159 -8.49976,0.47428 c -4.67487,0.26085 -8.5603,0.45932 -8.63427,0.44105 -0.074,-0.0183 0.2044,-27.62149 0.61861,-61.34049 0.41422,-33.71901 0.77246,-64.58216 0.79609,-68.58478 l 0.043,-7.27748 h 9.81358 9.81357 l -0.55132,-2.75662 c -0.30323,-1.51614 -0.55132,-10.05065 -0.55132,-18.96557 v -16.20894 l -7.71855,-0.012 c -4.2452,-0.007 -8.61169,-0.2514 -9.70331,-0.54395 l -1.98477,-0.53189 V 412.599 344.20773 l 9.2176,0.59592 9.2176,0.59593 0.4273,-2.89183 c 0.69077,-4.67504 2.41886,-34.39062 2.02297,-34.7865 -0.19921,-0.19922 -4.38451,-0.60726 -9.30066,-0.90677 l -8.93845,-0.54455 -0.10056,-54.77867 c -0.0553,-30.12827 -0.35303,-59.93907 -0.66159,-66.24622 l -0.56103,-11.46755 -32.19735,-3.68968 c -17.70855,-2.02932 -42.1212,-4.71931 -54.25033,-5.97776 -41.83934,-4.34098 -62.83795,-6.7551 -123.05564,-14.14714 -33.23384,-4.07964 -65.78404,-8.04758 -72.33378,-8.81765 -15.6929,-1.84505 -95.64754,-9.96264 -95.92886,-9.73941 -0.12041,0.0956 -0.49709,70.9976 -0.83706,157.5601 -0.33998,86.56251 -0.96112,233.79996 -1.38032,327.19434 -0.41919,93.39437 -0.7095,185.98381 -0.64513,205.75431 l 0.11705,35.94636 h -3.08949 c -2.3444,0 -3.22853,-0.43809 -3.66603,-1.81652 z M 799.34318,495.08942 c -0.24471,-0.60645 -0.44493,-0.11026 -0.44493,1.10265 0,1.21292 0.20022,1.70911 0.44493,1.10265 0.24471,-0.60646 0.24471,-1.59884 0,-2.2053 z"
     id="path34" /><path
     style="fill:#2c9448;fill-rule:evenodd;stroke:#000000;stroke-width:0;stroke-opacity:0.988166;paint-order:fill markers stroke"
     d="m 354.56958,844.40864 c 0.36849,-7.39877 0.80682,-27.49903 0.97407,-44.66724 0.16725,-17.16821 0.56468,-32.40135 0.88317,-33.85142 0.41868,-1.90626 0.29167,-2.45887 -0.45859,-1.99518 -0.78852,0.48732 -1.0296,-7.16369 -1.00409,-31.86647 0.0185,-17.87927 -0.1575,-162.21238 -0.39102,-320.74023 l -0.42458,-288.23247 h 3.61565 3.61566 l -0.0309,61.96888 c -0.017,34.08288 0.19827,106.03073 0.47835,159.88411 0.70451,135.462 0.64346,231.24531 -0.19566,306.9775 -0.39243,35.41708 -0.68423,65.38709 -0.64845,66.6 0.0358,1.21291 0.50345,16.82957 1.03927,34.70369 0.53581,17.87412 0.73836,32.87998 0.45012,33.34638 -0.28825,0.46639 -0.48939,16.70526 -0.44698,36.08637 l 0.0771,35.2384 h -4.10155 -4.10155 z"
     id="path35" /><path
     style="fill:#2c9448;fill-rule:evenodd;stroke:#000000;stroke-width:0;stroke-opacity:0.988166;paint-order:fill markers stroke"
     d="m 335.19682,814.85765 c 0.79839,-51.44532 0.80317,-57.42225 0.12888,-161.20729 -0.98146,-151.06368 -1.52047,-443.50359 -0.89794,-487.17508 l 0.61895,-43.41965 h 2.89214 c 2.76004,0 2.91988,0.18502 3.49958,4.05075 0.3341,2.22791 0.36662,10.66318 0.0723,18.74504 -0.29435,8.08185 -0.45695,26.80137 -0.36134,41.59892 0.0956,14.79755 0.12681,29.48483 0.0693,32.63841 -0.27025,14.82826 -0.009,145.52064 0.41942,209.50332 0.26289,39.29841 0.45758,95.46735 0.43263,124.81987 -0.0839,98.70542 -0.0686,184.74475 0.0342,192.74306 0.0562,4.36649 -0.0699,31.06162 -0.28013,59.32251 l -0.38222,51.38345 h -3.45659 -3.4566 z"
     id="path36" /><path
     style="fill:#2c9448;fill-rule:evenodd;stroke:#000000;stroke-width:0;stroke-opacity:0.988166;paint-order:fill markers stroke"
     d="m 737.45168,128.75475 c -20.37695,-2.20823 -50.14848,-5.67502 -66.15894,-7.70399 -49.60629,-6.28648 -58.67825,-7.32421 -72.33378,-8.27418 -7.27748,-0.50627 -18.39218,-1.6804 -24.69934,-2.60918 -6.30715,-0.92878 -21.39139,-2.92499 -33.52053,-4.43603 -12.12914,-1.51104 -34.35854,-4.32231 -49.39867,-6.247257 -39.62737,-5.071814 -51.61633,-6.578454 -90.15648,-11.329862 -19.02063,-2.344952 -35.89116,-4.765551 -37.49007,-5.379109 -2.59708,-0.996593 -2.9071,1.06824 -2.9071,19.361938 0,19.30133 -0.20267,20.47749 -3.52848,20.47749 -3.35438,0 -3.52848,-1.17616 -3.52848,-23.838065 V 74.938437 l 6.6159,0.955456 c 43.57002,6.292305 187.69423,25.164187 235.08478,30.782427 101.01546,11.97557 202.12924,26.16228 186.12716,26.11447 -3.88133,-0.0116 -23.72901,-1.82782 -44.10597,-4.03604 z"
     id="path37" /><path
     style="fill:#2c9448;fill-rule:evenodd;stroke:#000000;stroke-width:0;stroke-opacity:0.988166;paint-order:fill markers stroke"
     d="m 221.41193,173.61741 c 3.39616,-2.92017 14.90781,-11.86874 25.58146,-19.88571 31.46137,-23.63063 66.15562,-50.09547 79.19599,-60.410843 6.68521,-5.288231 12.61955,-9.150345 13.18742,-8.582477 0.56787,0.567868 1.05245,9.322296 1.07686,19.45428 0.0327,13.58491 -0.53466,18.42181 -2.16093,18.42186 -1.5829,4e-5 -2.2053,-4.03661 -2.2053,-14.30261 0,-11.842032 -0.44502,-14.131891 -2.58669,-13.310051 -1.42269,0.545935 -18.29322,12.783091 -37.49007,27.193681 -57.25209,42.97768 -95.19951,69.13532 -74.59874,51.42187 z"
     id="path38" /><path
     style="fill:#2c9448;fill-rule:evenodd;stroke:#000000;stroke-width:0;stroke-opacity:0.988166;paint-order:fill markers stroke"
     d="m 389.01458,866.95533 c 0,-6.51567 0.65374,-8.65331 2.64636,-8.65331 1.8634,0 2.64636,1.8835 2.64636,6.36609 0,5.71375 0.40676,6.26648 3.96954,5.39397 6.84453,-1.67619 32.59119,-4.78239 72.80032,-8.783 28.20943,-2.80669 46.005,-3.64495 65.25134,-3.07365 14.55496,0.43203 23.28794,1.03802 19.40662,1.34662 -3.88132,0.30861 -16.9808,1.639 -29.10993,2.95644 -12.12914,1.31744 -24.03775,2.45351 -26.46358,2.5246 -2.42583,0.0711 -12.34967,0.95527 -22.05298,1.96483 -9.70331,1.00957 -30.74186,3.03905 -46.75232,4.50996 -16.01047,1.47092 -32.08709,2.99532 -35.72583,3.38758 l -6.6159,0.71319 z"
     id="path39" /><path
     style="fill:#2c9448;fill-rule:evenodd;stroke:#000000;stroke-width:0;stroke-opacity:0.988166;paint-order:fill markers stroke"
     d=""
     id="path40" /><path
     style="fill:#2c9448;fill-rule:evenodd;stroke:#000000;stroke-width:0;stroke-opacity:0.988166;paint-order:fill markers stroke"
     d="m 353.74236,903.76477 c 0.0166,-28.6687 1.65764,-45.46275 4.44238,-45.46275 1.61007,0 2.36783,7.3626 2.89674,28.14523 0.39395,15.47988 1.24756,28.67651 1.89691,29.32586 1.39044,1.39045 31.48101,-1.87054 132.77262,-14.38886 73.37761,-9.06852 127.04682,-15.42889 169.3669,-20.07178 19.65254,-2.15605 42.88279,-4.80497 70.77297,-8.07014 11.75586,-1.37629 28.82487,-3.31337 37.93113,-4.30462 27.84217,-3.03073 29.78862,-3.50526 29.78862,-7.26229 0,-1.85537 0.7939,-3.3734 1.76423,-3.3734 0.97034,0 1.76424,2.34575 1.76424,5.21277 0,4.50712 -0.77617,5.3433 -5.73377,6.17702 -6.52301,1.09698 -109.98737,13.95541 -135.40531,16.82802 -9.21814,1.04179 -25.49324,3.03285 -36.16688,4.42458 -10.67365,1.39173 -34.49087,4.19784 -52.92716,6.23581 -41.27977,4.5631 -213.74783,26.05283 -219.20663,27.31341 -3.95117,0.91244 -3.96948,0.81655 -3.95699,-20.72886 z"
     id="path41" /><path
     style="fill:#2c9448;fill-rule:evenodd;stroke:#000000;stroke-width:0;stroke-opacity:0.988166;paint-order:fill markers stroke"
     d="m 331.55334,915.94445 c -3.81341,-3.22859 -27.972,-19.98077 -53.68578,-37.22709 -25.71378,-17.24631 -54.96536,-37.03263 -65.00351,-43.96958 l -18.25119,-12.61265 0.54136,-52.92715 c 0.29774,-29.10994 0.45163,-58.08756 0.34196,-64.39471 -1.4145,-81.3526 -2.37343,-439.5186 -1.25044,-467.04784 l 1.49472,-36.64224 1.16917,24.69933 c 0.64304,13.58464 1.27205,133.06769 1.39779,265.5179 0.12574,132.4502 0.73464,260.50567 1.35312,284.56771 l 1.12451,43.74916 8.99026,6.19435 c 4.94465,3.4069 13.99325,9.52177 20.10801,13.58859 6.11476,4.06683 31.47278,21.28762 56.35116,38.26841 24.87837,16.9808 46.3971,31.1548 47.8194,31.4978 2.22389,0.53629 2.41554,-2.98412 1.36866,-25.1404 -1.18731,-25.12822 -1.12882,-25.76402 2.37013,-25.76402 3.47427,0 3.58748,1.00207 3.58748,31.75629 0,17.46596 -0.65101,31.75629 -1.44668,31.75629 -0.79568,0 -4.56674,-2.64157 -8.38013,-5.87015 z"
     id="path42" /></svg>
