<?xml version="1.0" encoding="UTF-8" standalone="no"?>
<svg
   version="1.1"
   x="0px"
   y="0px"
   viewBox="0 0 66 82.5"
   enable-background="new 0 0 66 66"
   xml:space="preserve"
   id="svg10"
   sodipodi:docname="noun-money-exchange-2034184.svg"
   inkscape:version="1.3 (0e150ed6c4, 2023-07-21)"
   xmlns:inkscape="http://www.inkscape.org/namespaces/inkscape"
   xmlns:sodipodi="http://sodipodi.sourceforge.net/DTD/sodipodi-0.dtd"
   xmlns="http://www.w3.org/2000/svg"
   xmlns:svg="http://www.w3.org/2000/svg"><defs
     id="defs10" /><sodipodi:namedview
     id="namedview10"
     pagecolor="#ffffff"
     bordercolor="#999999"
     borderopacity="1"
     inkscape:showpageshadow="0"
     inkscape:pageopacity="0"
     inkscape:pagecheckerboard="0"
     inkscape:deskcolor="#d1d1d1"
     inkscape:zoom="6.0727273"
     inkscape:cx="33.016467"
     inkscape:cy="55.905689"
     inkscape:window-width="1366"
     inkscape:window-height="697"
     inkscape:window-x="-8"
     inkscape:window-y="-8"
     inkscape:window-maximized="1"
     inkscape:current-layer="svg10" /><g
     id="g9"><path
       d="M53.2,34l-1.1,1.3c1.1,0.9,2.3,1.5,3.7,1.6V38h1v-1.1c1.9-0.1,3.4-1.2,3.4-3c0-2-1.4-2.6-3.3-3.1h0V28   c0.8,0.1,1.5,0.4,2.1,0.9l1-1.4c-1-0.7-2-1-3.1-1.1v-0.8h-1v0.7c-1.8,0.1-3.3,1.2-3.3,3c0,1.9,1.3,2.5,3.3,3v2.9   C54.9,35.1,54.1,34.7,53.2,34z M56.8,32.6c0.9,0.3,1.6,0.5,1.6,1.4c0,0.8-0.7,1.2-1.6,1.3V32.6z M54.4,29.2c0-0.8,0.7-1.2,1.4-1.2   v2.6C55,30.3,54.4,30,54.4,29.2z"
       id="path1" /><path
       d="M4.7,49.5c-0.6,0-1,0.4-1,1v9.8c0,0.6,0.4,1,1,1h7.6c0.6,0,1-0.4,1-1v-9.8c0-0.6-0.4-1-1-1H4.7z M11.3,59.2H5.7v-7.8h5.6   V59.2z"
       id="path2" /><path
       d="M18.9,44.4c-0.6,0-1,0.4-1,1v14.8c0,0.6,0.4,1,1,1h7.6c0.6,0,1-0.4,1-1V45.4c0-0.6-0.4-1-1-1H18.9z M25.5,59.2h-5.6V46.4   h5.6V59.2z"
       id="path3" /><path
       d="M33,61.2h7.6c0.6,0,1-0.4,1-1v-23c0-0.6-0.4-1-1-1H33c-0.6,0-1,0.4-1,1v23C32,60.8,32.5,61.2,33,61.2z M34,38.3h5.6v21H34   V38.3z"
       id="path4" /><path
       d="M60.9,60.2V41.9c0-0.6-0.4-1-1-1h-7.6c-0.6,0-1,0.4-1,1v18.3c0,0.6,0.4,1,1,1h7.6C60.5,61.2,60.9,60.8,60.9,60.2z    M58.9,59.2h-5.6V42.9h5.6V59.2z"
       id="path5" /><path
       d="M62,11.6c0.4-0.4,0.4-1,0-1.4L56.8,5c-0.2-0.2-0.4-0.3-0.7-0.3c-0.3,0-0.5,0.1-0.7,0.3l-5.2,5.2c-0.4,0.4-0.4,1,0,1.4   c0.4,0.4,1,0.4,1.4,0l3.5-3.5v11.5c0,0.6,0.4,1,1,1s1-0.4,1-1V8.2l3.5,3.5C61,12,61.6,12,62,11.6z"
       id="path6" /><path
       d="M37.6,19c-0.1-0.1-0.2-0.2-0.3-0.2c-0.2-0.1-0.5-0.1-0.8,0c-0.1,0.1-0.2,0.1-0.3,0.2L31,24.2c-0.4,0.4-0.4,1,0,1.4   c0.4,0.4,1,0.4,1.4,0l3.5-3.5V33c0,0.6,0.4,1,1,1c0.6,0,1-0.4,1-1V22.2l3.5,3.5c0.4,0.4,1,0.4,1.4,0c0.4-0.4,0.4-1,0-1.4L37.6,19z"
       id="path7" /><path
       d="M29.9,33.5c0.4-0.4,0.4-1,0-1.4l-5.2-5.2c-0.4-0.4-1-0.4-1.4,0l-5.2,5.2c-0.4,0.4-0.4,1,0,1.4c0.4,0.4,1,0.4,1.4,0L23,30   v10.4c0,0.6,0.4,1,1,1s1-0.4,1-1V30l3.5,3.5C28.9,33.9,29.5,33.9,29.9,33.5z"
       id="path8" /><path
       d="M15.8,38.7c0.4-0.4,0.4-1,0-1.4l-5.2-5.2c-0.4-0.4-1-0.4-1.4,0L4,37.3c-0.4,0.4-0.4,1,0,1.4c0.4,0.4,1,0.4,1.4,0l3.5-3.5   v10.2c0,0.6,0.4,1,1,1c0.6,0,1-0.4,1-1V35.2l3.5,3.5C14.7,39.1,15.4,39.1,15.8,38.7z"
       id="path9" /></g><path
     style="fill:#2c9448;fill-rule:evenodd;stroke:#000000;stroke-width:0;paint-order:fill markers stroke"
     d="m 51.83009,60.924747 -0.370509,-0.262285 v -9.620099 -9.6201 l 0.395417,-0.259087 c 0.338242,-0.221625 0.983068,-0.251937 4.459612,-0.209635 3.801777,0.04626 4.079273,0.07009 4.297697,0.3691 0.348126,0.476561 0.348121,18.973976 -5e-6,19.450526 -0.218594,0.299232 -0.494669,0.322656 -4.322605,0.366755 -3.526805,0.04063 -4.140047,0.01104 -4.459607,-0.215175 z m 7.204341,-9.876843 v -8.151197 h -2.881736 -2.881737 v 8.151197 8.151198 h 2.881737 2.881736 z"
     id="path10" /><path
     style="fill:#2c9448;fill-rule:evenodd;stroke:#000000;stroke-width:0;paint-order:fill markers stroke"
     d="m 55.905689,37.401286 c 0,-0.515643 -0.04469,-0.562447 -0.625731,-0.65536 -0.670099,-0.107153 -2.525493,-0.97199 -2.80323,-1.306643 -0.120081,-0.144689 -0.03731,-0.36255 0.290184,-0.763815 l 0.458183,-0.56139 0.495437,0.352782 c 0.520004,0.370276 0.978724,0.569324 1.732312,0.751686 l 0.452845,0.109585 v -1.545444 -1.545445 l -1.000361,-0.364749 c -1.78009,-0.649054 -2.501791,-1.729795 -2.117637,-3.171143 0.303319,-1.138053 1.659344,-2.257472 2.747489,-2.268093 0.284464,-0.0028 0.370509,-0.09922 0.370509,-0.415293 0,-0.345567 0.07757,-0.411677 0.483074,-0.411677 0.40351,0 0.491656,0.07398 0.535179,0.44915 0.04476,0.385816 0.148521,0.465487 0.735865,0.565013 0.376068,0.06373 1.024461,0.289014 1.440874,0.500641 l 0.757115,0.384776 -0.412283,0.606728 -0.412282,0.606728 -0.863921,-0.402215 c -1.308022,-0.608974 -1.294729,-0.620761 -1.240609,1.099991 l 0.04735,1.505422 0.687636,0.20264 c 1.59369,0.469647 2.390547,1.360488 2.406539,2.690374 0.01708,1.420168 -0.914694,2.489901 -2.495957,2.865519 -0.803498,0.190865 -0.845224,0.227306 -0.845224,0.738155 0,0.463423 -0.05666,0.537378 -0.411677,0.537378 -0.357735,0 -0.411676,-0.07276 -0.411676,-0.555301 z m 2.01767,-2.406167 c 0.880717,-0.692771 0.65871,-1.771643 -0.460818,-2.239412 -0.307038,-0.128289 -0.597681,-0.233252 -0.645875,-0.233252 -0.04819,0 -0.08762,0.629865 -0.08762,1.399701 0,1.361951 0.0105,1.3997 0.389469,1.3997 0.214208,0 0.57639,-0.147031 0.804848,-0.326737 z m -2.01767,-5.683742 c 0,-1.510959 -0.05853,-1.591059 -0.886811,-1.213669 -0.549705,0.250463 -0.825369,0.937687 -0.606766,1.512656 0.147929,0.389084 1.031332,1.09841 1.370074,1.100098 0.06793,3.39e-4 0.123503,-0.629249 0.123503,-1.399085 z"
     id="path11" /><path
     style="fill:#2c9448;fill-rule:evenodd;stroke:#000000;stroke-width:0;paint-order:fill markers stroke"
     d="m 32.432635,60.770957 -0.404192,-0.40419 V 48.704305 c 0,-10.288924 0.03019,-11.705565 0.256344,-12.028443 0.253672,-0.362168 0.300761,-0.365982 4.519105,-0.365982 4.218344,0 4.265433,0.0038 4.519106,0.365982 0.226153,0.322878 0.256343,1.739519 0.256343,12.028443 v 11.662462 l -0.404191,0.40419 -0.404192,0.404193 H 36.803892 32.836826 Z M 39.603293,48.82485 V 38.285928 H 36.721557 33.83982 V 48.82485 59.363772 h 2.881737 2.881736 z"
     id="path12" /><path
     style="fill:#2c9448;fill-rule:evenodd;stroke:#000000;stroke-width:0;paint-order:fill markers stroke"
     d="m 18.397419,60.918807 -0.365982,-0.256344 v -7.86192 c 0,-5.895266 0.04943,-7.911351 0.197605,-8.059525 0.143452,-0.143452 1.358664,-0.197605 4.434345,-0.197605 3.632022,0 4.273676,0.03693 4.495509,0.258768 0.227892,0.227892 0.258769,1.180853 0.258769,7.986527 0,7.508198 -0.0094,7.737116 -0.329342,8.0571 -0.311253,0.311254 -0.548902,0.329342 -4.327132,0.329342 -3.351799,0 -4.056929,-0.04142 -4.363772,-0.256343 z m 7.208868,-8.141861 V 46.35479 h -2.881736 -2.881737 v 6.422156 6.422156 h 2.881737 2.881736 z"
     id="path13" /><path
     style="fill:#2c9448;fill-rule:evenodd;stroke:#000000;stroke-width:0;paint-order:fill markers stroke"
     d="m 4.0134265,60.902835 c -0.3320038,-0.40004 -0.3320038,-10.582276 0,-10.982316 0.1995477,-0.240441 0.7236952,-0.272315 4.477938,-0.272315 4.2071575,0 4.2546365,0.0039 4.5082805,0.365981 0.383594,0.547658 0.383594,10.247325 0,10.794983 -0.253644,0.362127 -0.301123,0.365982 -4.5082805,0.365982 -3.7542428,0 -4.2783903,-0.03187 -4.477938,-0.272315 z M 11.444611,55.247006 V 51.29491 H 8.5628743 5.6811377 v 3.952096 3.952096 h 2.8817366 2.8817367 z"
     id="path14" /></svg>
