<?xml version="1.0" encoding="UTF-8" standalone="no"?>
<svg
   version="1.1"
   x="0px"
   y="0px"
   viewBox="0 0 66 82.5"
   style="enable-background:new 0 0 66 66;"
   xml:space="preserve"
   id="svg7"
   sodipodi:docname="noun-secure-transactions-4527245.svg"
   inkscape:version="1.3 (0e150ed6c4, 2023-07-21)"
   xmlns:inkscape="http://www.inkscape.org/namespaces/inkscape"
   xmlns:sodipodi="http://sodipodi.sourceforge.net/DTD/sodipodi-0.dtd"
   xmlns="http://www.w3.org/2000/svg"
   xmlns:svg="http://www.w3.org/2000/svg"><defs
     id="defs7" /><sodipodi:namedview
     id="namedview7"
     pagecolor="#ffffff"
     bordercolor="#999999"
     borderopacity="1"
     inkscape:showpageshadow="0"
     inkscape:pageopacity="0"
     inkscape:pagecheckerboard="0"
     inkscape:deskcolor="#d1d1d1"
     inkscape:zoom="6.0727273"
     inkscape:cx="33.016467"
     inkscape:cy="41.25"
     inkscape:window-width="1366"
     inkscape:window-height="697"
     inkscape:window-x="-8"
     inkscape:window-y="-8"
     inkscape:window-maximized="1"
     inkscape:current-layer="svg7" /><path
     d="m 49.52,13.522814 c 0,-2.32 -1.88,-4.1999996 -4.2,-4.1999996 H 19.63 c -2.32,0 -4.2,1.8799996 -4.2,4.1999996 v 1.88 h 34.08 v -1.88 z"
     id="path1" /><path
     d="m 31.16,24.192814 h 18.35 v -7.47 H 15.44 v 24.05 c 5.34,1.43 9.28,6.3 9.28,12.08 0,1.14 -0.17,2.24 -0.46,3.29 h 25.25 v -7.47 H 31.16 Z m -6.63,0.27 h -5.8 c -0.37,0 -0.66,-0.3 -0.66,-0.66 0,-0.37 0.3,-0.66 0.66,-0.66 h 5.8 c 0.37,0 0.66,0.3 0.66,0.66 0,0.36 -0.3,0.66 -0.66,0.66 z m 3.56,-2.4 h -9.37 c -0.37,0 -0.66,-0.3 -0.66,-0.66 0,-0.37 0.3,-0.66 0.66,-0.66 h 9.37 c 0.37,0 0.66,0.3 0.66,0.66 0.01,0.37 -0.29,0.66 -0.66,0.66 z m 0,-2.4 h -9.37 c -0.37,0 -0.66,-0.3 -0.66,-0.66 0,-0.37 0.3,-0.66 0.66,-0.66 h 9.37 c 0.37,0 0.66,0.3 0.66,0.66 0.01,0.37 -0.29,0.66 -0.66,0.66 z"
     id="path2" /><path
     d="m 32.48,25.502814 v 21.85 H 65 v -21.85 z m 4.08,3.79 h 4.71 v 4.71 h -4.71 z m 11.8,14.94 h -11.8 c -0.36,0 -0.66,-0.29 -0.66,-0.66 0,-0.36 0.29,-0.66 0.66,-0.66 h 11.81 c 0.36,0 0.66,0.29 0.66,0.66 -0.01,0.36 -0.3,0.66 -0.67,0.66 z m 5.27,-2.95 H 36.56 c -0.36,0 -0.66,-0.29 -0.66,-0.66 0,-0.37 0.29,-0.66 0.66,-0.66 h 17.08 c 0.36,0 0.66,0.29 0.66,0.66 0,0.37 -0.31,0.66 -0.67,0.66 z m 4.54,-8.06 h -0.06 c -0.37,0 -0.66,-0.3 -0.66,-0.66 0,-0.37 0.3,-0.66 0.66,-0.66 h 0.06 c 0.37,0 0.66,0.3 0.66,0.66 0,0.36 -0.3,0.66 -0.66,0.66 z m 0,-2.11 h -0.06 c -0.37,0 -0.66,-0.3 -0.66,-0.66 0,-0.36 0.3,-0.66 0.66,-0.66 h 0.06 c 0.37,0 0.66,0.3 0.66,0.66 0,0.36 -0.3,0.66 -0.66,0.66 z m 2.09,2.11 H 60.2 c -0.37,0 -0.66,-0.3 -0.66,-0.66 0,-0.37 0.3,-0.66 0.66,-0.66 h 0.06 c 0.37,0 0.66,0.3 0.66,0.66 0,0.36 -0.3,0.66 -0.66,0.66 z m 0,-2.11 H 60.2 c -0.37,0 -0.66,-0.3 -0.66,-0.66 0,-0.36 0.3,-0.66 0.66,-0.66 h 0.06 c 0.37,0 0.66,0.3 0.66,0.66 0,0.36 -0.3,0.66 -0.66,0.66 z"
     id="path3" /><path
     d="m 12.2,56.762814 c 0.36,0 0.66,-0.29 0.66,-0.66 v -1.05 c 0,-0.36 -0.29,-0.66 -0.66,-0.66 -0.36,0 -0.66,0.29 -0.66,0.66 v 1.05 c 0.01,0.36 0.3,0.66 0.66,0.66 z"
     id="path4" /><path
     d="m 23.41,52.852814 c 0,-6.19 -5.02,-11.2 -11.2,-11.2 -6.19,0 -11.21,5.01 -11.21,11.2 0,6.19 5.02,11.2 11.2,11.2 6.19,0.01 11.21,-5.01 11.21,-11.2 z m -14.88,-4.69 c 0,-2.02 1.65,-3.67 3.67,-3.67 2.02,0 3.67,1.65 3.67,3.67 v 1.78 H 13.6 v -1.78 c 0,-0.77 -0.63,-1.39 -1.39,-1.39 -0.77,0 -1.39,0.63 -1.39,1.39 v 1.78 H 8.53 Z m 9.15,11.74 H 6.73 v -8.65 h 10.95 z"
     id="path5" /><path
     d="m 15.46,64.922814 c 0.14,2.19 1.94,3.93 4.17,3.93 h 25.69 c 2.32,0 4.2,-1.88 4.2,-4.2 v -7.2 H 23.83 c -1.44,3.64 -4.54,6.44 -8.37,7.47 z m 17.02,-3.65 c 1.04,0 1.88,0.84 1.88,1.88 0,1.04 -0.84,1.88 -1.88,1.88 -1.04,0 -1.88,-0.84 -1.88,-1.88 -0.01,-1.04 0.83,-1.88 1.88,-1.88 z"
     id="path6" /><path
     style="fill:#2c9448;fill-rule:evenodd;stroke:#000000;stroke-width:0;stroke-opacity:0.988166;paint-order:fill markers stroke"
     d="m 24.517323,55.617515 c 0.05617,-0.249065 0.149601,-1.135026 0.207629,-1.968801 0.254794,-3.661011 -1.032247,-7.082724 -3.647965,-9.698442 -1.281737,-1.281737 -3.172833,-2.488043 -4.608228,-2.939531 L 15.561377,40.725336 V 28.802039 16.878742 h 16.961078 16.961078 v 3.622755 3.622754 h -9.221557 -9.221557 v 12.3503 12.350299 h 9.221557 9.221557 v 3.622754 3.622755 H 36.949366 24.415199 Z M 24.910965,24.36192 c 0.413836,-0.289863 0.476971,-0.763912 0.139085,-1.044333 -0.157958,-0.131093 -1.246162,-0.174744 -3.581587,-0.143666 l -3.354691,0.04464 -0.05171,0.536587 c -0.07388,0.766678 0.237627,0.840528 3.596652,0.852675 2.357945,0.0085 2.953255,-0.03648 3.252246,-0.245905 z m 3.729967,-2.472485 c 0.328452,-0.328451 0.328452,-0.636048 0,-0.964499 -0.22383,-0.223831 -0.930852,-0.258769 -5.236527,-0.258769 -5.230999,0 -5.372968,0.01958 -5.372968,0.741018 0,0.721438 0.141969,0.741018 5.372968,0.741018 4.305675,0 5.012697,-0.03494 5.236527,-0.258768 z m 0.0941,-2.540633 c 0.203631,-0.380488 -1.15e-4,-0.889642 -0.42057,-1.050986 -0.465433,-0.178603 -9.620345,-0.115434 -9.964507,0.06876 -0.311047,0.166467 -0.449118,0.961409 -0.208735,1.201791 0.06038,0.06038 2.429029,0.10978 5.263667,0.10978 4.985354,0 5.159651,-0.01077 5.330145,-0.329341 z"
     id="path7" /><path
     style="fill:#2c9448;fill-rule:evenodd;stroke:#000000;stroke-width:0;stroke-opacity:0.988166;paint-order:fill markers stroke"
     d="m 15.561377,14.139614 c 0,-0.691401 0.08714,-1.547957 0.193656,-1.903457 0.254214,-0.848492 1.278198,-1.994888 2.165579,-2.424461 0.70101,-0.3393532 0.860677,-0.3431331 14.494451,-0.3431331 14.946998,0 14.281133,-0.038277 15.499455,0.8909821 0.278901,0.212729 0.718827,0.775802 0.97761,1.251272 0.38566,0.708586 0.485537,1.127922 0.553801,2.325191 l 0.08329,1.460699 H 32.545297 15.561377 Z"
     id="path8" /><path
     style="fill:#2c9448;fill-rule:evenodd;stroke:#000000;stroke-width:0;stroke-opacity:0.988166;paint-order:fill markers stroke"
     d="m 17.908422,68.32824 c -0.95134,-0.474073 -1.587204,-1.138335 -2.039549,-2.130636 -0.472841,-1.037264 -0.420562,-1.150302 0.721696,-1.560456 2.82836,-1.01559 5.58133,-3.470284 6.817906,-6.079209 l 0.468771,-0.98901 12.815813,-0.0083 12.815813,-0.0083 -0.05384,4.075599 c -0.05034,3.810454 -0.07708,4.119017 -0.411135,4.742993 -0.443087,0.827639 -1.232426,1.612335 -2.012712,2.00087 -0.555226,0.276469 -1.498565,0.298677 -14.429775,0.339695 l -13.835711,0.04389 z M 33.77644,64.615426 c 0.219044,-0.205781 0.478362,-0.641503 0.576265,-0.968272 0.236601,-0.789701 -0.128884,-1.684472 -0.873484,-2.138442 -1.740009,-1.060854 -3.627431,0.809611 -2.675151,2.651117 0.506597,0.979652 2.146912,1.231075 2.97237,0.455597 z"
     id="path9" /><path
     style="fill:#2c9448;fill-rule:evenodd;stroke:#000000;stroke-width:0;stroke-opacity:0.988166;paint-order:fill markers stroke"
     d="M 9.8828459,63.701289 C 5.0655092,62.669155 1.4725532,58.491186 1.1200674,53.511733 0.87411084,50.037185 2.6087083,46.228672 5.398583,44.11775 c 3.5528755,-2.688238 7.779802,-3.104556 11.727166,-1.155032 3.627811,1.791704 5.938672,5.308127 6.13863,9.341112 0.359172,7.244207 -6.298762,12.914972 -13.3815331,11.397459 z M 17.702096,55.576347 V 51.130239 H 12.185629 6.6691617 v 4.446108 4.446108 h 5.5164673 5.516467 z m -6.751497,-6.758982 c 0,-1.012235 0.05154,-1.211722 0.404191,-1.564371 0.510227,-0.510227 1.095864,-0.514539 1.679672,-0.01237 0.402068,0.345844 0.463297,0.529418 0.521778,1.564371 l 0.06625,1.172548 h 1.134113 1.134112 l -0.0036,-1.358533 c -0.0043,-1.627402 -0.305664,-2.407303 -1.263904,-3.271206 -1.349412,-1.216565 -3.421188,-1.227035 -4.8262094,-0.02439 -0.9942267,0.851021 -1.3084253,1.639751 -1.3128332,3.295595 l -0.00362,1.358533 h 1.23503 1.2350306 z"
     id="path10" /><path
     style="fill:#2c9448;fill-rule:evenodd;stroke:#000000;stroke-width:0;stroke-opacity:0.988166;paint-order:fill markers stroke"
     d="M 32.522455,36.474551 V 25.606287 h 16.22006 16.22006 v 10.868264 10.868263 h -16.22006 -16.22006 z m 16.265754,7.647848 c 0.402661,-0.282034 0.474682,-0.721784 0.168378,-1.028088 -0.28365,-0.28365 -12.659463,-0.28365 -12.943114,0 -0.273497,0.273497 -0.247021,0.717478 0.06116,1.025663 0.225844,0.225844 1.02782,0.258768 6.303179,0.258768 5.204151,0 6.095289,-0.03563 6.410393,-0.256343 z m 5.389044,-3.037739 c 0.24677,-0.272679 0.266121,-0.401412 0.111386,-0.741018 l -0.187267,-0.411008 h -8.945147 c -6.737776,0 -8.99391,0.04876 -9.142752,0.197605 -0.273497,0.273497 -0.247021,0.717479 0.06116,1.025663 0.228767,0.228767 1.275837,0.258768 9.031364,0.258768 8.569393,0 8.779515,-0.0076 9.071252,-0.33001 z M 41.414671,31.616766 v -2.387724 h -2.47006 -2.47006 v 2.387724 2.387725 h 2.47006 2.47006 z m 17.136574,1.558578 c 0.616984,-0.3302 0.300851,-1.311572 -0.422502,-1.311572 -0.70472,0 -1.039016,0.962762 -0.452845,1.304175 0.368583,0.21468 0.486177,0.215674 0.875347,0.0074 z m 2.200466,-0.0883 c 0.562979,-0.562979 0.150622,-1.289026 -0.678131,-1.193999 -0.369073,0.04232 -0.47355,0.146796 -0.515868,0.515869 -0.09503,0.828752 0.631019,1.241109 1.193999,0.67813 z m -2.079555,-2.079555 c 0.461901,-0.461901 0.113907,-1.284431 -0.543413,-1.284431 -0.441394,0 -0.741018,0.299625 -0.741018,0.741017 0,0.441393 0.299624,0.741018 0.741018,0.741018 0.190194,0 0.43473,-0.08892 0.543413,-0.197604 z m 2.140718,0 c 0.461901,-0.461901 0.113908,-1.284431 -0.543413,-1.284431 -0.441393,0 -0.741018,0.299625 -0.741018,0.741017 0,0.441393 0.299625,0.741018 0.741018,0.741018 0.190195,0 0.434731,-0.08892 0.543413,-0.197604 z"
     id="path11" /></svg>
