<?xml version="1.0" encoding="UTF-8" standalone="no"?>
<svg
   version="1.1"
   x="0px"
   y="0px"
   viewBox="0 0 4096 6400"
   enable-background="new 0 0 64 64"
   xml:space="preserve"
   id="svg12"
   sodipodi:docname="noun-pocket-money-5338132.svg"
   width="30000"
   height="40000"
   inkscape:export-filename="-pocket-money-5338132.png"
   inkscape:export-xdpi="96"
   inkscape:export-ydpi="96"
   xmlns:inkscape="http://www.inkscape.org/namespaces/inkscape"
   xmlns:sodipodi="http://sodipodi.sourceforge.net/DTD/sodipodi-0.dtd"
   xmlns="http://www.w3.org/2000/svg"
   xmlns:svg="http://www.w3.org/2000/svg"><defs
     id="defs12" /><sodipodi:namedview
     id="namedview12"
     pagecolor="#ffffff"
     bordercolor="#999999"
     borderopacity="1"
     inkscape:showpageshadow="0"
     inkscape:pageopacity="0"
     inkscape:pagecheckerboard="0"
     inkscape:deskcolor="#d1d1d1" /><g
     id="g11"
     transform="matrix(64.572998,0,0,59.157731,-373.03523,596.21353)"><g
       id="g10"><path
         d="M 15.1,33 H 13 c -0.5,0 -1,0.2 -1.4,0.6 C 11.2,34 11,34.5 11,35 c 0,0.6 0.2,1.1 0.6,1.5 z"
         id="path1" /><path
         d="M 17.5,30.6 24.1,24 c -0.3,0 -0.6,0.1 -0.9,0.1 -0.9,0 -1.7,-0.2 -2.5,-0.6 z"
         id="path2" /><path
         d="M 26.7,19.7 23.2,18 21.5,21.7 c 2,0.9 4.3,0.1 5.2,-2 z"
         id="path3" /><path
         d="m 20.2,37 13,-13 c -0.1,0 -0.2,0 -0.3,0 -1.6,0 -3.1,-0.6 -4.2,-1.8 L 13.9,37 Z"
         id="path4" /><path
         d="M 35.7,20.8 32.9,18 30.1,20.8 c 1.6,1.6 4.1,1.6 5.6,0 z"
         id="path5" /><path
         d="M 37.4,22.6 23,37 h 5.8 v 0 c -0.4,-0.4 -0.4,-1 0,-1.4 l 1.4,-1.4 c 0.4,-0.4 1,-0.4 1.4,0 0.4,0.4 0.4,1 0,1.4 L 30.2,37 h 11.5 c -0.8,-0.8 -0.8,-2.1 0,-2.9 l 1.4,-1.4 c 0.8,-0.8 2.1,-0.8 2.9,0 0.8,0.8 0.8,2.1 0,2.9 L 44.6,37 c -0.1,0.1 -0.1,0.1 -0.2,0.2 1.1,0.2 2,0.8 2.8,1.6 l 3.2,-3.2 c 0.8,-0.8 0.8,-2.1 0,-2.9 L 40.3,22.6 c -0.8,-0.8 -2.1,-0.8 -2.9,0 z m -1.4,8.6 -1.4,1.4 c -0.2,0.2 -0.5,0.3 -0.7,0.3 -0.3,0 -0.5,-0.1 -0.7,-0.3 -0.4,-0.4 -0.4,-1 0,-1.4 l 1.4,-1.4 c 0.4,-0.4 1,-0.4 1.4,0 0.4,0.4 0.4,1 0,1.4 z m 4.3,-4.3 -1.4,1.4 c -0.2,0.2 -0.5,0.3 -0.7,0.3 -0.3,0 -0.5,-0.1 -0.7,-0.3 -0.4,-0.4 -0.4,-1 0,-1.4 l 1.4,-1.4 c 0.4,-0.4 1,-0.4 1.4,0 0.4,0.4 0.4,1 0,1.4 z"
         id="path6" /><path
         d="m 42,19 c 3.9,0 7,-3.1 7,-7 0,-3.9 -3.1,-7 -7,-7 -3.9,0 -7,3.1 -7,7 0,3.9 3.1,7 7,7 z m 0.5,-6 h -1 C 40.1,13 39,11.9 39,10.5 39,9.3 39.9,8.3 41,8.1 V 8 c 0,-0.6 0.4,-1 1,-1 0.6,0 1,0.4 1,1 h 1 c 0.6,0 1,0.4 1,1 0,0.6 -0.4,1 -1,1 h -2.5 c -0.3,0 -0.5,0.2 -0.5,0.5 0,0.3 0.2,0.5 0.5,0.5 h 1 c 1.4,0 2.5,1.1 2.5,2.5 0,1.2 -0.9,2.2 -2,2.4 V 16 c 0,0.6 -0.4,1 -1,1 -0.6,0 -1,-0.4 -1,-1 h -1 c -0.6,0 -1,-0.4 -1,-1 0,-0.6 0.4,-1 1,-1 h 2.5 C 42.8,14 43,13.8 43,13.5 43,13.2 42.8,13 42.5,13 Z"
         id="path7" /><path
         d="m 22,15 c 3.9,0 7,-3.1 7,-7 0,-3.9 -3.1,-7 -7,-7 -3.9,0 -7,3.1 -7,7 0,3.9 3.1,7 7,7 z m 0.5,-6 h -1 C 20.1,9 19,7.9 19,6.5 19,5.3 19.9,4.3 21,4.1 V 4 c 0,-0.6 0.4,-1 1,-1 0.6,0 1,0.4 1,1 h 1 c 0.6,0 1,0.4 1,1 0,0.6 -0.4,1 -1,1 H 21.5 C 21.2,6 21,6.2 21,6.5 21,6.8 21.2,7 21.5,7 h 1 c 1.4,0 2.5,1.1 2.5,2.5 0,1.2 -0.9,2.2 -2,2.4 V 12 c 0,0.6 -0.4,1 -1,1 -0.6,0 -1,-0.4 -1,-1 h -1 c -0.6,0 -1,-0.4 -1,-1 0,-0.6 0.4,-1 1,-1 h 2.5 C 22.8,10 23,9.8 23,9.5 23,9.2 22.8,9 22.5,9 Z"
         id="path8" /><path
         d="m 37,51 c 0,-3.9 3.1,-7 7,-7 h 3 v -1 c 0,-0.4 0,-0.7 -0.1,-1 -0.4,-1.7 -2,-3 -3.9,-3 H 12 C 10.3,39 9,37.7 9,36 v 23 c 0,2.2 1.8,4 4,4 h 30 c 2.2,0 4,-1.8 4,-4 v -1 h -3 c -3.9,0 -7,-3.1 -7,-7 z"
         id="path9" /><path
         d="m 49,46 h -5 c -2.8,0 -5,2.2 -5,5 0,2.8 2.2,5 5,5 h 5 c 1.1,0 2,-0.9 2,-2 V 44 c 0,0.5 -0.2,1 -0.6,1.4 C 50,45.8 49.5,46 49,46 Z"
         id="path10" /></g></g><path
     d="m 3279.3327,4577.6214 c -131.3681,0 -255.7296,-41.9307 -350.2166,-118.0153 -13.4691,-10.8672 -26.1443,-22.2806 -38.0035,-34.1828 v 145.9883 c 0,154.34 177.7727,284.7031 388.2201,284.7031 210.4475,0 388.2427,-130.3631 388.2427,-284.7031 v -145.9883 c -11.8365,11.9022 -24.5118,23.3156 -38.0033,34.1828 -94.4872,76.0846 -218.86,118.0153 -350.2394,118.0153 z"
     id="path1-4"
     style="stroke-width:30.7719" /><path
     d="m 3279.3327,5028.8397 c -131.3681,0 -255.7296,-41.945 -350.2166,-118.0584 -13.4691,-10.8817 -26.1443,-22.2662 -38.0035,-34.1399 v 145.9741 c 0,154.34 177.7727,284.6884 388.2201,284.6884 210.4475,0 388.2427,-130.3484 388.2427,-284.6884 v -145.9741 c -11.8365,11.8737 -24.5118,23.2582 -38.0033,34.1399 -94.4872,76.1134 -218.86,118.0584 -350.2394,118.0584 z"
     id="path2-0"
     style="stroke-width:30.7719" /><path
     d="m 3279.3327,3853.861 c -210.4474,0 -388.2201,130.4064 -388.2201,284.7176 0,154.3112 177.7727,284.7461 388.2201,284.7461 210.4475,0 388.2427,-130.4351 388.2427,-284.7461 0,-154.3111 -177.7952,-284.7176 -388.2427,-284.7176 z"
     id="path3-9"
     style="stroke-width:30.7719" /><path
     d="m 3433.4935,2947.1332 c -131.4021,0 -255.7295,-41.945 -350.1938,-118.0728 -13.4916,-10.8387 -26.1443,-22.2519 -38.0035,-34.0967 v 145.9597 c 0,154.3543 177.7725,284.6744 388.1973,284.6744 210.4473,0 388.2881,-130.3201 388.2881,-284.6744 v -145.9597 c -11.8817,11.8448 -24.5345,23.258 -38.0487,34.0967 -94.4871,76.1278 -218.86,118.0728 -350.2394,118.0728 z"
     id="path4-2"
     style="stroke-width:30.7719" /><path
     d="m 3433.4935,3398.2938 c -131.4021,0 -255.7295,-41.9163 -350.1938,-118.0295 -13.4916,-10.8241 -26.1443,-22.2665 -38.0035,-34.1399 v 145.974 c 0,154.3397 177.7725,284.7462 388.1973,284.7462 210.4473,0 388.2881,-130.4065 388.2881,-284.7462 v -145.974 c -11.8817,11.8734 -24.5345,23.3158 -38.0487,34.1399 -94.4871,76.1132 -218.86,118.0295 -350.2394,118.0295 z"
     id="path5-5"
     style="stroke-width:30.7719" /><path
     d="m 3433.4935,2511.612 c -131.4021,0 -255.7295,-41.9019 -350.1938,-118.044 -13.4916,-10.8385 -26.1443,-22.2664 -38.0035,-34.154 v 145.9882 c 0,154.3111 177.7725,284.7317 388.1973,284.7317 210.4473,0 388.2881,-130.4206 388.2881,-284.7317 V 2359.414 c -11.8817,11.8876 -24.5345,23.3155 -38.0487,34.154 -94.4871,76.1421 -218.86,118.044 -350.2394,118.044 z"
     id="path6-8"
     style="stroke-width:30.7719" /><path
     d="m 3433.4935,2359.414 c 210.4473,0 388.2881,-130.3632 388.2881,-284.7032 0,-154.3685 -177.8408,-284.7316 -388.2881,-284.7316 -210.4248,0 -388.1973,130.3631 -388.1973,284.7316 0,154.34 177.7725,284.7032 388.1973,284.7032 z"
     id="path7-0"
     style="stroke-width:30.7719" /><path
     d="m 1188.9028,5344.5998 c -131.3794,0 -255.75227,-41.9307 -350.23927,-118.0442 -13.49169,-10.8528 -26.12176,-22.2805 -38.04883,-34.1541 v 145.9883 c 0,154.3113 177.81811,284.7319 388.2881,284.7319 210.4248,0 388.1746,-130.4206 388.1746,-284.7319 v -145.9883 c -11.8364,11.8736 -24.5116,23.3013 -37.9579,34.1541 -94.4644,76.1135 -218.8373,118.0442 -350.2167,118.0442 z"
     id="path8-3"
     style="stroke-width:30.7719" /><path
     d="m 1188.9028,4612.1572 c -210.46999,0 -388.2881,130.3775 -388.2881,284.7029 0,154.3255 177.81811,284.7318 388.2881,284.7318 210.4248,0 388.1746,-130.4063 388.1746,-284.7318 0,-154.3256 -177.7498,-284.7029 -388.1746,-284.7029 z"
     id="path9-5"
     style="stroke-width:30.7719" /><path
     style="fill:#2c9448;fill-opacity:1;fill-rule:evenodd;stroke:#000000;stroke-width:0;paint-order:fill markers stroke"
     d="m 1056.5941,5155.4603 c -121.09154,-37.5932 -226.3649,-137.6908 -243.63779,-231.6597 -19.15603,-104.2139 81.06586,-227.4888 226.48519,-278.5814 29.3043,-10.2961 99.8392,-18.6497 156.7441,-18.5637 213.5898,0.3206 401.4464,157.3363 368.9435,308.3693 -16.0306,74.4901 -108.3427,165.9516 -204.5888,202.7035 -87.0882,33.2551 -227.5495,41.4495 -303.9462,17.732 z"
     id="path12" /><path
     style="fill:#2c9448;fill-opacity:1;fill-rule:evenodd;stroke:#000000;stroke-width:0;paint-order:fill markers stroke"
     d="M 1043.3423,5588.6949 C 881.37456,5529.7295 819.00567,5456.41 808.84336,5313.023 l -6.92918,-97.7735 63.1719,42.6663 c 177.91182,120.1618 471.77102,119.3876 645.73932,-1.701 l 55.289,-38.4834 5.0249,59.0596 c 6.1046,71.7603 -32.4221,180.6848 -80.0678,226.3675 -102.1402,97.9323 -306.4585,136.9663 -447.7285,85.5363 z"
     id="path13" /><path
     style="fill:#2c9448;fill-opacity:1;fill-rule:evenodd;stroke:#000000;stroke-width:0;paint-order:fill markers stroke"
     d="m 3156.2924,4397.6948 c -294.0504,-84.8503 -340.3888,-356.4688 -82.7606,-485.111 196.3082,-98.023 455.799,-38.243 555.044,127.8678 54.3744,91.0092 30.5679,190.4554 -65.3029,272.787 -102.8332,88.3109 -271.979,123.4119 -406.9805,84.4562 z"
     id="path14" /><path
     style="fill:#2c9448;fill-opacity:1;fill-rule:evenodd;stroke:#000000;stroke-width:0;paint-order:fill markers stroke"
     d="m 3146.4742,4827.4334 c -162.6909,-51.9183 -240.1976,-142.3146 -240.1976,-280.1426 0,-45.8869 5.2899,-80.9899 11.7559,-78.0067 6.4658,2.9834 50.55,26.4979 97.9651,52.2549 72.5376,39.4037 108.9453,47.9254 229.575,53.7352 158.1614,7.6169 257.6346,-16.1228 357.5672,-85.3357 l 55.5089,-38.4452 -0.058,83.5036 c -0.038,54.7387 -10.6587,101.2466 -30.8302,135.0111 -85.7432,143.5224 -302.5893,214.4513 -481.2857,157.4254 z"
     id="path15" /><path
     style="fill:#2c9448;fill-opacity:1;fill-rule:evenodd;stroke:#000000;stroke-width:0;paint-order:fill markers stroke"
     d="m 3139.1566,5276.1628 c -162.7201,-59.3305 -232.88,-142.16 -232.88,-274.934 v -84.4605 l 90.1281,46.998 c 125.0557,65.2113 248.442,85.8465 376.85,63.0246 101.6358,-18.0637 205.9434,-62.0104 257.9638,-108.685 25.6992,-23.0585 27.4302,-19.3576 27.4302,58.6487 0,45.7932 -10.22,103.4306 -22.711,128.083 -76.3065,150.6001 -321.6062,235.1969 -496.7811,171.3252 z"
     id="path16" /><path
     style="fill:#2c9448;fill-opacity:1;fill-rule:evenodd;stroke:#000000;stroke-width:0;paint-order:fill markers stroke"
     d="m 3281.9827,3642.0907 c -147.7502,-46.4847 -234.3234,-162.4593 -234.549,-314.2044 l -0.088,-58.8228 87.1047,53.5321 c 195.4025,120.0891 497.9954,103.3212 653.5114,-36.2136 25.7006,-23.0597 27.4302,-19.3454 27.4302,58.906 0,45.9347 -7.9,99.2416 -17.5552,118.4597 -82.2149,163.642 -311.0842,242.7672 -515.8549,178.343 z"
     id="path17" /><path
     style="fill:#2c9448;fill-opacity:1;fill-rule:evenodd;stroke:#000000;stroke-width:0;paint-order:fill markers stroke"
     d="m 3321.6487,3203.7269 c -163.4766,-40.7982 -257.0048,-141.2266 -270.2385,-290.1757 l -8.7382,-98.3575 63.5138,42.8972 c 90.4252,61.0733 194.2918,88.6926 333.5419,88.6926 131.0772,0 223.4679,-25.9005 316.8866,-88.8342 l 58.779,-39.5981 v 72.7286 c 0,98.7558 -31.4619,168.2293 -103.855,229.3305 -98.5286,83.1601 -255.8281,116.7739 -389.8891,83.3166 z"
     id="path18" /><path
     style="fill:#2c9448;fill-opacity:1;fill-rule:evenodd;stroke:#000000;stroke-width:0;paint-order:fill markers stroke"
     d="m 3310.7269,2765.3037 c -165.5049,-47.4504 -262.2712,-161.1142 -263.0362,-308.9681 l -0.3435,-66.5198 109.5841,57.3822 c 93.937,49.1887 128.5667,58.3989 242.5281,64.5036 147.6931,7.9114 246.9162,-16.3306 356.9186,-87.2024 l 62.9935,-40.5853 -6.7967,95.9018 c -5.2398,73.9351 -16.98,109.5278 -51.2542,155.389 -84.6295,113.2407 -296.2635,174.3454 -450.5927,130.099 z"
     id="path19" /><path
     style="fill:#2c9448;fill-opacity:1;fill-rule:evenodd;stroke:#000000;stroke-width:0;paint-order:fill markers stroke"
     d="m 3310.7269,2333.4276 c -114.2827,-32.8438 -198.8008,-98.113 -234.8996,-181.4013 -30.248,-69.7892 -30.4275,-75.2762 -4.7117,-143.9994 32.5069,-86.8713 118.2706,-155.1496 240.395,-191.3833 247.152,-73.3292 538.1788,102.4949 495.7773,299.5243 -34.6385,160.9561 -295.4341,275.0615 -496.561,217.2597 z"
     id="path20" /><path
     style="fill:#2c9448;fill-opacity:1;fill-rule:evenodd;stroke:#000000;stroke-width:0;paint-order:fill markers stroke"
     d="M 413.94299,4307.8869 C 323.57781,4279.1813 275.10049,4241.15 243.23112,4173.9607 211.38837,4106.8275 210.277,4082.4145 210.277,3450.0866 c 0,-609.558 1.75118,-651.8457 25.56015,-617.1539 56.4104,82.1961 51.22024,81.8365 1184.78515,82.1194 l 1054.6079,0.2605 61.066,35.7306 c 66.4231,38.8654 119.1897,122.6778 119.1897,189.3162 0,42.077 -0.095,42.1079 -152.8254,49.6637 -177.8525,8.7981 -275.5578,45.0821 -370.2175,137.4829 -128.1909,125.1321 -157.8764,308.7287 -75.8336,469.0115 82.7974,161.757 232.9832,238.0793 468.4889,238.0793 129.0717,0 130.3876,0.4108 130.3876,40.507 0,73.4613 -42.7097,148.0929 -111.2458,194.3928 l -66.6904,45.0529 -1012.1597,2.9073 c -556.68768,1.5989 -1029.83892,-2.708 -1051.44701,-9.5725 z"
     id="path21" /><path
     style="fill:#2c9448;fill-opacity:1;fill-rule:evenodd;stroke:#000000;stroke-width:0;paint-order:fill markers stroke"
     d="m 2396.8581,3892.2702 c -214.2874,-56.0119 -303.6899,-258.1657 -191.0203,-431.928 68.5688,-105.749 140.8943,-129.6238 392.6777,-129.6238 162.3059,0 226.6495,-6.0049 261.5162,-24.4067 l 46.2449,-24.4067 v 277.884 c 0,354.7088 13.1836,337.6491 -264.1415,341.8028 -109.0396,1.6331 -219.4142,-2.5616 -245.277,-9.3219 z"
     id="path22" /><path
     style="fill:#2c9448;fill-opacity:1;fill-rule:evenodd;stroke:#000000;stroke-width:0;paint-order:fill markers stroke"
     d="m 2616.2999,2834.8025 c -25.8627,-17.4812 -60.8354,-31.8313 -77.7169,-31.8893 -25.0286,-0.086 -18.5192,-12.766 35.2674,-68.6995 90.9284,-94.5577 90.7245,-181.1964 -0.5399,-229.3632 -68.3948,-36.097 -133.3731,-16.7173 -221.2198,65.9785 -70.4456,66.3152 -75.6695,76.4335 -70.1205,135.8187 l 5.9955,64.1655 H 1953.0769 1618.188 l 40.5794,-49.2192 c 22.3187,-27.0707 40.5794,-55.3515 40.5794,-62.8465 0,-24.7198 -48.7146,-63.9046 -79.4466,-63.9046 -40.4341,0 -155.6698,107.9571 -155.6698,145.8373 0,27.5431 -13.7418,30.133 -159.8789,30.133 -99.5345,0 -154.2589,-5.6563 -144.9883,-14.9851 148.2139,-149.1533 918.5832,-836.1391 945.801,-843.4293 20.6078,-5.5191 53.6105,-3.6026 73.3393,4.2608 19.7288,7.8635 191.5487,157.4094 381.822,332.3258 411.908,378.6631 401.9944,357.4289 240.1491,514.3697 -58.1913,56.428 -112.8559,102.7393 -121.4768,102.9138 -8.6214,0.1704 -36.8348,-13.9852 -62.6977,-31.4662 z M 1915.967,2489.6141 c 66.6737,-58.2459 80.4649,-97.0806 46.7098,-131.531 -35.5559,-36.2882 -95.6751,-20.9427 -156.867,40.0404 -61.6935,61.4831 -72.7545,96.7453 -40.6307,129.5309 32.9169,33.595 83.3521,20.8712 150.7879,-38.0403 z m 268.7595,-248.203 c 65.6151,-53.8157 82.7801,-91.3917 60.3962,-132.2133 -22.8074,-41.594 -88.0414,-30.7463 -154.6873,25.7231 -58.1287,49.2524 -81.3546,114.815 -51.4764,145.3087 24.2197,24.7187 89.494,7.3364 145.7675,-38.8185 z"
     id="path23" /><path
     style="fill:#2c9448;fill-opacity:1;fill-rule:evenodd;stroke:#000000;stroke-width:0;paint-order:fill markers stroke"
     d="m 570.78861,2764.1768 c 0,-3.6497 204.34193,-194.3457 454.09329,-423.768 l 454.0933,-417.1316 56.9016,39.4098 c 49.0492,33.9714 83.1002,44.9293 190.5421,61.318 10.5795,1.6141 -163.7122,170.3058 -387.3144,374.8712 l -406.54982,371.937 H 751.67162 c -99.48562,0 -180.88301,-2.9864 -180.88301,-6.6361 z"
     id="path24" /><path
     style="fill:#2c9448;fill-opacity:1;fill-rule:evenodd;stroke:#000000;stroke-width:0;paint-order:fill markers stroke"
     d="m 805.90481,2333.0764 c 0,-5.9228 35.24549,-82.4503 78.32324,-170.0611 l 78.32328,-159.2922 50.99067,10.2376 c 135.3403,27.1728 135.7337,18.7519 -6.9763,149.3372 -179.44151,164.1963 -200.66128,182.1501 -200.66128,169.7785 z"
     id="path26" /><path
     style="fill:#2c9448;fill-opacity:1;fill-rule:evenodd;stroke:#000000;stroke-width:0;paint-order:fill markers stroke"
     d="m 1045.4474,1880.5402 c -13.2763,-5.4931 -4.0895,-35.5403 30.1838,-98.72 27.098,-49.9534 51.4744,-93.7396 54.1697,-97.3028 2.6956,-3.5635 51.1764,13.594 107.7359,38.1272 l 102.8352,44.606 -36.036,39.3798 c -19.8196,21.6589 -55.0826,49.4941 -78.3622,61.8558 -40.8048,21.6682 -141.1016,28.3649 -180.5264,12.054 z"
     id="path27" /><path
     style="fill:#2c9448;fill-opacity:1;fill-rule:evenodd;stroke:#000000;stroke-width:0;paint-order:fill markers stroke"
     d="m 1647.745,1864.1624 c -32.6912,-13.833 -57.3785,-29.934 -54.8605,-35.7799 7.3534,-17.0703 148.1315,-145.3851 159.507,-145.3851 16.6528,0 150.7224,130.6066 150.7224,146.8293 0,21.274 -101.0405,61.2805 -152.322,60.3111 -23.9845,-0.4508 -70.3556,-12.1424 -103.0469,-25.9754 z"
     id="path28" /><path
     style="fill:#2c9448;fill-opacity:1;fill-rule:evenodd;stroke:#000000;stroke-width:0;paint-order:fill markers stroke"
     d="m 361.33329,2727.6811 c -21.38997,-21.8304 -8.42811,-102.4346 21.3623,-132.8382 22.44834,-22.9105 52.24807,-31.9945 104.95847,-31.9945 h 73.60969 l -54.01663,57.3818 c -68.97748,73.2749 -133.11942,120.509 -145.91383,107.4509 z"
     id="path29" /><path
     style="fill:#2c9448;fill-opacity:1;fill-rule:evenodd;stroke:#000000;stroke-width:0;paint-order:fill markers stroke"
     d="M 902.66797,1451.292 C 714.23998,1391.2772 584.43821,1207.1566 607.81957,1033.0566 663.33416,619.69102 1260.8461,530.61506 1452.5315,907.12877 c 45.3507,89.07893 45.326,233.74423 -0.055,321.99683 -99.5136,193.5249 -337.634,289.7445 -549.80867,222.1664 z m 176.51863,-87.8446 c 22.1138,-8.5805 40.2065,-26.5776 40.2065,-39.9931 0,-13.4157 10.9009,-24.3919 24.2241,-24.3919 47.6712,0 101.1713,-74.5974 101.1713,-141.067 0,-89.8594 -55.0802,-141.6121 -165.735,-155.7222 -114.36624,-14.58358 -108.07754,-39.15411 10.0213,-39.15411 113.7748,0 155.7137,-19.38854 155.7137,-71.98771 0,-41.666 -39.3862,-71.98785 -93.508,-71.98785 -18.0791,0 -36.9313,-10.79809 -41.8934,-23.99595 -5.6325,-14.98091 -29.5541,-23.99595 -63.6732,-23.99595 -41.4687,0 -56.62835,7.71717 -62.84876,31.9946 -4.50853,17.59709 -16.92562,31.99469 -27.59269,31.99469 -10.66698,0 -38.05832,17.65307 -60.86946,39.22929 -44.637,42.22025 -56.18112,126.79649 -25.33581,185.61889 23.50949,44.8327 98.23146,79.1003 172.48172,79.1003 44.8202,0 62.7925,6.1613 58.3247,19.9967 -4.0619,12.5776 -49.6157,22.9641 -122.78304,27.9952 -114.51865,7.8744 -116.40563,8.717 -121.49897,54.2547 -5.6502,50.5144 16.41063,73.094 71.78999,73.4787 19.39699,0.1305 49.37449,14.6425 66.61623,32.2396 36.44459,37.1954 33.19239,36.5695 85.18879,16.3931 z"
     id="path33" /><path
     style="fill:#2c9448;fill-opacity:1;fill-rule:evenodd;stroke:#000000;stroke-width:0;paint-order:fill markers stroke"
     d="m 2213.5177,1693.5538 c -134.3057,-38.6309 -250.9096,-140.9228 -294.7651,-258.5853 -24.9078,-66.8265 -22.2947,-200.6616 5.2298,-267.8955 80.9255,-197.67152 331.0683,-309.96158 547.4627,-245.75811 240.676,71.40761 372.6204,322.19011 279.5538,531.33941 -85.6428,192.4663 -328.085,301.1292 -537.4816,240.8995 z m 185.8391,-119.4276 c 4.0707,-15.8866 27.8803,-36.7738 52.9105,-46.4162 61.2192,-23.5839 102.8891,-111.7986 82.4968,-174.6449 -21.3644,-65.8421 -104.1235,-117.9919 -187.2473,-117.9919 -37.5192,0 -68.2168,-7.1992 -68.2168,-15.9974 0,-8.9664 43.2483,-15.9973 98.3961,-15.9973 141.1294,0 206.6714,-54.3008 143.4377,-118.8369 -13.547,-13.8262 -45.2877,-25.1386 -70.5348,-25.1386 -25.2471,0 -45.9037,-7.4307 -45.9037,-16.5129 0,-21.8925 -62.2201,-44.60846 -96.8614,-35.3628 -15.1226,4.0363 -31.7313,20.9585 -36.9083,37.6057 -5.177,16.6469 -18.8904,30.2673 -30.4746,30.2673 -33.9259,0 -102.2208,94.6335 -102.2208,141.6435 0,87.289 93.9468,162.3051 203.264,162.3051 26.1397,0 47.5267,7.199 47.5267,15.9972 0,8.9063 -42.1418,15.9973 -95.077,15.9973 -113.7747,0 -155.7137,19.3887 -155.7137,71.9878 0,40.9826 39.2354,71.988 91.0968,71.988 16.7531,0 39.2409,10.798 49.973,23.9957 28.1582,34.6277 110.7938,31.2625 120.0568,-4.8889 z"
     id="path34" /></svg>
